<svg width="69" height="71" viewBox="0 0 69 71" fill="none" xmlns="http://www.w3.org/2000/svg">
<path d="M35.807 71C30.0888 71 25.0059 70.2145 20.5584 68.6434C16.129 67.0906 12.3895 64.7979 9.33978 61.7653C6.29006 58.7511 3.97553 55.07 2.39621 50.7221C0.81689 46.3742 0.0181531 41.4053 0 35.8151C0.0181531 30.3529 0.825967 25.4296 2.42344 21.0452C4.02092 16.6425 6.35359 12.8792 9.42147 9.75531C12.4893 6.61315 16.238 4.20173 20.6673 2.52104C25.0967 0.840346 30.1342 0 35.7798 0C41.0987 0 45.8094 0.812943 49.912 2.43883C54.0328 4.06471 57.5091 6.32999 60.341 9.23466C63.191 12.1211 65.3421 15.5007 66.7944 19.3736C68.2648 23.2282 69 27.4117 69 31.924C69 35.0479 68.764 38.0073 68.292 40.8024C67.82 43.5792 67.0122 46.0454 65.8686 48.2011C64.7431 50.3568 63.2092 52.074 61.2668 53.3528C59.3244 54.6133 56.8919 55.2983 53.9692 55.408C52.1358 55.4993 50.5292 55.3257 49.1496 54.8873C47.7699 54.4489 46.6535 53.7638 45.8003 52.8321C44.9653 51.8822 44.4388 50.7221 44.221 49.352H43.8942C43.4767 50.4481 42.6871 51.4529 41.5253 52.3663C40.3816 53.2614 38.9657 53.9647 37.2774 54.4763C35.5892 54.9695 33.7103 55.1705 31.6409 55.0791C29.4262 54.9695 27.3749 54.458 25.487 53.5446C23.6172 52.6129 21.9834 51.3158 20.5856 49.6534C19.206 47.9727 18.135 45.9449 17.3725 43.5701C16.6101 41.1952 16.2289 38.5006 16.2289 35.4863C16.2289 32.5451 16.6464 29.951 17.4815 27.704C18.3165 25.457 19.4329 23.5388 20.8307 21.9494C22.2466 20.3601 23.8441 19.1178 25.6231 18.2227C27.4021 17.3093 29.2356 16.7247 31.1235 16.4689C33.0841 16.1949 34.9266 16.2223 36.6511 16.5511C38.3757 16.88 39.8098 17.3824 40.9534 18.0583C42.1152 18.7342 42.8414 19.4741 43.1318 20.2779H43.513V17.2088H51.1101V43.296C51.1283 44.6662 51.455 45.7714 52.0904 46.6117C52.7439 47.4521 53.6515 47.8722 54.8133 47.8722C56.2656 47.8722 57.4365 47.2968 58.326 46.1459C59.2336 44.9767 59.8871 43.1864 60.2865 40.775C60.704 38.3453 60.9037 35.2397 60.8856 31.4581C60.9037 28.3525 60.4953 25.5392 59.6602 23.0181C58.8433 20.4788 57.6815 18.2501 56.1748 16.3319C54.6681 14.4137 52.8619 12.8153 50.7561 11.5365C48.6685 10.2394 46.3449 9.26206 43.7853 8.6044C41.2257 7.94674 38.4937 7.61791 35.5892 7.61791C31.1417 7.61791 27.2297 8.30297 23.8532 9.6731C20.4767 11.025 17.6448 12.9523 15.3575 15.455C13.0884 17.9578 11.3729 20.9264 10.2111 24.3609C9.06748 27.7771 8.49566 31.5586 8.49566 35.7055C8.49566 40.1447 9.09471 44.0816 10.2928 47.516C11.5091 50.9322 13.2881 53.8095 15.6298 56.1478C17.9716 58.4862 20.867 60.2582 24.3161 61.4639C27.7833 62.6696 31.768 63.2725 36.2699 63.2725C38.3394 63.2725 40.3635 63.1081 42.3421 62.7792C44.3208 62.4504 46.0998 62.0668 47.6792 61.6283C49.2585 61.1899 50.4747 60.8063 51.3279 60.4774L53.6425 67.4377C52.517 68.0223 50.9921 68.5886 49.0679 69.1366C47.1618 69.6847 45.056 70.1323 42.7506 70.4794C40.4633 70.8265 38.1488 71 35.807 71ZM33.9009 47.2146C36.2064 47.2146 38.0489 46.767 39.4286 45.8719C40.8082 44.9585 41.7976 43.6066 42.3966 41.8163C42.9957 40.026 43.2861 37.7972 43.268 35.1301C43.268 32.6456 42.9594 30.6086 42.3421 29.0193C41.7249 27.43 40.7356 26.2516 39.3741 25.4844C38.0126 24.7171 36.2064 24.3335 33.9554 24.3335C31.9223 24.3335 30.1886 24.7993 28.7545 25.731C27.3386 26.6627 26.2494 27.9506 25.487 29.5948C24.7427 31.2206 24.3706 33.0749 24.3706 35.1575C24.3706 37.2401 24.6701 39.2039 25.2691 41.049C25.8863 42.8759 26.8848 44.3647 28.2644 45.5156C29.6622 46.6483 31.541 47.2146 33.9009 47.2146Z" fill="white"/>
</svg>
