<svg width="200" height="80" viewBox="0 0 200 80" fill="none" xmlns="http://www.w3.org/2000/svg">
<path fill-rule="evenodd" clip-rule="evenodd" d="M3 3H197V70H187V73H197H200V70V3V0H197H3H0V3V70V73H3H73V70H3V3Z" fill="white"/>
<path d="M80.4405 73.4927C80.4405 73.9226 80.4495 74.2792 80.4676 74.5626C80.4857 74.8459 80.5173 75.0755 80.5625 75.2514C80.6167 75.4175 80.689 75.5348 80.7794 75.6032C80.8698 75.6716 80.9828 75.7057 81.1184 75.7057C81.263 75.7057 81.3805 75.6716 81.4709 75.6032C81.5613 75.5348 81.6291 75.4175 81.6743 75.2514C81.7285 75.0755 81.7646 74.8459 81.7827 74.5626C81.8008 74.2792 81.8098 73.9226 81.8098 73.4927C81.8098 73.0628 81.8008 72.711 81.7827 72.4374C81.7646 72.1541 81.7285 71.9294 81.6743 71.7632C81.6291 71.5874 81.5613 71.4652 81.4709 71.3968C81.3805 71.3284 81.263 71.2943 81.1184 71.2943C80.9828 71.2943 80.8698 71.3284 80.7794 71.3968C80.689 71.4652 80.6167 71.5874 80.5625 71.7632C80.5173 71.9294 80.4857 72.1541 80.4676 72.4374C80.4495 72.711 80.4405 73.0628 80.4405 73.4927ZM78 69.5355H80.3591V70.6201H80.3862C80.6664 69.7602 81.2223 69.3303 82.0539 69.3303C82.8674 69.3303 83.4368 69.687 83.7622 70.4002C84.0876 71.1135 84.2503 72.2029 84.2503 73.6685C84.2503 74.4307 84.1961 75.0658 84.0876 75.5738C83.9791 76.0819 83.8255 76.4923 83.6266 76.805C83.4368 77.1079 83.2018 77.3228 82.9216 77.4498C82.6504 77.5671 82.3431 77.6257 81.9996 77.6257C81.6562 77.6257 81.3443 77.5524 81.0641 77.4059C80.793 77.2593 80.5941 76.9808 80.4676 76.5705H80.4405V80H78V69.5355Z" fill="white"/>
<path d="M88.2978 72.159C88.2978 71.7388 88.2481 71.431 88.1487 71.2356C88.0583 71.0402 87.882 70.9425 87.6199 70.9425C87.3668 70.9425 87.1906 71.0402 87.0911 71.2356C87.0008 71.431 86.9556 71.7388 86.9556 72.159V72.5107H88.2978V72.159ZM86.9556 73.947V74.9876C86.9556 75.4175 87.0234 75.7057 87.1589 75.8523C87.2945 75.9891 87.4482 76.0575 87.6199 76.0575C87.8368 76.0575 88.0041 75.9647 88.1216 75.779C88.2481 75.5836 88.3114 75.2172 88.3114 74.6798H90.5078C90.4897 75.6569 90.2592 76.3946 89.8163 76.8929C89.3734 77.3814 88.6458 77.6257 87.6335 77.6257C87.0459 77.6257 86.5533 77.5573 86.1556 77.4205C85.7579 77.274 85.4371 77.0395 85.193 76.717C84.949 76.3848 84.7727 75.9549 84.6642 75.4273C84.5648 74.8997 84.5151 74.2597 84.5151 73.5073C84.5151 72.7452 84.5739 72.1003 84.6914 71.5727C84.8089 71.0451 84.9942 70.6152 85.2472 70.283C85.5003 69.9508 85.8212 69.7114 86.2099 69.5648C86.6076 69.4085 87.0821 69.3303 87.6335 69.3303C88.1216 69.3303 88.5464 69.3938 88.9079 69.5209C89.2785 69.6479 89.5858 69.8628 89.8299 70.1657C90.083 70.4589 90.2683 70.8497 90.3858 71.3382C90.5123 71.817 90.5756 72.4179 90.5756 73.1409V73.947H86.9556Z" fill="white"/>
<path d="M90.9206 69.5355H93.2797V70.7959H93.3068C93.4424 70.3172 93.6593 69.9557 93.9576 69.7114C94.2559 69.4573 94.5858 69.3303 94.9473 69.3303H95.3405V71.7926C95.2321 71.773 95.1281 71.7584 95.0287 71.7486C94.9293 71.7388 94.8298 71.7339 94.7304 71.7339C94.2965 71.7339 93.9576 71.8365 93.7135 72.0417C93.4785 72.2469 93.361 72.6133 93.361 73.1409V77.4645H90.9206V69.5355Z" fill="white"/>
<path d="M101.392 75.8963C101.663 75.8963 101.857 75.7888 101.975 75.5738C102.092 75.3589 102.151 75.0316 102.151 74.5919V73.6392H102.124C102.052 73.7467 101.939 73.8151 101.785 73.8444C101.64 73.864 101.478 73.9177 101.297 74.0056C101.107 74.1033 100.976 74.2352 100.904 74.4014C100.831 74.5577 100.795 74.7678 100.795 75.0316C100.795 75.2954 100.85 75.5054 100.958 75.6618C101.066 75.8181 101.211 75.8963 101.392 75.8963ZM102.3 77.4645C102.255 77.3277 102.223 77.186 102.205 77.0395C102.187 76.8929 102.169 76.7366 102.151 76.5705H102.124C101.988 76.9222 101.772 77.186 101.473 77.3619C101.184 77.5378 100.85 77.6257 100.47 77.6257C100.099 77.6257 99.783 77.572 99.5209 77.4645C99.2678 77.3668 99.0599 77.2153 98.8972 77.0101C98.7345 76.805 98.617 76.5607 98.5447 76.2773C98.4724 75.994 98.4362 75.6813 98.4362 75.3393C98.4362 74.9681 98.4679 74.6456 98.5311 74.372C98.6034 74.0985 98.7164 73.864 98.8701 73.6685C99.0237 73.4634 99.2316 73.2924 99.4938 73.1556C99.7559 73.009 100.081 72.8869 100.47 72.7892L101.433 72.54C101.695 72.4716 101.88 72.3739 101.988 72.2469C102.097 72.1101 102.151 71.9196 102.151 71.6753C102.151 71.1868 101.943 70.9425 101.527 70.9425C101.292 70.9425 101.121 71.0158 101.012 71.1623C100.904 71.2991 100.845 71.5776 100.836 71.9977H98.7209C98.7209 71.4213 98.8158 70.962 99.0057 70.6201C99.1955 70.2683 99.4305 69.9996 99.7107 69.814C99.9909 69.6186 100.294 69.4915 100.619 69.4329C100.944 69.3645 101.247 69.3303 101.527 69.3303C101.952 69.3303 102.341 69.3694 102.693 69.4476C103.055 69.516 103.362 69.6479 103.615 69.8433C103.878 70.0289 104.076 70.2879 104.212 70.6201C104.357 70.9425 104.429 71.3626 104.429 71.8805V75.7497C104.429 76.121 104.442 76.4483 104.47 76.7317C104.497 77.015 104.56 77.2593 104.659 77.4645H102.3Z" fill="white"/>
<path d="M107.127 75.0023C107.127 75.1586 107.141 75.3051 107.168 75.4419C107.195 75.5787 107.24 75.6911 107.303 75.779C107.421 75.9647 107.592 76.0575 107.818 76.0575C108.008 76.0575 108.171 75.9989 108.307 75.8816C108.451 75.7644 108.523 75.5983 108.523 75.3833C108.523 75.1488 108.433 74.9681 108.252 74.841C108.081 74.714 107.864 74.6017 107.602 74.5039C107.339 74.4062 107.055 74.3036 106.747 74.1962C106.449 74.0887 106.169 73.9421 105.907 73.7565C105.645 73.5708 105.423 73.3266 105.242 73.0237C105.071 72.711 104.985 72.3055 104.985 71.8072C104.985 71.4555 105.044 71.133 105.161 70.8399C105.279 70.537 105.455 70.2732 105.69 70.0485C105.934 69.8238 106.237 69.6479 106.598 69.5209C106.969 69.3938 107.403 69.3303 107.9 69.3303C109.735 69.3303 110.652 70.1608 110.652 71.8219H108.537C108.537 71.4799 108.478 71.2503 108.361 71.133C108.252 71.006 108.094 70.9425 107.886 70.9425C107.705 70.9425 107.556 70.9962 107.439 71.1037C107.321 71.2112 107.263 71.3626 107.263 71.5581C107.263 71.7828 107.348 71.9538 107.52 72.071C107.701 72.1785 107.922 72.2762 108.185 72.3641C108.447 72.4521 108.727 72.5449 109.025 72.6426C109.332 72.7403 109.617 72.882 109.879 73.0676C110.141 73.2435 110.358 73.4878 110.53 73.8005C110.711 74.1033 110.801 74.5088 110.801 75.0169C110.801 75.4077 110.733 75.7644 110.598 76.0868C110.462 76.4092 110.268 76.6877 110.015 76.9222C109.771 77.1567 109.463 77.3326 109.093 77.4498C108.731 77.5671 108.32 77.6257 107.859 77.6257C106.838 77.6257 106.101 77.4059 105.649 76.9662C105.206 76.5265 104.985 75.8719 104.985 75.0023H107.127Z" fill="white"/>
<path d="M113.728 73.4927C113.728 73.9226 113.737 74.2792 113.755 74.5626C113.773 74.8459 113.805 75.0755 113.85 75.2514C113.905 75.4175 113.977 75.5348 114.067 75.6032C114.158 75.6716 114.271 75.7057 114.406 75.7057C114.551 75.7057 114.668 75.6716 114.759 75.6032C114.849 75.5348 114.917 75.4175 114.962 75.2514C115.016 75.0755 115.052 74.8459 115.071 74.5626C115.089 74.2792 115.098 73.9226 115.098 73.4927C115.098 73.0628 115.089 72.711 115.071 72.4374C115.052 72.1541 115.016 71.9294 114.962 71.7632C114.917 71.5874 114.849 71.4652 114.759 71.3968C114.668 71.3284 114.551 71.2943 114.406 71.2943C114.271 71.2943 114.158 71.3284 114.067 71.3968C113.977 71.4652 113.905 71.5874 113.85 71.7632C113.805 71.9294 113.773 72.1541 113.755 72.4374C113.737 72.711 113.728 73.0628 113.728 73.4927ZM111.288 69.5355H113.647V70.6201H113.674C113.954 69.7602 114.51 69.3303 115.342 69.3303C116.155 69.3303 116.725 69.687 117.05 70.4002C117.375 71.1135 117.538 72.2029 117.538 73.6685C117.538 74.4307 117.484 75.0658 117.375 75.5738C117.267 76.0819 117.113 76.4923 116.914 76.805C116.725 77.1079 116.49 77.3228 116.209 77.4498C115.938 77.5671 115.631 77.6257 115.287 77.6257C114.944 77.6257 114.632 77.5524 114.352 77.4059C114.081 77.2593 113.882 76.9808 113.755 76.5705H113.728V80H111.288V69.5355Z" fill="white"/>
<path d="M121.586 72.159C121.586 71.7388 121.536 71.431 121.437 71.2356C121.346 71.0402 121.17 70.9425 120.908 70.9425C120.655 70.9425 120.478 71.0402 120.379 71.2356C120.289 71.431 120.243 71.7388 120.243 72.159V72.5107H121.586V72.159ZM120.243 73.947V74.9876C120.243 75.4175 120.311 75.7057 120.447 75.8523C120.582 75.9891 120.736 76.0575 120.908 76.0575C121.125 76.0575 121.292 75.9647 121.409 75.779C121.536 75.5836 121.599 75.2172 121.599 74.6798H123.796C123.778 75.6569 123.547 76.3946 123.104 76.8929C122.661 77.3814 121.934 77.6257 120.921 77.6257C120.334 77.6257 119.841 77.5573 119.443 77.4205C119.046 77.274 118.725 77.0395 118.481 76.717C118.237 76.3848 118.061 75.9549 117.952 75.4273C117.853 74.8997 117.803 74.2597 117.803 73.5073C117.803 72.7452 117.862 72.1003 117.979 71.5727C118.097 71.0451 118.282 70.6152 118.535 70.283C118.788 69.9508 119.109 69.7114 119.498 69.5648C119.895 69.4085 120.37 69.3303 120.921 69.3303C121.409 69.3303 121.834 69.3938 122.196 69.5209C122.566 69.6479 122.874 69.8628 123.118 70.1657C123.371 70.4589 123.556 70.8497 123.674 71.3382C123.8 71.817 123.863 72.4179 123.863 73.1409V73.947H120.243Z" fill="white"/>
<path d="M124.208 69.5355H126.568V70.7959H126.595C126.73 70.3172 126.947 69.9557 127.245 69.7114C127.544 69.4573 127.874 69.3303 128.235 69.3303H128.628V71.7926C128.52 71.773 128.416 71.7584 128.317 71.7486C128.217 71.7388 128.118 71.7339 128.018 71.7339C127.584 71.7339 127.245 71.8365 127.001 72.0417C126.766 72.2469 126.649 72.6133 126.649 73.1409V77.4645H124.208V69.5355Z" fill="white"/>
<path d="M131.429 75.8963C131.7 75.8963 131.894 75.7888 132.012 75.5738C132.129 75.3589 132.188 75.0316 132.188 74.5919V73.6392H132.161C132.089 73.7467 131.976 73.8151 131.822 73.8444C131.678 73.864 131.515 73.9177 131.334 74.0056C131.144 74.1033 131.013 74.2352 130.941 74.4014C130.869 74.5577 130.832 74.7678 130.832 75.0316C130.832 75.2954 130.887 75.5054 130.995 75.6618C131.104 75.8181 131.248 75.8963 131.429 75.8963ZM132.337 77.4645C132.292 77.3277 132.261 77.186 132.242 77.0395C132.224 76.8929 132.206 76.7366 132.188 76.5705H132.161C132.026 76.9222 131.809 77.186 131.51 77.3619C131.221 77.5378 130.887 77.6257 130.507 77.6257C130.136 77.6257 129.82 77.572 129.558 77.4645C129.305 77.3668 129.097 77.2153 128.934 77.0101C128.772 76.805 128.654 76.5607 128.582 76.2773C128.509 75.994 128.473 75.6813 128.473 75.3393C128.473 74.9681 128.505 74.6456 128.568 74.372C128.64 74.0985 128.753 73.864 128.907 73.6685C129.061 73.4634 129.269 73.2924 129.531 73.1556C129.793 73.009 130.118 72.8869 130.507 72.7892L131.47 72.54C131.732 72.4716 131.917 72.3739 132.026 72.2469C132.134 72.1101 132.188 71.9196 132.188 71.6753C132.188 71.1868 131.98 70.9425 131.565 70.9425C131.33 70.9425 131.158 71.0158 131.049 71.1623C130.941 71.2991 130.882 71.5776 130.873 71.9977H128.758C128.758 71.4213 128.853 70.962 129.043 70.6201C129.233 70.2683 129.468 69.9996 129.748 69.814C130.028 69.6186 130.331 69.4915 130.656 69.4329C130.982 69.3645 131.284 69.3303 131.565 69.3303C131.989 69.3303 132.378 69.3694 132.731 69.4476C133.092 69.516 133.399 69.6479 133.652 69.8433C133.915 70.0289 134.113 70.2879 134.249 70.6201C134.394 70.9425 134.466 71.3626 134.466 71.8805V75.7497C134.466 76.121 134.48 76.4483 134.507 76.7317C134.534 77.015 134.597 77.2593 134.696 77.4645H132.337Z" fill="white"/>
<path d="M141.188 75.8963C141.459 75.8963 141.653 75.7888 141.771 75.5738C141.888 75.3589 141.947 75.0316 141.947 74.5919V73.6392H141.92C141.847 73.7467 141.734 73.8151 141.581 73.8444C141.436 73.864 141.273 73.9177 141.093 74.0056C140.903 74.1033 140.772 74.2352 140.7 74.4014C140.627 74.5577 140.591 74.7678 140.591 75.0316C140.591 75.2954 140.645 75.5054 140.754 75.6618C140.862 75.8181 141.007 75.8963 141.188 75.8963ZM142.096 77.4645C142.051 77.3277 142.019 77.186 142.001 77.0395C141.983 76.8929 141.965 76.7366 141.947 76.5705H141.92C141.784 76.9222 141.567 77.186 141.269 77.3619C140.98 77.5378 140.645 77.6257 140.266 77.6257C139.895 77.6257 139.579 77.572 139.317 77.4645C139.064 77.3668 138.856 77.2153 138.693 77.0101C138.53 76.805 138.413 76.5607 138.34 76.2773C138.268 75.994 138.232 75.6813 138.232 75.3393C138.232 74.9681 138.264 74.6456 138.327 74.372C138.399 74.0985 138.512 73.864 138.666 73.6685C138.819 73.4634 139.027 73.2924 139.289 73.1556C139.552 73.009 139.877 72.8869 140.266 72.7892L141.228 72.54C141.49 72.4716 141.676 72.3739 141.784 72.2469C141.893 72.1101 141.947 71.9196 141.947 71.6753C141.947 71.1868 141.739 70.9425 141.323 70.9425C141.088 70.9425 140.916 71.0158 140.808 71.1623C140.7 71.2991 140.641 71.5776 140.632 71.9977H138.517C138.517 71.4213 138.612 70.962 138.801 70.6201C138.991 70.2683 139.226 69.9996 139.506 69.814C139.787 69.6186 140.089 69.4915 140.415 69.4329C140.74 69.3645 141.043 69.3303 141.323 69.3303C141.748 69.3303 142.137 69.3694 142.489 69.4476C142.851 69.516 143.158 69.6479 143.411 69.8433C143.673 70.0289 143.872 70.2879 144.008 70.6201C144.152 70.9425 144.225 71.3626 144.225 71.8805V75.7497C144.225 76.121 144.238 76.4483 144.265 76.7317C144.292 77.015 144.356 77.2593 144.455 77.4645H142.096Z" fill="white"/>
<path d="M147.262 73.5073C147.262 73.9275 147.271 74.2792 147.289 74.5626C147.307 74.8459 147.338 75.0755 147.384 75.2514C147.438 75.4175 147.51 75.5348 147.601 75.6032C147.691 75.6716 147.808 75.7057 147.953 75.7057C148.089 75.7057 148.202 75.6716 148.292 75.6032C148.382 75.5348 148.45 75.4175 148.495 75.2514C148.55 75.0755 148.586 74.8459 148.604 74.5626C148.622 74.2792 148.631 73.9275 148.631 73.5073C148.631 73.0774 148.622 72.7208 148.604 72.4374C148.586 72.1541 148.55 71.9294 148.495 71.7632C148.45 71.5874 148.382 71.4652 148.292 71.3968C148.202 71.3284 148.089 71.2943 147.953 71.2943C147.808 71.2943 147.691 71.3284 147.601 71.3968C147.51 71.4652 147.438 71.5874 147.384 71.7632C147.338 71.9294 147.307 72.1541 147.289 72.4374C147.271 72.7208 147.262 73.0774 147.262 73.5073ZM148.631 67H151.071V77.4645H148.712V76.3799H148.685C148.532 76.8196 148.324 77.1372 148.062 77.3326C147.799 77.528 147.451 77.6257 147.018 77.6257C146.204 77.6257 145.635 77.2788 145.309 76.5851C144.984 75.8914 144.821 74.8068 144.821 73.3315C144.821 72.5791 144.875 71.9489 144.984 71.4408C145.092 70.9327 145.241 70.5224 145.431 70.2097C145.63 69.897 145.87 69.6723 146.15 69.5355C146.43 69.3987 146.737 69.3303 147.072 69.3303C147.415 69.3303 147.723 69.4134 147.994 69.5795C148.274 69.7358 148.477 70.0192 148.604 70.4295H148.631V67Z" fill="white"/>
<path d="M157.719 75.8963C157.99 75.8963 158.184 75.7888 158.302 75.5738C158.42 75.3589 158.478 75.0316 158.478 74.5919V73.6392H158.451C158.379 73.7467 158.266 73.8151 158.112 73.8444C157.968 73.864 157.805 73.9177 157.624 74.0056C157.434 74.1033 157.303 74.2352 157.231 74.4014C157.159 74.5577 157.122 74.7678 157.122 75.0316C157.122 75.2954 157.177 75.5054 157.285 75.6618C157.394 75.8181 157.538 75.8963 157.719 75.8963ZM158.627 77.4645C158.582 77.3277 158.551 77.186 158.532 77.0395C158.514 76.8929 158.496 76.7366 158.478 76.5705H158.451C158.316 76.9222 158.099 77.186 157.8 77.3619C157.511 77.5378 157.177 77.6257 156.797 77.6257C156.426 77.6257 156.11 77.572 155.848 77.4645C155.595 77.3668 155.387 77.2153 155.224 77.0101C155.062 76.805 154.944 76.5607 154.872 76.2773C154.799 75.994 154.763 75.6813 154.763 75.3393C154.763 74.9681 154.795 74.6456 154.858 74.372C154.931 74.0985 155.044 73.864 155.197 73.6685C155.351 73.4634 155.559 73.2924 155.821 73.1556C156.083 73.009 156.408 72.8869 156.797 72.7892L157.76 72.54C158.022 72.4716 158.207 72.3739 158.316 72.2469C158.424 72.1101 158.478 71.9196 158.478 71.6753C158.478 71.1868 158.27 70.9425 157.855 70.9425C157.62 70.9425 157.448 71.0158 157.339 71.1623C157.231 71.2991 157.172 71.5776 157.163 71.9977H155.048C155.048 71.4213 155.143 70.962 155.333 70.6201C155.523 70.2683 155.758 69.9996 156.038 69.814C156.318 69.6186 156.621 69.4915 156.946 69.4329C157.272 69.3645 157.574 69.3303 157.855 69.3303C158.279 69.3303 158.668 69.3694 159.021 69.4476C159.382 69.516 159.689 69.6479 159.943 69.8433C160.205 70.0289 160.404 70.2879 160.539 70.6201C160.684 70.9425 160.756 71.3626 160.756 71.8805V75.7497C160.756 76.121 160.77 76.4483 160.797 76.7317C160.824 77.015 160.887 77.2593 160.987 77.4645H158.627Z" fill="white"/>
<path d="M163.454 75.0023C163.454 75.1586 163.468 75.3051 163.495 75.4419C163.522 75.5787 163.567 75.6911 163.63 75.779C163.748 75.9647 163.92 76.0575 164.146 76.0575C164.335 76.0575 164.498 75.9989 164.634 75.8816C164.778 75.7644 164.851 75.5983 164.851 75.3833C164.851 75.1488 164.76 74.9681 164.579 74.841C164.408 74.714 164.191 74.6017 163.929 74.5039C163.666 74.4062 163.382 74.3036 163.074 74.1962C162.776 74.0887 162.496 73.9421 162.234 73.7565C161.972 73.5708 161.75 73.3266 161.57 73.0237C161.398 72.711 161.312 72.3055 161.312 71.8072C161.312 71.4555 161.371 71.133 161.488 70.8399C161.606 70.537 161.782 70.2732 162.017 70.0485C162.261 69.8238 162.564 69.6479 162.925 69.5209C163.296 69.3938 163.73 69.3303 164.227 69.3303C166.062 69.3303 166.979 70.1608 166.979 71.8219H164.864C164.864 71.4799 164.805 71.2503 164.688 71.133C164.579 71.006 164.421 70.9425 164.213 70.9425C164.033 70.9425 163.883 70.9962 163.766 71.1037C163.648 71.2112 163.59 71.3626 163.59 71.5581C163.59 71.7828 163.676 71.9538 163.847 72.071C164.028 72.1785 164.249 72.2762 164.512 72.3641C164.774 72.4521 165.054 72.5449 165.352 72.6426C165.66 72.7403 165.944 72.882 166.206 73.0676C166.469 73.2435 166.685 73.4878 166.857 73.8005C167.038 74.1033 167.128 74.5088 167.128 75.0169C167.128 75.4077 167.061 75.7644 166.925 76.0868C166.789 76.4092 166.595 76.6877 166.342 76.9222C166.098 77.1567 165.791 77.3326 165.42 77.4498C165.058 77.5671 164.647 77.6257 164.186 77.6257C163.165 77.6257 162.428 77.4059 161.976 76.9662C161.533 76.5265 161.312 75.8719 161.312 75.0023H163.454Z" fill="white"/>
<path d="M167.113 69.5355H167.927V67.2052H170.367V69.5355H171.33V71.3089H170.367V75.0902C170.367 75.3149 170.412 75.4761 170.503 75.5738C170.602 75.6618 170.751 75.7057 170.95 75.7057H171.33V77.4645C171.104 77.4645 170.878 77.4694 170.652 77.4791C170.426 77.4987 170.209 77.5085 170.001 77.5085C169.631 77.5085 169.314 77.4938 169.052 77.4645C168.79 77.4254 168.573 77.3375 168.401 77.2007C168.239 77.0639 168.117 76.8636 168.035 76.5998C167.963 76.3262 167.927 75.9696 167.927 75.5299V71.3089H167.113V69.5355Z" fill="white"/>
<path d="M171.512 69.5355H173.871V70.7959H173.898C174.034 70.3172 174.251 69.9557 174.549 69.7114C174.847 69.4573 175.177 69.3303 175.539 69.3303H175.932V71.7926C175.823 71.773 175.719 71.7584 175.62 71.7486C175.521 71.7388 175.421 71.7339 175.322 71.7339C174.888 71.7339 174.549 71.8365 174.305 72.0417C174.07 72.2469 173.952 72.6133 173.952 73.1409V77.4645H171.512V69.5355Z" fill="white"/>
<path d="M178.732 75.8963C179.004 75.8963 179.198 75.7888 179.315 75.5738C179.433 75.3589 179.492 75.0316 179.492 74.5919V73.6392H179.465C179.392 73.7467 179.279 73.8151 179.126 73.8444C178.981 73.864 178.818 73.9177 178.638 74.0056C178.448 74.1033 178.317 74.2352 178.244 74.4014C178.172 74.5577 178.136 74.7678 178.136 75.0316C178.136 75.2954 178.19 75.5054 178.299 75.6618C178.407 75.8181 178.552 75.8963 178.732 75.8963ZM179.641 77.4645C179.596 77.3277 179.564 77.186 179.546 77.0395C179.528 76.8929 179.51 76.7366 179.492 76.5705H179.465C179.329 76.9222 179.112 77.186 178.814 77.3619C178.525 77.5378 178.19 77.6257 177.811 77.6257C177.44 77.6257 177.124 77.572 176.861 77.4645C176.608 77.3668 176.4 77.2153 176.238 77.0101C176.075 76.805 175.958 76.5607 175.885 76.2773C175.813 75.994 175.777 75.6813 175.777 75.3393C175.777 74.9681 175.808 74.6456 175.872 74.372C175.944 74.0985 176.057 73.864 176.211 73.6685C176.364 73.4634 176.572 73.2924 176.834 73.1556C177.096 73.009 177.422 72.8869 177.811 72.7892L178.773 72.54C179.035 72.4716 179.221 72.3739 179.329 72.2469C179.438 72.1101 179.492 71.9196 179.492 71.6753C179.492 71.1868 179.284 70.9425 178.868 70.9425C178.633 70.9425 178.461 71.0158 178.353 71.1623C178.244 71.2991 178.186 71.5776 178.177 71.9977H176.062C176.062 71.4213 176.156 70.962 176.346 70.6201C176.536 70.2683 176.771 69.9996 177.051 69.814C177.331 69.6186 177.634 69.4915 177.96 69.4329C178.285 69.3645 178.588 69.3303 178.868 69.3303C179.293 69.3303 179.682 69.3694 180.034 69.4476C180.396 69.516 180.703 69.6479 180.956 69.8433C181.218 70.0289 181.417 70.2879 181.553 70.6201C181.697 70.9425 181.77 71.3626 181.77 71.8805V75.7497C181.77 76.121 181.783 76.4483 181.81 76.7317C181.837 77.015 181.901 77.2593 182 77.4645H179.641Z" fill="white"/>
<mask id="path-3-outside-1_408_13" maskUnits="userSpaceOnUse" x="12" y="10" width="176" height="52" fill="black">
<rect fill="white" x="12" y="10" width="176" height="52"/>
<path d="M33.8056 22.9594L30.6416 41.82H37.0938L33.9297 22.9594H33.8056ZM41.1264 13.8714L51.9215 58.3153H39.6375L38.4587 50.5345H29.2767L28.0979 58.3153H16L26.6089 13.8714H41.1264Z"/>
<path d="M71.0712 26.6942V25.636C71.0712 24.3081 70.8023 23.1876 70.2646 22.2747C69.727 21.3203 68.8997 20.843 67.783 20.843C66.5422 20.843 65.6323 21.258 65.0532 22.088C64.4742 22.8764 64.1847 23.7686 64.1847 24.7645C64.1847 26.217 64.6396 27.3789 65.5496 28.2503C66.5008 29.0803 67.6796 29.8065 69.0859 30.429C70.4921 31.0514 72.0018 31.6946 73.6148 32.3586C75.2279 32.9811 76.7375 33.811 78.1438 34.8484C79.55 35.8859 80.7081 37.2553 81.6181 38.9567C82.5694 40.6166 83.045 42.7952 83.045 45.4926C83.045 50.2233 81.7008 53.6676 79.0124 55.8254C76.3239 57.9418 72.4361 59 67.3487 59C64.9498 59 62.8198 58.7925 60.9586 58.3775C59.1387 58.0041 57.5877 57.3401 56.3055 56.3857C55.0647 55.3897 54.1134 54.1033 53.4516 52.5264C52.7899 50.9495 52.459 48.9991 52.459 46.6752V45.1191H63.6263V46.1773C63.6263 48.0862 63.9779 49.4348 64.681 50.2233C65.3841 50.9702 66.294 51.3437 67.4108 51.3437C68.6102 51.3437 69.5202 50.9287 70.1406 50.0988C70.8023 49.2688 71.1332 48.2521 71.1332 47.0487C71.1332 45.5963 70.6782 44.4551 69.7683 43.6252C68.8997 42.7537 67.783 42.0275 66.4181 41.4465C65.0946 40.8241 63.647 40.2016 62.0753 39.5792C60.5036 38.9567 59.0353 38.1475 57.6704 37.1516C56.3469 36.1556 55.2301 34.8484 54.3202 33.23C53.4516 31.6116 53.0174 29.4953 53.0174 26.8809C53.0174 22.3577 54.2168 18.9134 56.6157 16.548C59.0146 14.1827 62.6543 13 67.5349 13C72.5808 13 76.2205 14.0997 78.454 16.2991C80.7288 18.4569 81.8662 21.922 81.8662 26.6942H71.0712Z"/>
<path d="M92.9783 23.7064H84.4167V13.8714H113.203V23.7064H104.518V58.3153H92.9783V23.7064Z"/>
<path d="M127.343 32.6698H129.639C131.293 32.6698 132.513 32.1926 133.299 31.2382C134.085 30.2422 134.478 28.9558 134.478 27.3789C134.478 25.5115 134.085 24.1836 133.299 23.3951C132.555 22.6067 131.314 22.2124 129.577 22.2124H127.343V32.6698ZM115.804 13.8714H133.858C136.05 13.8714 137.911 14.1619 139.441 14.7429C141.013 15.3239 142.274 16.1538 143.226 17.2327C144.218 18.2702 144.922 19.5151 145.335 20.9675C145.79 22.4199 146.018 23.9968 146.018 25.6982C146.018 28.6861 145.418 31.0929 144.218 32.9188C143.019 34.7447 141.096 35.8651 138.449 36.2801V36.4046C141.22 36.6536 143.122 37.6288 144.156 39.3302C145.19 41.0316 145.707 43.3762 145.707 46.364V50.161C145.707 50.742 145.707 51.3437 145.707 51.9662C145.707 52.5886 145.728 53.1903 145.769 53.7713C145.811 54.3108 145.873 54.8088 145.956 55.2652C146.038 55.7217 146.142 56.0744 146.266 56.3234C146.431 56.5724 146.597 56.8214 146.762 57.0704C146.928 57.2779 147.196 57.4853 147.569 57.6928V58.3153H135.285C134.995 57.7343 134.768 57.0496 134.602 56.2612C134.478 55.4727 134.375 54.6843 134.292 53.8958C134.251 53.1074 134.209 52.3604 134.168 51.6549C134.168 50.908 134.168 50.3063 134.168 49.8498V46.862C134.168 45.6171 134.106 44.5796 133.982 43.7497C133.858 42.9197 133.63 42.2765 133.299 41.82C133.01 41.3221 132.617 40.9901 132.121 40.8241C131.666 40.6166 131.087 40.5129 130.383 40.5129H127.343V58.3153H115.804V13.8714Z"/>
<path d="M165.884 22.9594L162.72 41.82H169.172L166.008 22.9594H165.884ZM173.205 13.8714L184 58.3153H171.716L170.537 50.5345H161.355L160.176 58.3153H148.079L158.687 13.8714H173.205Z"/>
</mask>
<path d="M33.8056 22.9594L30.6416 41.82H37.0938L33.9297 22.9594H33.8056ZM41.1264 13.8714L51.9215 58.3153H39.6375L38.4587 50.5345H29.2767L28.0979 58.3153H16L26.6089 13.8714H41.1264Z" stroke="white" stroke-width="6" mask="url(#path-3-outside-1_408_13)"/>
<path d="M71.0712 26.6942V25.636C71.0712 24.3081 70.8023 23.1876 70.2646 22.2747C69.727 21.3203 68.8997 20.843 67.783 20.843C66.5422 20.843 65.6323 21.258 65.0532 22.088C64.4742 22.8764 64.1847 23.7686 64.1847 24.7645C64.1847 26.217 64.6396 27.3789 65.5496 28.2503C66.5008 29.0803 67.6796 29.8065 69.0859 30.429C70.4921 31.0514 72.0018 31.6946 73.6148 32.3586C75.2279 32.9811 76.7375 33.811 78.1438 34.8484C79.55 35.8859 80.7081 37.2553 81.6181 38.9567C82.5694 40.6166 83.045 42.7952 83.045 45.4926C83.045 50.2233 81.7008 53.6676 79.0124 55.8254C76.3239 57.9418 72.4361 59 67.3487 59C64.9498 59 62.8198 58.7925 60.9586 58.3775C59.1387 58.0041 57.5877 57.3401 56.3055 56.3857C55.0647 55.3897 54.1134 54.1033 53.4516 52.5264C52.7899 50.9495 52.459 48.9991 52.459 46.6752V45.1191H63.6263V46.1773C63.6263 48.0862 63.9779 49.4348 64.681 50.2233C65.3841 50.9702 66.294 51.3437 67.4108 51.3437C68.6102 51.3437 69.5202 50.9287 70.1406 50.0988C70.8023 49.2688 71.1332 48.2521 71.1332 47.0487C71.1332 45.5963 70.6782 44.4551 69.7683 43.6252C68.8997 42.7537 67.783 42.0275 66.4181 41.4465C65.0946 40.8241 63.647 40.2016 62.0753 39.5792C60.5036 38.9567 59.0353 38.1475 57.6704 37.1516C56.3469 36.1556 55.2301 34.8484 54.3202 33.23C53.4516 31.6116 53.0174 29.4953 53.0174 26.8809C53.0174 22.3577 54.2168 18.9134 56.6157 16.548C59.0146 14.1827 62.6543 13 67.5349 13C72.5808 13 76.2205 14.0997 78.454 16.2991C80.7288 18.4569 81.8662 21.922 81.8662 26.6942H71.0712Z" stroke="white" stroke-width="6" mask="url(#path-3-outside-1_408_13)"/>
<path d="M92.9783 23.7064H84.4167V13.8714H113.203V23.7064H104.518V58.3153H92.9783V23.7064Z" stroke="white" stroke-width="6" mask="url(#path-3-outside-1_408_13)"/>
<path d="M127.343 32.6698H129.639C131.293 32.6698 132.513 32.1926 133.299 31.2382C134.085 30.2422 134.478 28.9558 134.478 27.3789C134.478 25.5115 134.085 24.1836 133.299 23.3951C132.555 22.6067 131.314 22.2124 129.577 22.2124H127.343V32.6698ZM115.804 13.8714H133.858C136.05 13.8714 137.911 14.1619 139.441 14.7429C141.013 15.3239 142.274 16.1538 143.226 17.2327C144.218 18.2702 144.922 19.5151 145.335 20.9675C145.79 22.4199 146.018 23.9968 146.018 25.6982C146.018 28.6861 145.418 31.0929 144.218 32.9188C143.019 34.7447 141.096 35.8651 138.449 36.2801V36.4046C141.22 36.6536 143.122 37.6288 144.156 39.3302C145.19 41.0316 145.707 43.3762 145.707 46.364V50.161C145.707 50.742 145.707 51.3437 145.707 51.9662C145.707 52.5886 145.728 53.1903 145.769 53.7713C145.811 54.3108 145.873 54.8088 145.956 55.2652C146.038 55.7217 146.142 56.0744 146.266 56.3234C146.431 56.5724 146.597 56.8214 146.762 57.0704C146.928 57.2779 147.196 57.4853 147.569 57.6928V58.3153H135.285C134.995 57.7343 134.768 57.0496 134.602 56.2612C134.478 55.4727 134.375 54.6843 134.292 53.8958C134.251 53.1074 134.209 52.3604 134.168 51.6549C134.168 50.908 134.168 50.3063 134.168 49.8498V46.862C134.168 45.6171 134.106 44.5796 133.982 43.7497C133.858 42.9197 133.63 42.2765 133.299 41.82C133.01 41.3221 132.617 40.9901 132.121 40.8241C131.666 40.6166 131.087 40.5129 130.383 40.5129H127.343V58.3153H115.804V13.8714Z" stroke="white" stroke-width="6" mask="url(#path-3-outside-1_408_13)"/>
<path d="M165.884 22.9594L162.72 41.82H169.172L166.008 22.9594H165.884ZM173.205 13.8714L184 58.3153H171.716L170.537 50.5345H161.355L160.176 58.3153H148.079L158.687 13.8714H173.205Z" stroke="white" stroke-width="6" mask="url(#path-3-outside-1_408_13)"/>
</svg>
