<svg width="254" height="69" viewBox="0 0 254 69" fill="none" xmlns="http://www.w3.org/2000/svg">
<path d="M26.9204 14.9391L22.1367 43.23H31.8918L27.108 14.9391H26.9204ZM37.9888 1.30717L54.3099 67.9729H35.7376L33.9554 56.3018H20.0731L18.2909 67.9729H0L16.0397 1.30717H37.9888Z" fill="white"/>
<path d="M83.2624 20.5413V18.954C83.2624 16.9621 82.8559 15.2815 82.043 13.912C81.23 12.4804 79.9794 11.7645 78.291 11.7645C76.415 11.7645 75.0393 12.387 74.1638 13.6319C73.2884 14.8146 72.8506 16.1529 72.8506 17.6468C72.8506 19.8254 73.5385 21.5683 74.9142 22.8755C76.3525 24.1204 78.1347 25.2097 80.2608 26.1434C82.3869 27.0771 84.6693 28.0419 87.1081 29.0379C89.5469 29.9716 91.8294 31.2165 93.9555 32.7727C96.0816 34.3288 97.8325 36.3829 99.2083 38.935C100.647 41.4249 101.366 44.6928 101.366 48.7388C101.366 55.8349 99.3333 61.0014 95.2687 64.2382C91.204 67.4127 85.3259 69 77.6344 69C74.0075 69 70.787 68.6888 67.9731 68.0663C65.2216 67.5061 62.8766 66.5101 60.9381 65.0785C59.0621 63.5846 57.6239 61.6549 56.6233 59.2896C55.6228 56.9242 55.1225 53.9986 55.1225 50.5129V48.1786H72.0064V49.7659C72.0064 52.6292 72.538 54.6522 73.601 55.8349C74.6641 56.9553 76.0398 57.5156 77.7282 57.5156C79.5416 57.5156 80.9174 56.8931 81.8554 55.6482C82.8559 54.4032 83.3562 52.8782 83.3562 51.0731C83.3562 48.8945 82.6683 47.1827 81.2926 45.9378C79.9794 44.6306 78.291 43.5413 76.2274 42.6698C74.2264 41.7361 72.0377 40.8024 69.6615 39.8687C67.2852 38.935 65.0653 37.7212 63.0017 36.2273C61.0006 34.7334 59.3122 32.7727 57.9365 30.3451C56.6233 27.9175 55.9667 24.7429 55.9667 20.8214C55.9667 14.0365 57.7802 8.8701 61.4071 5.32206C65.034 1.77402 70.5369 0 77.9158 0C85.5448 0 91.0477 1.64953 94.4245 4.94858C97.8638 8.18539 99.5835 13.383 99.5835 20.5413H83.2624Z" fill="white"/>
<path d="M116.384 16.0595H103.439V1.30717H146.962V16.0595H133.83V67.9729H116.384V16.0595Z" fill="white"/>
<path d="M168.341 29.5047H171.811C174.313 29.5047 176.157 28.7889 177.345 27.3572C178.533 25.8633 179.128 23.9337 179.128 21.5683C179.128 18.7673 178.533 16.7754 177.345 15.5927C176.22 14.41 174.344 13.8187 171.717 13.8187H168.341V29.5047ZM150.894 1.30717H178.19C181.504 1.30717 184.318 1.7429 186.632 2.61434C189.008 3.48579 190.915 4.73072 192.353 6.34912C193.854 7.90528 194.917 9.77267 195.542 11.9513C196.23 14.1299 196.574 16.4953 196.574 19.0474C196.574 23.5291 195.668 27.1394 193.854 29.8782C192.041 32.617 189.133 34.2977 185.131 34.9202V35.1069C189.32 35.4804 192.197 36.9432 193.76 39.4953C195.324 42.0474 196.105 45.5643 196.105 50.046V55.7415C196.105 56.613 196.105 57.5156 196.105 58.4493C196.105 59.3829 196.137 60.2855 196.199 61.157C196.262 61.9662 196.355 62.7131 196.48 63.3978C196.605 64.0825 196.762 64.6116 196.949 64.9851C197.2 65.3586 197.45 65.7321 197.7 66.1055C197.95 66.4168 198.356 66.728 198.919 67.0392V67.9729H180.347C179.909 67.1015 179.565 66.0744 179.315 64.8917C179.128 63.7091 178.971 62.5264 178.846 61.3437C178.784 60.161 178.721 59.0406 178.659 57.9824C178.659 56.862 178.659 55.9594 178.659 55.2747V50.793C178.659 48.9256 178.565 47.3694 178.377 46.1245C178.19 44.8796 177.846 43.9147 177.345 43.23C176.908 42.4831 176.314 41.9851 175.563 41.7361C174.875 41.4249 174 41.2693 172.937 41.2693H168.341V67.9729H150.894V1.30717Z" fill="white"/>
<path d="M226.611 14.9391L221.827 43.23H231.582L226.798 14.9391H226.611ZM237.679 1.30717L254 67.9729H235.428L233.646 56.3018H219.763L217.981 67.9729H199.69L215.73 1.30717H237.679Z" fill="white"/>
<path d="M18.5254 9.61705H34.1586V44.6306H18.5254V9.61705Z" fill="white"/>
<path d="M27 14L30.3677 24.3647H41.2658L32.4491 30.7705L35.8168 41.1353L27 34.7295L18.1832 41.1353L21.5509 30.7705L12.7342 24.3647H23.6323L27 14Z" fill="#808080"/>
<path d="M27 14L30.3677 24.3647H41.2658L32.4491 30.7705L35.8168 41.1353L27 34.7295L18.1832 41.1353L21.5509 30.7705L12.7342 24.3647H23.6323L27 14Z" fill="#808080"/>
</svg>
