<svg width="921" height="280" viewBox="0 0 921 280" fill="none" xmlns="http://www.w3.org/2000/svg">
<path d="M6.994 62.444C6.59933 62.444 6.13067 62.4193 5.588 62.37C5.09467 62.37 4.552 62.3453 3.96 62.296C3.41733 62.2467 2.87467 62.1973 2.332 62.148C1.78933 62.0987 1.34533 62.0247 1 61.926V51.048C1.24667 51.0973 1.54267 51.1467 1.888 51.196C2.23333 51.196 2.52933 51.196 2.776 51.196C3.664 51.196 4.42867 51.122 5.07 50.974C5.76067 50.7767 6.35267 50.2587 6.846 49.42C7.33933 48.5813 7.734 47.2987 8.03 45.572C8.326 43.796 8.57267 41.354 8.77 38.246C8.96733 35.138 9.09067 31.216 9.14 26.48C9.23867 21.744 9.288 15.972 9.288 9.164H42.366V62H28.602V20.116H22.238C22.238 28.6507 22.0653 35.656 21.72 41.132C21.424 46.5587 20.7333 50.8753 19.648 54.082C18.612 57.2393 17.0827 59.4347 15.06 60.668C13.0373 61.852 10.3487 62.444 6.994 62.444ZM54.1719 62.518C53.2346 62.518 52.1986 62.444 51.0639 62.296C49.9786 62.1973 49.1646 62.0987 48.6219 62V51.714C49.0166 51.8127 49.5099 51.8867 50.1019 51.936C50.6939 51.936 51.2119 51.936 51.6559 51.936C53.4812 51.936 54.7886 51.3933 55.5779 50.308C56.4166 49.2227 57.0332 47.9893 57.4279 46.608L43.3679 9.164H58.7599L64.1619 32.252H64.3839L68.8979 9.164H83.7719L71.4139 47.052C70.5259 49.716 69.6379 52.01 68.7499 53.934C67.8619 55.858 66.7766 57.4613 65.4939 58.744C64.2606 60.0267 62.7312 60.9887 60.9059 61.63C59.1299 62.222 56.8852 62.518 54.1719 62.518ZM105.123 42.538C104.729 42.5873 104.235 42.6613 103.643 42.76C103.051 42.8093 102.41 42.8587 101.719 42.908C101.078 42.9573 100.437 43.0067 99.7952 43.056C99.1539 43.056 98.6112 43.056 98.1672 43.056C92.9379 43.056 89.1392 41.798 86.7712 39.282C84.4525 36.766 83.2932 32.844 83.2932 27.516V9.164H96.9092V26.924C96.9092 28.1573 97.0572 29.144 97.3532 29.884C97.6492 30.624 98.0192 31.1913 98.4632 31.586C98.9565 31.9313 99.4745 32.178 100.017 32.326C100.609 32.4247 101.177 32.474 101.719 32.474C102.213 32.474 102.829 32.4493 103.569 32.4C104.309 32.3013 104.827 32.2027 105.123 32.104V9.164H118.887V62H105.123V42.538ZM123.896 9.164H137.66V50.752H145.43V9.164H159.194V50.752H166.964V9.164H180.728V62H123.896V9.164ZM185.793 9.164H217.095V20.412H199.557V29.44H215.985V40.244H199.557V50.752H217.761V62H185.793V9.164ZM221.313 9.164H252.615V20.412H235.077V29.44H251.505V40.244H235.077V50.752H253.281V62H221.313V9.164ZM274.058 9.164H293.742L299.292 40.466H299.44L304.99 9.164H324.674V62H311.798V22.632H311.65L304.324 62H294.408L287.082 22.632H286.934V62H274.058V9.164ZM329.174 9.164H360.476V20.412H342.938V29.44H359.366V40.244H342.938V50.752H361.142V62H329.174V9.164ZM382.01 62.814C378.162 62.814 375.004 62.3453 372.538 61.408C370.071 60.4213 368.147 58.8427 366.766 56.672C365.384 54.5013 364.422 51.6893 363.88 48.236C363.386 44.7827 363.14 40.5647 363.14 35.582C363.14 30.55 363.436 26.2827 364.028 22.78C364.669 19.2773 365.73 16.4407 367.21 14.27C368.69 12.0993 370.638 10.5453 373.056 9.608C375.473 8.62133 378.458 8.128 382.01 8.128C385.118 8.128 387.757 8.52266 389.928 9.312C392.098 10.1013 393.85 11.236 395.182 12.716C396.563 14.1467 397.55 15.898 398.142 17.97C398.783 19.9927 399.104 22.2867 399.104 24.852V28.182H385.784V25.222C385.784 22.2127 385.488 20.1653 384.896 19.08C384.304 17.9947 383.342 17.452 382.01 17.452C380.974 17.452 380.135 17.7233 379.494 18.266C378.902 18.8087 378.433 19.7707 378.088 21.152C377.792 22.5333 377.594 24.408 377.496 26.776C377.397 29.0947 377.348 32.03 377.348 35.582C377.348 39.134 377.397 42.094 377.496 44.462C377.594 46.7807 377.792 48.6307 378.088 50.012C378.433 51.3933 378.902 52.3553 379.494 52.898C380.135 53.4407 380.974 53.712 382.01 53.712C382.848 53.712 383.539 53.5147 384.082 53.12C384.624 52.676 385.044 51.9607 385.34 50.974C385.636 49.9873 385.833 48.68 385.932 47.052C386.08 45.3747 386.154 43.278 386.154 40.762H399.474V44.684C399.474 48.4333 398.98 51.492 397.994 53.86C397.007 56.1787 395.7 58.004 394.072 59.336C392.444 60.668 390.569 61.5807 388.448 62.074C386.376 62.5673 384.23 62.814 382.01 62.814ZM409.916 20.856H399.704V9.164H434.04V20.856H423.68V62H409.916V20.856ZM452.978 62.814C449.475 62.814 446.515 62.3453 444.098 61.408C441.68 60.4213 439.732 58.8427 438.252 56.672C436.772 54.5013 435.711 51.6893 435.07 48.236C434.428 44.7827 434.108 40.5647 434.108 35.582C434.108 30.6487 434.428 26.4553 435.07 23.002C435.711 19.4993 436.772 16.6627 438.252 14.492C439.732 12.272 441.68 10.6687 444.098 9.682C446.515 8.646 449.475 8.128 452.978 8.128C456.48 8.128 459.44 8.646 461.858 9.682C464.275 10.6687 466.224 12.272 467.704 14.492C469.184 16.6627 470.244 19.4993 470.886 23.002C471.527 26.4553 471.848 30.6487 471.848 35.582C471.848 40.5647 471.527 44.7827 470.886 48.236C470.244 51.6893 469.184 54.5013 467.704 56.672C466.224 58.8427 464.275 60.4213 461.858 61.408C459.44 62.3453 456.48 62.814 452.978 62.814ZM452.978 53.712C454.014 53.712 454.828 53.4407 455.42 52.898C456.061 52.3553 456.53 51.3933 456.826 50.012C457.171 48.6307 457.393 46.7807 457.492 44.462C457.59 42.094 457.64 39.134 457.64 35.582C457.64 32.03 457.59 29.0947 457.492 26.776C457.393 24.408 457.171 22.5333 456.826 21.152C456.53 19.7707 456.061 18.8087 455.42 18.266C454.828 17.7233 454.014 17.452 452.978 17.452C451.942 17.452 451.103 17.7233 450.462 18.266C449.87 18.8087 449.401 19.7707 449.056 21.152C448.76 22.5333 448.562 24.408 448.464 26.776C448.365 29.0947 448.316 32.03 448.316 35.582C448.316 39.134 448.365 42.094 448.464 44.462C448.562 46.7807 448.76 48.6307 449.056 50.012C449.401 51.3933 449.87 52.3553 450.462 52.898C451.103 53.4407 451.942 53.712 452.978 53.712ZM475.449 47.348V61.556H480.185V62.222C480.185 64.1953 479.839 65.6753 479.149 66.662C478.458 67.6487 477.225 68.2407 475.449 68.438V74.802C479.889 74.7033 483.071 73.4947 484.995 71.176C486.919 68.8573 487.881 65.3547 487.881 60.668V47.348H475.449ZM4.552 78.164H34.226V89.412H18.316V131H4.552V78.164ZM30.3774 119.752H33.9294C34.9654 117.68 35.8288 115.583 36.5194 113.462C37.2101 111.291 37.7528 109.047 38.1474 106.728C38.5914 104.409 38.8874 101.967 39.0354 99.402C39.1834 96.8367 39.2574 94.0493 39.2574 91.04V78.164H72.8534V119.752H77.5154V141.138H64.9354V131H42.9574V141.138H30.3774V119.752ZM59.1634 119.752V89.116H52.2074V94C52.2074 96.6147 52.0841 99.2047 51.8374 101.77C51.6401 104.286 51.3441 106.679 50.9494 108.948C50.5548 111.217 50.1108 113.289 49.6174 115.164C49.1241 116.989 48.6308 118.519 48.1374 119.752H59.1634ZM79.5597 78.164H110.862V89.412H93.3237V98.44H109.752V109.244H93.3237V119.752H111.528V131H79.5597V78.164ZM139.778 89.856H129.566V78.164H163.902V89.856H153.542V131H139.778V89.856ZM165.524 78.164H179.288V97.108H184.69C190.709 97.108 195.075 98.588 197.788 101.548C200.551 104.459 201.932 108.529 201.932 113.758C201.932 117.113 201.414 119.9 200.378 122.12C199.342 124.34 197.985 126.116 196.308 127.448C194.68 128.731 192.83 129.643 190.758 130.186C188.686 130.729 186.589 131 184.468 131H165.524V78.164ZM181.138 121.084C183.605 121.084 185.331 120.517 186.318 119.382C187.305 118.198 187.798 116.373 187.798 113.906C187.798 111.143 187.181 109.293 185.948 108.356C184.764 107.369 183.136 106.876 181.064 106.876H179.288V121.084H181.138ZM204.744 78.164H218.508V131H204.744V78.164ZM276.32 131.814C272.472 131.814 269.315 131.345 266.848 130.408C264.381 129.421 262.457 127.843 261.076 125.672C259.695 123.501 258.733 120.689 258.19 117.236C257.697 113.783 257.45 109.565 257.45 104.582C257.45 99.55 257.746 95.2827 258.338 91.78C258.979 88.2773 260.04 85.4407 261.52 83.27C263 81.0993 264.949 79.5453 267.366 78.608C269.783 77.6213 272.768 77.128 276.32 77.128C279.428 77.128 282.067 77.5227 284.238 78.312C286.409 79.1013 288.16 80.236 289.492 81.716C290.873 83.1467 291.86 84.898 292.452 86.97C293.093 88.9927 293.414 91.2867 293.414 93.852V97.182H280.094V94.222C280.094 91.2127 279.798 89.1653 279.206 88.08C278.614 86.9947 277.652 86.452 276.32 86.452C275.284 86.452 274.445 86.7233 273.804 87.266C273.212 87.8087 272.743 88.7707 272.398 90.152C272.102 91.5333 271.905 93.408 271.806 95.776C271.707 98.0947 271.658 101.03 271.658 104.582C271.658 108.134 271.707 111.094 271.806 113.462C271.905 115.781 272.102 117.631 272.398 119.012C272.743 120.393 273.212 121.355 273.804 121.898C274.445 122.441 275.284 122.712 276.32 122.712C277.159 122.712 277.849 122.515 278.392 122.12C278.935 121.676 279.354 120.961 279.65 119.974C279.946 118.987 280.143 117.68 280.242 116.052C280.39 114.375 280.464 112.278 280.464 109.762H293.784V113.684C293.784 117.433 293.291 120.492 292.304 122.86C291.317 125.179 290.01 127.004 288.382 128.336C286.754 129.668 284.879 130.581 282.758 131.074C280.686 131.567 278.54 131.814 276.32 131.814ZM296.752 78.164H316.436L321.986 109.466H322.134L327.684 78.164H347.368V131H334.492V91.632H334.344L327.018 131H317.102L309.776 91.632H309.628V131H296.752V78.164ZM467.13 99.994L455.66 78.164H470.09L478.674 98.366V78.164H492.068V98.366L500.652 78.164H515.082L503.612 99.994L516.784 131H501.688L495.102 112.13L492.068 118.346V131H478.674V118.346L475.64 112.13L469.054 131H453.958L467.13 99.994ZM517.475 78.164H548.777V89.412H531.239V98.44H547.667V109.244H531.239V119.752H549.443V131H517.475V78.164ZM552.995 78.164H566.759V119.752H574.529V78.164H588.293V119.752H596.063V78.164H609.827V131H552.995V78.164ZM614.892 78.164H628.656V97.108H634.058C640.077 97.108 644.443 98.588 647.156 101.548C649.919 104.459 651.3 108.529 651.3 113.758C651.3 117.113 650.782 119.9 649.746 122.12C648.71 124.34 647.353 126.116 645.676 127.448C644.048 128.731 642.198 129.643 640.126 130.186C638.054 130.729 635.957 131 633.836 131H614.892V78.164ZM630.506 121.084C632.973 121.084 634.699 120.517 635.686 119.382C636.673 118.198 637.166 116.373 637.166 113.906C637.166 111.143 636.549 109.293 635.316 108.356C634.132 107.369 632.504 106.876 630.432 106.876H628.656V121.084H630.506ZM11.064 200.518C10.1267 200.518 9.09067 200.444 7.956 200.296C6.87067 200.197 6.05667 200.099 5.514 200V189.714C5.90867 189.813 6.402 189.887 6.994 189.936C7.586 189.936 8.104 189.936 8.548 189.936C10.3733 189.936 11.6807 189.393 12.47 188.308C13.3087 187.223 13.9253 185.989 14.32 184.608L0.26 147.164H15.652L21.054 170.252H21.276L25.79 147.164H40.664L28.306 185.052C27.418 187.716 26.53 190.01 25.642 191.934C24.754 193.858 23.6687 195.461 22.386 196.744C21.1527 198.027 19.6233 198.989 17.798 199.63C16.022 200.222 13.7773 200.518 11.064 200.518ZM57.092 200.814C53.244 200.814 50.0867 200.345 47.62 199.408C45.1533 198.421 43.2293 196.843 41.848 194.672C40.4667 192.501 39.5047 189.689 38.962 186.236C38.4687 182.783 38.222 178.565 38.222 173.582C38.222 168.55 38.518 164.283 39.11 160.78C39.7513 157.277 40.812 154.441 42.292 152.27C43.772 150.099 45.7207 148.545 48.138 147.608C50.5553 146.621 53.54 146.128 57.092 146.128C60.2 146.128 62.8393 146.523 65.01 147.312C67.1807 148.101 68.932 149.236 70.264 150.716C71.6453 152.147 72.632 153.898 73.224 155.97C73.8653 157.993 74.186 160.287 74.186 162.852V166.182H60.866V163.222C60.866 160.213 60.57 158.165 59.978 157.08C59.386 155.995 58.424 155.452 57.092 155.452C56.056 155.452 55.2173 155.723 54.576 156.266C53.984 156.809 53.5153 157.771 53.17 159.152C52.874 160.533 52.6767 162.408 52.578 164.776C52.4793 167.095 52.43 170.03 52.43 173.582C52.43 177.134 52.4793 180.094 52.578 182.462C52.6767 184.781 52.874 186.631 53.17 188.012C53.5153 189.393 53.984 190.355 54.576 190.898C55.2173 191.441 56.056 191.712 57.092 191.712C57.9307 191.712 58.6213 191.515 59.164 191.12C59.7067 190.676 60.126 189.961 60.422 188.974C60.718 187.987 60.9153 186.68 61.014 185.052C61.162 183.375 61.236 181.278 61.236 178.762H74.556V182.684C74.556 186.433 74.0627 189.492 73.076 191.86C72.0893 194.179 70.782 196.004 69.154 197.336C67.526 198.668 65.6513 199.581 63.53 200.074C61.458 200.567 59.312 200.814 57.092 200.814ZM78.0421 147.164H114.006V200H100.242V158.412H91.8061V200H78.0421V147.164ZM119.054 147.164H150.356V158.412H132.818V167.44H149.246V178.244H132.818V188.752H151.022V200H119.054V147.164ZM154.574 147.164H168.338V188.752H176.108V147.164H189.872V188.752H197.642V147.164H211.406V200H154.574V147.164ZM216.471 147.164H230.235V166.552H238.671V147.164H252.435V200H238.671V178.244H230.235V200H216.471V147.164ZM274.799 200.814C271.297 200.814 268.337 200.345 265.919 199.408C263.502 198.421 261.553 196.843 260.073 194.672C258.593 192.501 257.533 189.689 256.891 186.236C256.25 182.783 255.929 178.565 255.929 173.582C255.929 168.649 256.25 164.455 256.891 161.002C257.533 157.499 258.593 154.663 260.073 152.492C261.553 150.272 263.502 148.669 265.919 147.682C268.337 146.646 271.297 146.128 274.799 146.128C278.302 146.128 281.262 146.646 283.679 147.682C286.097 148.669 288.045 150.272 289.525 152.492C291.005 154.663 292.066 157.499 292.707 161.002C293.349 164.455 293.669 168.649 293.669 173.582C293.669 178.565 293.349 182.783 292.707 186.236C292.066 189.689 291.005 192.501 289.525 194.672C288.045 196.843 286.097 198.421 283.679 199.408C281.262 200.345 278.302 200.814 274.799 200.814ZM274.799 191.712C275.835 191.712 276.649 191.441 277.241 190.898C277.883 190.355 278.351 189.393 278.647 188.012C278.993 186.631 279.215 184.781 279.313 182.462C279.412 180.094 279.461 177.134 279.461 173.582C279.461 170.03 279.412 167.095 279.313 164.776C279.215 162.408 278.993 160.533 278.647 159.152C278.351 157.771 277.883 156.809 277.241 156.266C276.649 155.723 275.835 155.452 274.799 155.452C273.763 155.452 272.925 155.723 272.283 156.266C271.691 156.809 271.223 157.771 270.877 159.152C270.581 160.533 270.384 162.408 270.285 164.776C270.187 167.095 270.137 170.03 270.137 173.582C270.137 177.134 270.187 180.094 270.285 182.462C270.384 184.781 270.581 186.631 270.877 188.012C271.223 189.393 271.691 190.355 272.283 190.898C272.925 191.441 273.763 191.712 274.799 191.712ZM314.865 147.164H350.829V200H337.065V158.412H328.629V200H314.865V147.164ZM373.193 200.814C369.691 200.814 366.731 200.345 364.313 199.408C361.896 198.421 359.947 196.843 358.467 194.672C356.987 192.501 355.927 189.689 355.285 186.236C354.644 182.783 354.323 178.565 354.323 173.582C354.323 168.649 354.644 164.455 355.285 161.002C355.927 157.499 356.987 154.663 358.467 152.492C359.947 150.272 361.896 148.669 364.313 147.682C366.731 146.646 369.691 146.128 373.193 146.128C376.696 146.128 379.656 146.646 382.073 147.682C384.491 148.669 386.439 150.272 387.919 152.492C389.399 154.663 390.46 157.499 391.101 161.002C391.743 164.455 392.063 168.649 392.063 173.582C392.063 178.565 391.743 182.783 391.101 186.236C390.46 189.689 389.399 192.501 387.919 194.672C386.439 196.843 384.491 198.421 382.073 199.408C379.656 200.345 376.696 200.814 373.193 200.814ZM373.193 191.712C374.229 191.712 375.043 191.441 375.635 190.898C376.277 190.355 376.745 189.393 377.041 188.012C377.387 186.631 377.609 184.781 377.707 182.462C377.806 180.094 377.855 177.134 377.855 173.582C377.855 170.03 377.806 167.095 377.707 164.776C377.609 162.408 377.387 160.533 377.041 159.152C376.745 157.771 376.277 156.809 375.635 156.266C375.043 155.723 374.229 155.452 373.193 155.452C372.157 155.452 371.319 155.723 370.677 156.266C370.085 156.809 369.617 157.771 369.271 159.152C368.975 160.533 368.778 162.408 368.679 164.776C368.581 167.095 368.531 170.03 368.531 173.582C368.531 177.134 368.581 180.094 368.679 182.462C368.778 184.781 368.975 186.631 369.271 188.012C369.617 189.393 370.085 190.355 370.677 190.898C371.319 191.441 372.157 191.712 373.193 191.712ZM391.538 188.752H395.09C396.126 186.68 396.989 184.583 397.68 182.462C398.371 180.291 398.913 178.047 399.308 175.728C399.752 173.409 400.048 170.967 400.196 168.402C400.344 165.837 400.418 163.049 400.418 160.04V147.164H434.014V188.752H438.676V210.138H426.096V200H404.118V210.138H391.538V188.752ZM420.324 188.752V158.116H413.368V163C413.368 165.615 413.245 168.205 412.998 170.77C412.801 173.286 412.505 175.679 412.11 177.948C411.715 180.217 411.271 182.289 410.778 184.164C410.285 185.989 409.791 187.519 409.298 188.752H420.324ZM441.016 147.164H470.69V158.412H454.78V200H441.016V147.164ZM489.654 200.814C486.151 200.814 483.191 200.345 480.774 199.408C478.356 198.421 476.408 196.843 474.928 194.672C473.448 192.501 472.387 189.689 471.746 186.236C471.104 182.783 470.784 178.565 470.784 173.582C470.784 168.649 471.104 164.455 471.746 161.002C472.387 157.499 473.448 154.663 474.928 152.492C476.408 150.272 478.356 148.669 480.774 147.682C483.191 146.646 486.151 146.128 489.654 146.128C493.156 146.128 496.116 146.646 498.534 147.682C500.951 148.669 502.9 150.272 504.38 152.492C505.86 154.663 506.92 157.499 507.562 161.002C508.203 164.455 508.524 168.649 508.524 173.582C508.524 178.565 508.203 182.783 507.562 186.236C506.92 189.689 505.86 192.501 504.38 194.672C502.9 196.843 500.951 198.421 498.534 199.408C496.116 200.345 493.156 200.814 489.654 200.814ZM489.654 191.712C490.69 191.712 491.504 191.441 492.096 190.898C492.737 190.355 493.206 189.393 493.502 188.012C493.847 186.631 494.069 184.781 494.168 182.462C494.266 180.094 494.316 177.134 494.316 173.582C494.316 170.03 494.266 167.095 494.168 164.776C494.069 162.408 493.847 160.533 493.502 159.152C493.206 157.771 492.737 156.809 492.096 156.266C491.504 155.723 490.69 155.452 489.654 155.452C488.618 155.452 487.779 155.723 487.138 156.266C486.546 156.809 486.077 157.771 485.732 159.152C485.436 160.533 485.238 162.408 485.14 164.776C485.041 167.095 484.992 170.03 484.992 173.582C484.992 177.134 485.041 180.094 485.14 182.462C485.238 184.781 485.436 186.631 485.732 188.012C486.077 189.393 486.546 190.355 487.138 190.898C487.779 191.441 488.618 191.712 489.654 191.712ZM518.933 158.856H508.721V147.164H543.057V158.856H532.697V200H518.933V158.856ZM561.995 200.814C558.492 200.814 555.532 200.345 553.115 199.408C550.697 198.421 548.749 196.843 547.269 194.672C545.789 192.501 544.728 189.689 544.087 186.236C543.445 182.783 543.125 178.565 543.125 173.582C543.125 168.649 543.445 164.455 544.087 161.002C544.728 157.499 545.789 154.663 547.269 152.492C548.749 150.272 550.697 148.669 553.115 147.682C555.532 146.646 558.492 146.128 561.995 146.128C565.497 146.128 568.457 146.646 570.875 147.682C573.292 148.669 575.241 150.272 576.721 152.492C578.201 154.663 579.261 157.499 579.903 161.002C580.544 164.455 580.865 168.649 580.865 173.582C580.865 178.565 580.544 182.783 579.903 186.236C579.261 189.689 578.201 192.501 576.721 194.672C575.241 196.843 573.292 198.421 570.875 199.408C568.457 200.345 565.497 200.814 561.995 200.814ZM561.995 191.712C563.031 191.712 563.845 191.441 564.437 190.898C565.078 190.355 565.547 189.393 565.843 188.012C566.188 186.631 566.41 184.781 566.509 182.462C566.607 180.094 566.657 177.134 566.657 173.582C566.657 170.03 566.607 167.095 566.509 164.776C566.41 162.408 566.188 160.533 565.843 159.152C565.547 157.771 565.078 156.809 564.437 156.266C563.845 155.723 563.031 155.452 561.995 155.452C560.959 155.452 560.12 155.723 559.479 156.266C558.887 156.809 558.418 157.771 558.073 159.152C557.777 160.533 557.579 162.408 557.481 164.776C557.382 167.095 557.333 170.03 557.333 173.582C557.333 177.134 557.382 180.094 557.481 182.462C557.579 184.781 557.777 186.631 558.073 188.012C558.418 189.393 558.887 190.355 559.479 190.898C560.12 191.441 560.959 191.712 561.995 191.712ZM584.762 147.164H605.556C610.489 147.164 614.115 148.373 616.434 150.79C618.802 153.158 619.986 156.34 619.986 160.336C619.986 161.717 619.813 163.074 619.468 164.406C619.172 165.689 618.678 166.873 617.988 167.958C617.346 168.994 616.508 169.882 615.472 170.622C614.436 171.362 613.178 171.88 611.698 172.176V172.324C613.424 172.472 614.904 172.941 616.138 173.73C617.371 174.47 618.382 175.407 619.172 176.542C619.961 177.677 620.528 178.935 620.874 180.316C621.268 181.648 621.466 183.005 621.466 184.386C621.466 186.705 621.17 188.826 620.578 190.75C619.986 192.625 619.048 194.253 617.766 195.634C616.532 197.015 614.904 198.101 612.882 198.89C610.859 199.63 608.417 200 605.556 200H584.762V147.164ZM602.374 190.084C603.656 190.084 604.791 189.566 605.778 188.53C606.764 187.445 607.258 185.792 607.258 183.572C607.258 181.5 606.764 179.921 605.778 178.836C604.791 177.751 603.656 177.208 602.374 177.208H598.526V190.084H602.374ZM601.856 167.884C603.286 167.884 604.372 167.366 605.112 166.33C605.852 165.245 606.222 163.987 606.222 162.556C606.222 161.076 605.852 159.793 605.112 158.708C604.372 157.623 603.286 157.08 601.856 157.08H598.526V167.884H601.856ZM625.33 147.164H638.576V176.838L647.456 147.164H662.848V200H649.602V168.476L640.574 200H625.33V147.164ZM674.816 158.856H664.604V147.164H698.94V158.856H688.58V200H674.816V158.856ZM700.561 147.164H714.325V166.108H719.727C725.746 166.108 730.112 167.588 732.825 170.548C735.588 173.459 736.969 177.529 736.969 182.758C736.969 186.113 736.451 188.9 735.415 191.12C734.379 193.34 733.023 195.116 731.345 196.448C729.717 197.731 727.867 198.643 725.795 199.186C723.723 199.729 721.627 200 719.505 200H700.561V147.164ZM716.175 190.084C718.642 190.084 720.369 189.517 721.355 188.382C722.342 187.198 722.835 185.373 722.835 182.906C722.835 180.143 722.219 178.293 720.985 177.356C719.801 176.369 718.173 175.876 716.101 175.876H714.325V190.084H716.175ZM757.516 200.814C753.668 200.814 750.511 200.345 748.044 199.408C745.578 198.421 743.654 196.843 742.272 194.672C740.891 192.501 739.929 189.689 739.386 186.236C738.893 182.783 738.646 178.565 738.646 173.582C738.646 168.55 738.942 164.283 739.534 160.78C740.176 157.277 741.236 154.441 742.716 152.27C744.196 150.099 746.145 148.545 748.562 147.608C750.98 146.621 753.964 146.128 757.516 146.128C760.624 146.128 763.264 146.523 765.434 147.312C767.605 148.101 769.356 149.236 770.688 150.716C772.07 152.147 773.056 153.898 773.648 155.97C774.29 157.993 774.61 160.287 774.61 162.852V166.182H761.29V163.222C761.29 160.213 760.994 158.165 760.402 157.08C759.81 155.995 758.848 155.452 757.516 155.452C756.48 155.452 755.642 155.723 755 156.266C754.408 156.809 753.94 157.771 753.594 159.152C753.298 160.533 753.101 162.408 753.002 164.776C752.904 167.095 752.854 170.03 752.854 173.582C752.854 177.134 752.904 180.094 753.002 182.462C753.101 184.781 753.298 186.631 753.594 188.012C753.94 189.393 754.408 190.355 755 190.898C755.642 191.441 756.48 191.712 757.516 191.712C758.355 191.712 759.046 191.515 759.588 191.12C760.131 190.676 760.55 189.961 760.846 188.974C761.142 187.987 761.34 186.68 761.438 185.052C761.586 183.375 761.66 181.278 761.66 178.762H774.98V182.684C774.98 186.433 774.487 189.492 773.5 191.86C772.514 194.179 771.206 196.004 769.578 197.336C767.95 198.668 766.076 199.581 763.954 200.074C761.882 200.567 759.736 200.814 757.516 200.814ZM784.535 178.318C782.117 177.035 780.243 175.185 778.911 172.768C777.628 170.351 776.987 167.366 776.987 163.814C776.987 160.41 777.48 157.647 778.467 155.526C779.503 153.355 780.835 151.653 782.463 150.42C784.14 149.187 786.015 148.348 788.087 147.904C790.159 147.411 792.255 147.164 794.377 147.164H813.395V200H799.631V180.39H797.485L789.715 200H774.767L784.535 178.318ZM800.075 170.548V157.154H796.967C794.648 157.154 793.02 157.697 792.083 158.782C791.195 159.867 790.751 161.594 790.751 163.962C790.751 166.577 791.293 168.328 792.379 169.216C793.513 170.104 795.067 170.548 797.041 170.548H800.075ZM835.619 147.164H849.383V167.44H849.531L859.743 147.164H874.395L861.075 170.252L876.023 200H860.335L852.269 181.574L849.383 186.014V200H835.619V147.164ZM21.572 269.814C17.724 269.814 14.5667 269.345 12.1 268.408C9.63333 267.421 7.70933 265.843 6.328 263.672C4.94667 261.501 3.98467 258.689 3.442 255.236C2.94867 251.783 2.702 247.565 2.702 242.582C2.702 237.55 2.998 233.283 3.59 229.78C4.23133 226.277 5.292 223.441 6.772 221.27C8.252 219.099 10.2007 217.545 12.618 216.608C15.0353 215.621 18.02 215.128 21.572 215.128C24.68 215.128 27.3193 215.523 29.49 216.312C31.6607 217.101 33.412 218.236 34.744 219.716C36.1253 221.147 37.112 222.898 37.704 224.97C38.3453 226.993 38.666 229.287 38.666 231.852V235.182H25.346V232.222C25.346 229.213 25.05 227.165 24.458 226.08C23.866 224.995 22.904 224.452 21.572 224.452C20.536 224.452 19.6973 224.723 19.056 225.266C18.464 225.809 17.9953 226.771 17.65 228.152C17.354 229.533 17.1567 231.408 17.058 233.776C16.9593 236.095 16.91 239.03 16.91 242.582C16.91 246.134 16.9593 249.094 17.058 251.462C17.1567 253.781 17.354 255.631 17.65 257.012C17.9953 258.393 18.464 259.355 19.056 259.898C19.6973 260.441 20.536 260.712 21.572 260.712C22.4107 260.712 23.1013 260.515 23.644 260.12C24.1867 259.676 24.606 258.961 24.902 257.974C25.198 256.987 25.3953 255.68 25.494 254.052C25.642 252.375 25.716 250.278 25.716 247.762H39.036V251.684C39.036 255.433 38.5427 258.492 37.556 260.86C36.5693 263.179 35.262 265.004 33.634 266.336C32.006 267.668 30.1313 268.581 28.01 269.074C25.938 269.567 23.792 269.814 21.572 269.814ZM39.2661 257.752H42.8181C43.8541 255.68 44.7174 253.583 45.4081 251.462C46.0988 249.291 46.6414 247.047 47.0361 244.728C47.4801 242.409 47.7761 239.967 47.9241 237.402C48.0721 234.837 48.1461 232.049 48.1461 229.04V216.164H81.7421V257.752H86.4041V279.138H73.8241V269H51.8461V279.138H39.2661V257.752ZM68.0521 257.752V227.116H61.0961V232C61.0961 234.615 60.9728 237.205 60.7261 239.77C60.5288 242.286 60.2328 244.679 59.8381 246.948C59.4434 249.217 58.9994 251.289 58.5061 253.164C58.0128 254.989 57.5194 256.519 57.0261 257.752H68.0521ZM97.829 216.164H115.145L128.021 269H113.369L111.963 259.75H101.011L99.605 269H85.175L97.829 216.164ZM110.335 249.39L106.561 226.968H106.413L102.639 249.39H110.335ZM146.641 249.538C146.247 249.587 145.753 249.661 145.161 249.76C144.569 249.809 143.928 249.859 143.237 249.908C142.596 249.957 141.955 250.007 141.313 250.056C140.672 250.056 140.129 250.056 139.685 250.056C134.456 250.056 130.657 248.798 128.289 246.282C125.971 243.766 124.811 239.844 124.811 234.516V216.164H138.427V233.924C138.427 235.157 138.575 236.144 138.871 236.884C139.167 237.624 139.537 238.191 139.981 238.586C140.475 238.931 140.993 239.178 141.535 239.326C142.127 239.425 142.695 239.474 143.237 239.474C143.731 239.474 144.347 239.449 145.087 239.4C145.827 239.301 146.345 239.203 146.641 239.104V216.164H160.405V269H146.641V249.538ZM165.414 216.164H196.716V227.412H179.178V236.44H195.606V247.244H179.178V257.752H197.382V269H165.414V216.164ZM221.415 269.444C221.02 269.444 220.551 269.419 220.009 269.37C219.515 269.37 218.973 269.345 218.381 269.296C217.838 269.247 217.295 269.197 216.753 269.148C216.21 269.099 215.766 269.025 215.421 268.926V258.048C215.667 258.097 215.963 258.147 216.309 258.196C216.654 258.196 216.95 258.196 217.197 258.196C218.085 258.196 218.849 258.122 219.491 257.974C220.181 257.777 220.773 257.259 221.267 256.42C221.76 255.581 222.155 254.299 222.451 252.572C222.747 250.796 222.993 248.354 223.191 245.246C223.388 242.138 223.511 238.216 223.561 233.48C223.659 228.744 223.709 222.972 223.709 216.164H256.787V269H243.023V227.116H236.659C236.659 235.651 236.486 242.656 236.141 248.132C235.845 253.559 235.154 257.875 234.069 261.082C233.033 264.239 231.503 266.435 229.481 267.668C227.458 268.852 224.769 269.444 221.415 269.444ZM299.599 269.814C296.343 269.814 293.555 269.419 291.237 268.63C288.967 267.791 287.093 266.484 285.613 264.708C284.133 262.883 282.998 260.539 282.209 257.678C281.469 254.817 281 251.339 280.803 247.244H275.549V269H261.785V216.164H275.549V235.922H280.951C281.197 232.222 281.715 229.065 282.505 226.45C283.343 223.786 284.503 221.64 285.983 220.012C287.512 218.335 289.387 217.101 291.607 216.312C293.827 215.523 296.491 215.128 299.599 215.128C303.101 215.128 306.061 215.646 308.479 216.682C310.896 217.669 312.845 219.272 314.325 221.492C315.805 223.663 316.865 226.499 317.507 230.002C318.148 233.455 318.469 237.649 318.469 242.582C318.469 247.565 318.148 251.783 317.507 255.236C316.865 258.689 315.805 261.501 314.325 263.672C312.845 265.843 310.896 267.421 308.479 268.408C306.061 269.345 303.101 269.814 299.599 269.814ZM299.599 260.712C300.635 260.712 301.449 260.441 302.041 259.898C302.682 259.355 303.151 258.393 303.447 257.012C303.792 255.631 304.014 253.781 304.113 251.462C304.211 249.094 304.261 246.134 304.261 242.582C304.261 239.03 304.211 236.095 304.113 233.776C304.014 231.408 303.792 229.533 303.447 228.152C303.151 226.771 302.682 225.809 302.041 225.266C301.449 224.723 300.635 224.452 299.599 224.452C298.563 224.452 297.724 224.723 297.083 225.266C296.491 225.809 296.022 226.771 295.677 228.152C295.381 229.533 295.183 231.408 295.085 233.776C294.986 236.095 294.937 239.03 294.937 242.582C294.937 246.134 294.986 249.094 295.085 251.462C295.183 253.781 295.381 255.631 295.677 257.012C296.022 258.393 296.491 259.355 297.083 259.898C297.724 260.441 298.563 260.712 299.599 260.712ZM321.947 216.164H354.951V227.116H335.711V236.514H341.927C347.403 236.514 351.523 237.821 354.285 240.436C357.048 243.051 358.429 247.071 358.429 252.498C358.429 255.754 357.936 258.443 356.949 260.564C356.012 262.685 354.754 264.387 353.175 265.67C351.597 266.903 349.796 267.767 347.773 268.26C345.8 268.753 343.777 269 341.705 269H321.947V216.164ZM338.375 259.01C340.595 259.01 342.125 258.517 342.963 257.53C343.851 256.543 344.295 254.915 344.295 252.646C344.295 250.13 343.753 248.477 342.667 247.688C341.631 246.899 340.176 246.504 338.301 246.504H335.711V259.01H338.375ZM361.875 216.164H375.639V235.108H381.041C387.06 235.108 391.426 236.588 394.139 239.548C396.902 242.459 398.283 246.529 398.283 251.758C398.283 255.113 397.765 257.9 396.729 260.12C395.693 262.34 394.337 264.116 392.659 265.448C391.031 266.731 389.181 267.643 387.109 268.186C385.037 268.729 382.941 269 380.819 269H361.875V216.164ZM377.489 259.084C379.956 259.084 381.683 258.517 382.669 257.382C383.656 256.198 384.149 254.373 384.149 251.906C384.149 249.143 383.533 247.293 382.299 246.356C381.115 245.369 379.487 244.876 377.415 244.876H375.639V259.084H377.489ZM401.095 216.164H414.859V269H401.095V216.164ZM428.232 242.212L416.614 216.164H432.006L436.372 231.482H436.52L440.886 216.164H456.278L444.808 242.212L457.166 269H441.774L436.52 253.09H436.372L431.118 269H415.948L428.232 242.212ZM475.807 216.164H511.771V269H498.007V227.412H489.571V269H475.807V216.164ZM516.301 216.164H536.947C539.561 216.164 541.831 216.583 543.755 217.422C545.679 218.261 547.257 219.42 548.491 220.9C549.773 222.331 550.711 224.057 551.303 226.08C551.895 228.053 552.191 230.175 552.191 232.444C552.191 237.969 550.711 242.089 547.751 244.802C544.84 247.515 540.548 248.872 534.875 248.872H530.065V269H516.301V216.164ZM532.655 238.956C534.381 238.956 535.689 238.438 536.577 237.402C537.514 236.366 537.983 234.738 537.983 232.518C537.983 228.226 536.207 226.08 532.655 226.08H530.065V238.956H532.655ZM555.085 216.164H586.387V227.412H568.849V236.44H585.277V247.244H568.849V257.752H587.053V269H555.085V216.164ZM587.349 257.752H590.901C591.937 255.68 592.8 253.583 593.491 251.462C594.181 249.291 594.724 247.047 595.119 244.728C595.563 242.409 595.859 239.967 596.007 237.402C596.155 234.837 596.229 232.049 596.229 229.04V216.164H629.825V257.752H634.487V279.138H621.907V269H599.929V279.138H587.349V257.752ZM616.135 257.752V227.116H609.179V232C609.179 234.615 609.055 237.205 608.809 239.77C608.611 242.286 608.315 244.679 607.921 246.948C607.526 249.217 607.082 251.289 606.589 253.164C606.095 254.989 605.602 256.519 605.109 257.752H616.135ZM636.013 216.164H655.697L661.247 247.466H661.395L666.945 216.164H686.629V269H673.753V229.632H673.605L666.279 269H656.363L649.037 229.632H648.889V269H636.013V216.164ZM691.129 216.164H722.431V227.412H704.893V236.44H721.321V247.244H704.893V257.752H723.097V269H691.129V216.164ZM733.605 227.856H723.393V216.164H757.729V227.856H747.369V269H733.605V227.856ZM776.667 269.814C773.164 269.814 770.204 269.345 767.787 268.408C765.37 267.421 763.421 265.843 761.941 263.672C760.461 261.501 759.4 258.689 758.759 255.236C758.118 251.783 757.797 247.565 757.797 242.582C757.797 237.649 758.118 233.455 758.759 230.002C759.4 226.499 760.461 223.663 761.941 221.492C763.421 219.272 765.37 217.669 767.787 216.682C770.204 215.646 773.164 215.128 776.667 215.128C780.17 215.128 783.13 215.646 785.547 216.682C787.964 217.669 789.913 219.272 791.393 221.492C792.873 223.663 793.934 226.499 794.575 230.002C795.216 233.455 795.537 237.649 795.537 242.582C795.537 247.565 795.216 251.783 794.575 255.236C793.934 258.689 792.873 261.501 791.393 263.672C789.913 265.843 787.964 267.421 785.547 268.408C783.13 269.345 780.17 269.814 776.667 269.814ZM776.667 260.712C777.703 260.712 778.517 260.441 779.109 259.898C779.75 259.355 780.219 258.393 780.515 257.012C780.86 255.631 781.082 253.781 781.181 251.462C781.28 249.094 781.329 246.134 781.329 242.582C781.329 239.03 781.28 236.095 781.181 233.776C781.082 231.408 780.86 229.533 780.515 228.152C780.219 226.771 779.75 225.809 779.109 225.266C778.517 224.723 777.703 224.452 776.667 224.452C775.631 224.452 774.792 224.723 774.151 225.266C773.559 225.809 773.09 226.771 772.745 228.152C772.449 229.533 772.252 231.408 772.153 233.776C772.054 236.095 772.005 239.03 772.005 242.582C772.005 246.134 772.054 249.094 772.153 251.462C772.252 253.781 772.449 255.631 772.745 257.012C773.09 258.393 773.559 259.355 774.151 259.898C774.792 260.441 775.631 260.712 776.667 260.712ZM799.434 216.164H820.228C825.161 216.164 828.787 217.373 831.106 219.79C833.474 222.158 834.658 225.34 834.658 229.336C834.658 230.717 834.485 232.074 834.14 233.406C833.844 234.689 833.351 235.873 832.66 236.958C832.019 237.994 831.18 238.882 830.144 239.622C829.108 240.362 827.85 240.88 826.37 241.176V241.324C828.097 241.472 829.577 241.941 830.81 242.73C832.043 243.47 833.055 244.407 833.844 245.542C834.633 246.677 835.201 247.935 835.546 249.316C835.941 250.648 836.138 252.005 836.138 253.386C836.138 255.705 835.842 257.826 835.25 259.75C834.658 261.625 833.721 263.253 832.438 264.634C831.205 266.015 829.577 267.101 827.554 267.89C825.531 268.63 823.089 269 820.228 269H799.434V216.164ZM817.046 259.084C818.329 259.084 819.463 258.566 820.45 257.53C821.437 256.445 821.93 254.792 821.93 252.572C821.93 250.5 821.437 248.921 820.45 247.836C819.463 246.751 818.329 246.208 817.046 246.208H813.198V259.084H817.046ZM816.528 236.884C817.959 236.884 819.044 236.366 819.784 235.33C820.524 234.245 820.894 232.987 820.894 231.556C820.894 230.076 820.524 228.793 819.784 227.708C819.044 226.623 817.959 226.08 816.528 226.08H813.198V236.884H816.528Z" fill="white"/>
<path fill-rule="evenodd" clip-rule="evenodd" d="M381.706 78C366.957 78 355 89.9566 355 104.706C355 119.455 366.957 131.412 381.706 131.412H429.294C444.043 131.412 456 119.455 456 104.706C456 89.9566 444.043 78 429.294 78H381.706ZM383.5 87C373.835 87 366 94.835 366 104.5C366 114.165 373.835 122 383.5 122H427.5C437.165 122 445 114.165 445 104.5C445 94.835 437.165 87 427.5 87H383.5Z" fill="white"/>
<rect x="402" y="95" width="7" height="20" rx="3.5" fill="white"/>
</svg>
