<svg width="200" height="75" viewBox="0 0 200 75" fill="none" xmlns="http://www.w3.org/2000/svg">
<path fill-rule="evenodd" clip-rule="evenodd" d="M3 3H197V70H187V73H197H200V70V3V0H197H3H0V3V70V73H3H118V70H3V3Z" fill="white"/>
<path d="M125.314 71.4961C125.314 71.7275 125.319 71.9196 125.329 72.0722C125.338 72.2247 125.355 72.3484 125.38 72.4431C125.409 72.5325 125.448 72.5956 125.497 72.6325C125.545 72.6693 125.606 72.6877 125.679 72.6877C125.757 72.6877 125.82 72.6693 125.869 72.6325C125.918 72.5956 125.954 72.5325 125.978 72.4431C126.008 72.3484 126.027 72.2247 126.037 72.0722C126.047 71.9196 126.051 71.7275 126.051 71.4961C126.051 71.2646 126.047 71.0752 126.037 70.9278C126.027 70.7753 126.008 70.6543 125.978 70.5648C125.954 70.4701 125.918 70.4044 125.869 70.3675C125.82 70.3307 125.757 70.3123 125.679 70.3123C125.606 70.3123 125.545 70.3307 125.497 70.3675C125.448 70.4044 125.409 70.4701 125.38 70.5648C125.355 70.6543 125.338 70.7753 125.329 70.9278C125.319 71.0752 125.314 71.2646 125.314 71.4961ZM124 69.3653H125.27V69.9493H125.285C125.436 69.4863 125.735 69.2548 126.183 69.2548C126.621 69.2548 126.928 69.4468 127.103 69.8309C127.278 70.215 127.366 70.8016 127.366 71.5908C127.366 72.0011 127.336 72.3431 127.278 72.6167C127.22 72.8903 127.137 73.1112 127.03 73.2796C126.928 73.4427 126.801 73.5584 126.65 73.6268C126.504 73.69 126.339 73.7215 126.154 73.7215C125.969 73.7215 125.801 73.6821 125.65 73.6032C125.504 73.5242 125.397 73.3743 125.329 73.1533H125.314V75H124V69.3653Z" fill="white"/>
<path d="M129.545 70.7779C129.545 70.5517 129.518 70.3859 129.465 70.2807C129.416 70.1755 129.321 70.1229 129.18 70.1229C129.044 70.1229 128.949 70.1755 128.895 70.2807C128.847 70.3859 128.822 70.5517 128.822 70.7779V70.9673H129.545V70.7779ZM128.822 71.7407V72.301C128.822 72.5325 128.859 72.6877 128.932 72.7666C129.005 72.8403 129.087 72.8771 129.18 72.8771C129.297 72.8771 129.387 72.8271 129.45 72.7272C129.518 72.6219 129.552 72.4247 129.552 72.1353H130.735C130.725 72.6614 130.601 73.0586 130.363 73.3269C130.124 73.59 129.732 73.7215 129.187 73.7215C128.871 73.7215 128.606 73.6847 128.391 73.611C128.177 73.5321 128.005 73.4059 127.873 73.2322C127.742 73.0534 127.647 72.8219 127.588 72.5378C127.535 72.2537 127.508 71.9091 127.508 71.5039C127.508 71.0936 127.54 70.7463 127.603 70.4622C127.666 70.1781 127.766 69.9466 127.902 69.7678C128.039 69.5889 128.211 69.46 128.421 69.3811C128.635 69.2969 128.89 69.2548 129.187 69.2548C129.45 69.2548 129.679 69.289 129.874 69.3574C130.073 69.4258 130.239 69.5415 130.37 69.7046C130.506 69.8625 130.606 70.0729 130.669 70.336C130.737 70.5938 130.771 70.9173 130.771 71.3067V71.7407H128.822Z" fill="white"/>
<path d="M130.957 69.3653H132.228V70.044H132.242C132.315 69.7862 132.432 69.5915 132.593 69.46C132.753 69.3232 132.931 69.2548 133.125 69.2548H133.337V70.5806C133.279 70.5701 133.223 70.5622 133.169 70.5569C133.116 70.5517 133.062 70.549 133.009 70.549C132.775 70.549 132.593 70.6043 132.461 70.7148C132.335 70.8253 132.271 71.0225 132.271 71.3067V73.6347H130.957V69.3653Z" fill="white"/>
<path d="M136.596 72.7903C136.742 72.7903 136.846 72.7324 136.91 72.6167C136.973 72.5009 137.004 72.3247 137.004 72.0879V71.575H136.99C136.951 71.6328 136.89 71.6697 136.807 71.6855C136.729 71.696 136.642 71.7249 136.545 71.7723C136.442 71.8249 136.372 71.8959 136.333 71.9853C136.294 72.0695 136.274 72.1826 136.274 72.3247C136.274 72.4667 136.304 72.5799 136.362 72.664C136.42 72.7482 136.498 72.7903 136.596 72.7903ZM137.085 73.6347C137.06 73.5611 137.043 73.4848 137.034 73.4059C137.024 73.3269 137.014 73.2428 137.004 73.1533H136.99C136.917 73.3427 136.8 73.4848 136.639 73.5795C136.484 73.6742 136.304 73.7215 136.099 73.7215C135.9 73.7215 135.729 73.6926 135.588 73.6347C135.452 73.5821 135.34 73.5006 135.252 73.3901C135.165 73.2796 135.101 73.1481 135.063 72.9955C135.024 72.8429 135.004 72.6746 135.004 72.4904C135.004 72.2905 135.021 72.1169 135.055 71.9696C135.094 71.8222 135.155 71.696 135.238 71.5908C135.32 71.4803 135.432 71.3882 135.574 71.3145C135.715 71.2356 135.89 71.1699 136.099 71.1172L136.618 70.9831C136.759 70.9463 136.858 70.8936 136.917 70.8253C136.975 70.7516 137.004 70.649 137.004 70.5175C137.004 70.2544 136.893 70.1229 136.669 70.1229C136.542 70.1229 136.45 70.1623 136.391 70.2413C136.333 70.3149 136.301 70.4649 136.296 70.6911H135.157C135.157 70.3807 135.209 70.1334 135.311 69.9493C135.413 69.7599 135.539 69.6152 135.69 69.5152C135.841 69.41 136.004 69.3416 136.18 69.31C136.355 69.2732 136.518 69.2548 136.669 69.2548C136.897 69.2548 137.107 69.2758 137.296 69.3179C137.491 69.3548 137.657 69.4258 137.793 69.531C137.934 69.631 138.041 69.7704 138.114 69.9493C138.192 70.1229 138.231 70.3491 138.231 70.628V72.7114C138.231 72.9113 138.238 73.0876 138.253 73.2401C138.267 73.3927 138.302 73.5242 138.355 73.6347H137.085Z" fill="white"/>
<path d="M139.684 72.3089C139.684 72.3931 139.691 72.472 139.706 72.5457C139.72 72.6193 139.745 72.6798 139.779 72.7272C139.842 72.8271 139.934 72.8771 140.056 72.8771C140.158 72.8771 140.246 72.8455 140.319 72.7824C140.397 72.7193 140.436 72.6298 140.436 72.5141C140.436 72.3878 140.387 72.2905 140.29 72.2221C140.197 72.1537 140.08 72.0932 139.939 72.0406C139.798 71.988 139.645 71.9327 139.479 71.8749C139.319 71.817 139.168 71.7381 139.027 71.6381C138.886 71.5381 138.766 71.4066 138.669 71.2435C138.577 71.0752 138.53 70.8568 138.53 70.5885C138.53 70.3991 138.562 70.2255 138.625 70.0676C138.688 69.9045 138.783 69.7625 138.91 69.6415C139.041 69.5205 139.204 69.4258 139.399 69.3574C139.599 69.289 139.832 69.2548 140.1 69.2548C141.088 69.2548 141.582 69.702 141.582 70.5964H140.443C140.443 70.4123 140.411 70.2886 140.348 70.2255C140.29 70.1571 140.205 70.1229 140.093 70.1229C139.995 70.1229 139.915 70.1518 139.852 70.2097C139.788 70.2676 139.757 70.3491 139.757 70.4543C139.757 70.5753 139.803 70.6674 139.895 70.7306C139.993 70.7884 140.112 70.841 140.253 70.8884C140.394 70.9357 140.545 70.9857 140.706 71.0383C140.871 71.0909 141.025 71.1672 141.166 71.2672C141.307 71.3619 141.424 71.4934 141.516 71.6618C141.614 71.8249 141.662 72.0432 141.662 72.3168C141.662 72.5272 141.626 72.7193 141.553 72.8929C141.48 73.0665 141.375 73.2165 141.239 73.3427C141.107 73.469 140.942 73.5637 140.742 73.6268C140.548 73.69 140.326 73.7215 140.078 73.7215C139.528 73.7215 139.131 73.6032 138.888 73.3664C138.65 73.1297 138.53 72.7772 138.53 72.3089H139.684Z" fill="white"/>
<path d="M143.238 71.4961C143.238 71.7275 143.243 71.9196 143.253 72.0722C143.263 72.2247 143.28 72.3484 143.304 72.4431C143.333 72.5325 143.372 72.5956 143.421 72.6325C143.469 72.6693 143.53 72.6877 143.603 72.6877C143.681 72.6877 143.744 72.6693 143.793 72.6325C143.842 72.5956 143.878 72.5325 143.903 72.4431C143.932 72.3484 143.951 72.2247 143.961 72.0722C143.971 71.9196 143.976 71.7275 143.976 71.4961C143.976 71.2646 143.971 71.0752 143.961 70.9278C143.951 70.7753 143.932 70.6543 143.903 70.5648C143.878 70.4701 143.842 70.4044 143.793 70.3675C143.744 70.3307 143.681 70.3123 143.603 70.3123C143.53 70.3123 143.469 70.3307 143.421 70.3675C143.372 70.4044 143.333 70.4701 143.304 70.5648C143.28 70.6543 143.263 70.7753 143.253 70.9278C143.243 71.0752 143.238 71.2646 143.238 71.4961ZM141.924 69.3653H143.195V69.9493H143.209C143.36 69.4863 143.659 69.2548 144.107 69.2548C144.545 69.2548 144.852 69.4468 145.027 69.8309C145.202 70.215 145.29 70.8016 145.29 71.5908C145.29 72.0011 145.261 72.3431 145.202 72.6167C145.144 72.8903 145.061 73.1112 144.954 73.2796C144.852 73.4427 144.725 73.5584 144.574 73.6268C144.428 73.69 144.263 73.7215 144.078 73.7215C143.893 73.7215 143.725 73.6821 143.574 73.6032C143.428 73.5242 143.321 73.3743 143.253 73.1533H143.238V75H141.924V69.3653Z" fill="white"/>
<path d="M147.469 70.7779C147.469 70.5517 147.442 70.3859 147.389 70.2807C147.34 70.1755 147.245 70.1229 147.104 70.1229C146.968 70.1229 146.873 70.1755 146.819 70.2807C146.771 70.3859 146.746 70.5517 146.746 70.7779V70.9673H147.469V70.7779ZM146.746 71.7407V72.301C146.746 72.5325 146.783 72.6877 146.856 72.7666C146.929 72.8403 147.012 72.8771 147.104 72.8771C147.221 72.8771 147.311 72.8271 147.374 72.7272C147.442 72.6219 147.476 72.4247 147.476 72.1353H148.659C148.649 72.6614 148.525 73.0586 148.287 73.3269C148.048 73.59 147.657 73.7215 147.111 73.7215C146.795 73.7215 146.53 73.6847 146.316 73.611C146.102 73.5321 145.929 73.4059 145.797 73.2322C145.666 73.0534 145.571 72.8219 145.513 72.5378C145.459 72.2537 145.432 71.9091 145.432 71.5039C145.432 71.0936 145.464 70.7463 145.527 70.4622C145.591 70.1781 145.69 69.9466 145.827 69.7678C145.963 69.5889 146.136 69.46 146.345 69.3811C146.559 69.2969 146.815 69.2548 147.111 69.2548C147.374 69.2548 147.603 69.289 147.798 69.3574C147.997 69.4258 148.163 69.5415 148.294 69.7046C148.43 69.8625 148.53 70.0729 148.593 70.336C148.662 70.5938 148.696 70.9173 148.696 71.3067V71.7407H146.746Z" fill="white"/>
<path d="M148.881 69.3653H150.152V70.044H150.166C150.239 69.7862 150.356 69.5915 150.517 69.46C150.677 69.3232 150.855 69.2548 151.05 69.2548H151.261V70.5806C151.203 70.5701 151.147 70.5622 151.094 70.5569C151.04 70.5517 150.986 70.549 150.933 70.549C150.699 70.549 150.517 70.6043 150.385 70.7148C150.259 70.8253 150.196 71.0225 150.196 71.3067V73.6347H148.881V69.3653Z" fill="white"/>
<path d="M152.769 72.7903C152.915 72.7903 153.02 72.7324 153.083 72.6167C153.147 72.5009 153.178 72.3247 153.178 72.0879V71.575H153.164C153.125 71.6328 153.064 71.6697 152.981 71.6855C152.903 71.696 152.816 71.7249 152.718 71.7723C152.616 71.8249 152.546 71.8959 152.507 71.9853C152.468 72.0695 152.448 72.1826 152.448 72.3247C152.448 72.4667 152.477 72.5799 152.536 72.664C152.594 72.7482 152.672 72.7903 152.769 72.7903ZM153.259 73.6347C153.234 73.5611 153.217 73.4848 153.207 73.4059C153.198 73.3269 153.188 73.2428 153.178 73.1533H153.164C153.091 73.3427 152.974 73.4848 152.813 73.5795C152.657 73.6742 152.477 73.7215 152.273 73.7215C152.073 73.7215 151.903 73.6926 151.762 73.6347C151.626 73.5821 151.514 73.5006 151.426 73.3901C151.339 73.2796 151.275 73.1481 151.236 72.9955C151.197 72.8429 151.178 72.6746 151.178 72.4904C151.178 72.2905 151.195 72.1169 151.229 71.9696C151.268 71.8222 151.329 71.696 151.412 71.5908C151.494 71.4803 151.606 71.3882 151.747 71.3145C151.889 71.2356 152.064 71.1699 152.273 71.1172L152.791 70.9831C152.932 70.9463 153.032 70.8936 153.091 70.8253C153.149 70.7516 153.178 70.649 153.178 70.5175C153.178 70.2544 153.066 70.1229 152.842 70.1229C152.716 70.1229 152.623 70.1623 152.565 70.2413C152.507 70.3149 152.475 70.4649 152.47 70.6911H151.331C151.331 70.3807 151.382 70.1334 151.485 69.9493C151.587 69.7599 151.713 69.6152 151.864 69.5152C152.015 69.41 152.178 69.3416 152.353 69.31C152.529 69.2732 152.692 69.2548 152.842 69.2548C153.071 69.2548 153.28 69.2758 153.47 69.3179C153.665 69.3548 153.83 69.4258 153.967 69.531C154.108 69.631 154.215 69.7704 154.288 69.9493C154.366 70.1229 154.405 70.3491 154.405 70.628V72.7114C154.405 72.9113 154.412 73.0876 154.427 73.2401C154.441 73.3927 154.475 73.5242 154.529 73.6347H153.259Z" fill="white"/>
<path d="M158.024 72.7903C158.17 72.7903 158.275 72.7324 158.338 72.6167C158.401 72.5009 158.433 72.3247 158.433 72.0879V71.575H158.418C158.379 71.6328 158.319 71.6697 158.236 71.6855C158.158 71.696 158.07 71.7249 157.973 71.7723C157.871 71.8249 157.8 71.8959 157.761 71.9853C157.722 72.0695 157.703 72.1826 157.703 72.3247C157.703 72.4667 157.732 72.5799 157.79 72.664C157.849 72.7482 157.927 72.7903 158.024 72.7903ZM158.513 73.6347C158.489 73.5611 158.472 73.4848 158.462 73.4059C158.452 73.3269 158.443 73.2428 158.433 73.1533H158.418C158.345 73.3427 158.229 73.4848 158.068 73.5795C157.912 73.6742 157.732 73.7215 157.528 73.7215C157.328 73.7215 157.158 73.6926 157.017 73.6347C156.88 73.5821 156.768 73.5006 156.681 73.3901C156.593 73.2796 156.53 73.1481 156.491 72.9955C156.452 72.8429 156.433 72.6746 156.433 72.4904C156.433 72.2905 156.45 72.1169 156.484 71.9696C156.523 71.8222 156.583 71.696 156.666 71.5908C156.749 71.4803 156.861 71.3882 157.002 71.3145C157.143 71.2356 157.318 71.1699 157.528 71.1172L158.046 70.9831C158.187 70.9463 158.287 70.8936 158.345 70.8253C158.404 70.7516 158.433 70.649 158.433 70.5175C158.433 70.2544 158.321 70.1229 158.097 70.1229C157.971 70.1229 157.878 70.1623 157.82 70.2413C157.761 70.3149 157.73 70.4649 157.725 70.6911H156.586C156.586 70.3807 156.637 70.1334 156.739 69.9493C156.841 69.7599 156.968 69.6152 157.119 69.5152C157.27 69.41 157.433 69.3416 157.608 69.31C157.783 69.2732 157.946 69.2548 158.097 69.2548C158.326 69.2548 158.535 69.2758 158.725 69.3179C158.92 69.3548 159.085 69.4258 159.221 69.531C159.363 69.631 159.47 69.7704 159.543 69.9493C159.62 70.1229 159.659 70.3491 159.659 70.628V72.7114C159.659 72.9113 159.667 73.0876 159.681 73.2401C159.696 73.3927 159.73 73.5242 159.784 73.6347H158.513Z" fill="white"/>
<path d="M161.295 71.5039C161.295 71.7302 161.3 71.9196 161.309 72.0722C161.319 72.2247 161.336 72.3484 161.36 72.4431C161.39 72.5325 161.429 72.5956 161.477 72.6325C161.526 72.6693 161.589 72.6877 161.667 72.6877C161.74 72.6877 161.801 72.6693 161.85 72.6325C161.898 72.5956 161.935 72.5325 161.959 72.4431C161.988 72.3484 162.008 72.2247 162.017 72.0722C162.027 71.9196 162.032 71.7302 162.032 71.5039C162.032 71.2725 162.027 71.0804 162.017 70.9278C162.008 70.7753 161.988 70.6543 161.959 70.5648C161.935 70.4701 161.898 70.4044 161.85 70.3675C161.801 70.3307 161.74 70.3123 161.667 70.3123C161.589 70.3123 161.526 70.3307 161.477 70.3675C161.429 70.4044 161.39 70.4701 161.36 70.5648C161.336 70.6543 161.319 70.7753 161.309 70.9278C161.3 71.0804 161.295 71.2725 161.295 71.5039ZM162.032 68H163.346V73.6347H162.076V73.0507H162.061C161.979 73.2875 161.867 73.4585 161.725 73.5637C161.584 73.6689 161.397 73.7215 161.163 73.7215C160.725 73.7215 160.419 73.5348 160.243 73.1612C160.068 72.7877 159.981 72.2037 159.981 71.4092C159.981 71.0041 160.01 70.6648 160.068 70.3912C160.127 70.1176 160.207 69.8967 160.309 69.7283C160.416 69.5599 160.545 69.4389 160.696 69.3653C160.847 69.2916 161.012 69.2548 161.193 69.2548C161.377 69.2548 161.543 69.2995 161.689 69.389C161.84 69.4731 161.949 69.6257 162.017 69.8467H162.032V68Z" fill="white"/>
<path d="M166.926 72.7903C167.072 72.7903 167.176 72.7324 167.24 72.6167C167.303 72.5009 167.334 72.3247 167.334 72.0879V71.575H167.32C167.281 71.6328 167.22 71.6697 167.137 71.6855C167.059 71.696 166.972 71.7249 166.875 71.7723C166.772 71.8249 166.702 71.8959 166.663 71.9853C166.624 72.0695 166.604 72.1826 166.604 72.3247C166.604 72.4667 166.634 72.5799 166.692 72.664C166.75 72.7482 166.828 72.7903 166.926 72.7903ZM167.415 73.6347C167.39 73.5611 167.373 73.4848 167.364 73.4059C167.354 73.3269 167.344 73.2428 167.334 73.1533H167.32C167.247 73.3427 167.13 73.4848 166.969 73.5795C166.814 73.6742 166.634 73.7215 166.429 73.7215C166.23 73.7215 166.059 73.6926 165.918 73.6347C165.782 73.5821 165.67 73.5006 165.582 73.3901C165.495 73.2796 165.431 73.1481 165.393 72.9955C165.354 72.8429 165.334 72.6746 165.334 72.4904C165.334 72.2905 165.351 72.1169 165.385 71.9696C165.424 71.8222 165.485 71.696 165.568 71.5908C165.65 71.4803 165.762 71.3882 165.904 71.3145C166.045 71.2356 166.22 71.1699 166.429 71.1172L166.948 70.9831C167.089 70.9463 167.188 70.8936 167.247 70.8253C167.305 70.7516 167.334 70.649 167.334 70.5175C167.334 70.2544 167.223 70.1229 166.999 70.1229C166.872 70.1229 166.78 70.1623 166.721 70.2413C166.663 70.3149 166.631 70.4649 166.626 70.6911H165.487C165.487 70.3807 165.539 70.1334 165.641 69.9493C165.743 69.7599 165.869 69.6152 166.02 69.5152C166.171 69.41 166.334 69.3416 166.509 69.31C166.685 69.2732 166.848 69.2548 166.999 69.2548C167.227 69.2548 167.437 69.2758 167.626 69.3179C167.821 69.3548 167.987 69.4258 168.123 69.531C168.264 69.631 168.371 69.7704 168.444 69.9493C168.522 70.1229 168.561 70.3491 168.561 70.628V72.7114C168.561 72.9113 168.568 73.0876 168.583 73.2401C168.597 73.3927 168.632 73.5242 168.685 73.6347H167.415Z" fill="white"/>
<path d="M170.014 72.3089C170.014 72.3931 170.021 72.472 170.036 72.5457C170.05 72.6193 170.075 72.6798 170.109 72.7272C170.172 72.8271 170.264 72.8771 170.386 72.8771C170.488 72.8771 170.576 72.8455 170.649 72.7824C170.727 72.7193 170.766 72.6298 170.766 72.5141C170.766 72.3878 170.717 72.2905 170.62 72.2221C170.527 72.1537 170.41 72.0932 170.269 72.0406C170.128 71.988 169.975 71.9327 169.809 71.8749C169.649 71.817 169.498 71.7381 169.357 71.6381C169.216 71.5381 169.096 71.4066 168.999 71.2435C168.906 71.0752 168.86 70.8568 168.86 70.5885C168.86 70.3991 168.892 70.2255 168.955 70.0676C169.018 69.9045 169.113 69.7625 169.24 69.6415C169.371 69.5205 169.534 69.4258 169.729 69.3574C169.929 69.289 170.162 69.2548 170.43 69.2548C171.418 69.2548 171.912 69.702 171.912 70.5964H170.773C170.773 70.4123 170.741 70.2886 170.678 70.2255C170.62 70.1571 170.535 70.1229 170.423 70.1229C170.325 70.1229 170.245 70.1518 170.182 70.2097C170.118 70.2676 170.087 70.3491 170.087 70.4543C170.087 70.5753 170.133 70.6674 170.225 70.7306C170.323 70.7884 170.442 70.841 170.583 70.8884C170.724 70.9357 170.875 70.9857 171.036 71.0383C171.201 71.0909 171.355 71.1672 171.496 71.2672C171.637 71.3619 171.754 71.4934 171.846 71.6618C171.944 71.8249 171.992 72.0432 171.992 72.3168C171.992 72.5272 171.956 72.7193 171.883 72.8929C171.81 73.0665 171.705 73.2165 171.569 73.3427C171.437 73.469 171.272 73.5637 171.072 73.6268C170.878 73.69 170.656 73.7215 170.408 73.7215C169.858 73.7215 169.461 73.6032 169.218 73.3664C168.979 73.1297 168.86 72.7772 168.86 72.3089H170.014Z" fill="white"/>
<path d="M171.984 69.3653H172.422V68.1105H173.736V69.3653H174.255V70.3202H173.736V72.3563C173.736 72.4773 173.761 72.5641 173.809 72.6167C173.863 72.664 173.943 72.6877 174.05 72.6877H174.255V73.6347C174.133 73.6347 174.011 73.6374 173.89 73.6426C173.768 73.6531 173.651 73.6584 173.539 73.6584C173.34 73.6584 173.169 73.6505 173.028 73.6347C172.887 73.6137 172.77 73.5663 172.678 73.4927C172.59 73.419 172.524 73.3112 172.481 73.1691C172.442 73.0218 172.422 72.8298 172.422 72.593V70.3202H171.984V69.3653Z" fill="white"/>
<path d="M174.353 69.3653H175.623V70.044H175.637C175.71 69.7862 175.827 69.5915 175.988 69.46C176.149 69.3232 176.326 69.2548 176.521 69.2548H176.733V70.5806C176.674 70.5701 176.618 70.5622 176.565 70.5569C176.511 70.5517 176.458 70.549 176.404 70.549C176.17 70.549 175.988 70.6043 175.856 70.7148C175.73 70.8253 175.667 71.0225 175.667 71.3067V73.6347H174.353V69.3653Z" fill="white"/>
<path d="M178.241 72.7903C178.387 72.7903 178.491 72.7324 178.555 72.6167C178.618 72.5009 178.649 72.3247 178.649 72.0879V71.575H178.635C178.596 71.6328 178.535 71.6697 178.452 71.6855C178.374 71.696 178.287 71.7249 178.189 71.7723C178.087 71.8249 178.017 71.8959 177.978 71.9853C177.939 72.0695 177.919 72.1826 177.919 72.3247C177.919 72.4667 177.949 72.5799 178.007 72.664C178.065 72.7482 178.143 72.7903 178.241 72.7903ZM178.73 73.6347C178.705 73.5611 178.688 73.4848 178.679 73.4059C178.669 73.3269 178.659 73.2428 178.649 73.1533H178.635C178.562 73.3427 178.445 73.4848 178.284 73.5795C178.129 73.6742 177.949 73.7215 177.744 73.7215C177.545 73.7215 177.374 73.6926 177.233 73.6347C177.097 73.5821 176.985 73.5006 176.897 73.3901C176.81 73.2796 176.746 73.1481 176.707 72.9955C176.669 72.8429 176.649 72.6746 176.649 72.4904C176.649 72.2905 176.666 72.1169 176.7 71.9696C176.739 71.8222 176.8 71.696 176.883 71.5908C176.965 71.4803 177.077 71.3882 177.219 71.3145C177.36 71.2356 177.535 71.1699 177.744 71.1172L178.262 70.9831C178.404 70.9463 178.503 70.8936 178.562 70.8253C178.62 70.7516 178.649 70.649 178.649 70.5175C178.649 70.2544 178.537 70.1229 178.314 70.1229C178.187 70.1229 178.095 70.1623 178.036 70.2413C177.978 70.3149 177.946 70.4649 177.941 70.6911H176.802C176.802 70.3807 176.853 70.1334 176.956 69.9493C177.058 69.7599 177.184 69.6152 177.335 69.5152C177.486 69.41 177.649 69.3416 177.824 69.31C178 69.2732 178.163 69.2548 178.314 69.2548C178.542 69.2548 178.752 69.2758 178.941 69.3179C179.136 69.3548 179.302 69.4258 179.438 69.531C179.579 69.631 179.686 69.7704 179.759 69.9493C179.837 70.1229 179.876 70.3491 179.876 70.628V72.7114C179.876 72.9113 179.883 73.0876 179.898 73.2401C179.912 73.3927 179.946 73.5242 180 73.6347H178.73Z" fill="white"/>
<path d="M164.75 20.7359L168.366 31.3257L168.763 32.487L169.924 32.8836L180.514 36.4999L169.924 40.1161L168.763 40.5127L168.366 41.6741L164.75 52.2639L161.134 41.6741L160.737 40.5127L159.576 40.1161L148.986 36.4999L159.576 32.8836L160.737 32.487L161.134 31.3257L164.75 20.7359Z" stroke="white" stroke-width="5"/>
<path d="M33.808 41.8369L29.484 21.7209H29.3587L25.0347 41.8369H33.808ZM34.9987 13.9502L46.8427 58.6942H37.4427L35.3747 49.2315H23.468L21.4 58.6942H12L23.844 13.9502H34.9987Z" fill="white"/>
<path d="M57.2243 44.7195V46.0355C57.2243 47.08 57.3078 48.0409 57.4749 48.9182C57.6421 49.7538 57.9554 50.464 58.4149 51.0489C58.8745 51.6338 59.4803 52.0933 60.2323 52.4275C61.0261 52.7618 62.0078 52.9289 63.1776 52.9289C64.5563 52.9289 65.7887 52.4902 66.8749 51.6129C68.0029 50.6938 68.5669 49.2942 68.5669 47.4142C68.5669 46.4115 68.4207 45.5551 68.1283 44.8449C67.8776 44.0929 67.4389 43.4244 66.8123 42.8395C66.1856 42.2547 65.3501 41.7324 64.3056 41.2729C63.3029 40.7715 62.0496 40.2702 60.5456 39.7689C58.5403 39.1004 56.8065 38.3693 55.3443 37.5755C53.8821 36.7818 52.6496 35.8627 51.6469 34.8182C50.6861 33.732 49.9758 32.4995 49.5163 31.1209C49.0567 29.7004 48.8269 28.0711 48.8269 26.2329C48.8269 21.8044 50.0594 18.504 52.5243 16.3315C54.9892 14.1591 58.3732 13.0729 62.6763 13.0729C64.6816 13.0729 66.5198 13.3027 68.1909 13.7622C69.9038 14.18 71.3661 14.8902 72.5776 15.8929C73.8309 16.8538 74.7918 18.1071 75.4603 19.6529C76.1705 21.1569 76.5256 22.9742 76.5256 25.1049V26.3582H67.8776C67.8776 24.2275 67.5016 22.5982 66.7496 21.4702C65.9976 20.3004 64.7443 19.7155 62.9896 19.7155C61.9869 19.7155 61.1514 19.8618 60.4829 20.1542C59.8145 20.4467 59.2714 20.8435 58.8536 21.3449C58.4776 21.8044 58.2061 22.3475 58.0389 22.9742C57.9136 23.6009 57.8509 24.2484 57.8509 24.9169C57.8509 26.2955 58.1434 27.4653 58.7283 28.4262C59.3132 29.3453 60.5665 30.2018 62.4883 30.9955L69.4443 34.0035C71.1572 34.7555 72.5567 35.5493 73.6429 36.3849C74.7292 37.1787 75.5856 38.056 76.2123 39.0169C76.8807 39.936 77.3403 40.9595 77.5909 42.0875C77.8416 43.2155 77.9669 44.4689 77.9669 45.8475C77.9669 50.5684 76.5883 54.0151 73.8309 56.1875C71.1154 58.3182 67.3136 59.3835 62.4256 59.3835C57.3287 59.3835 53.6732 58.2764 51.4589 56.0622C49.2865 53.848 48.2003 50.6729 48.2003 46.5369V44.7195H57.2243Z" fill="white"/>
<path d="M108.646 13.9502V21.3449H98.8697V58.6942H89.8457V21.3449H80.0697V13.9502H108.646Z" fill="white"/>
<path d="M112.56 13.9502H129.23C132.99 13.9502 135.914 14.9111 138.003 16.8329C140.092 18.7129 141.136 21.5955 141.136 25.4809C141.136 28.4889 140.531 30.9538 139.319 32.8755C138.108 34.7555 136.228 35.9671 133.679 36.5102V36.6355C135.935 36.9698 137.585 37.7009 138.63 38.8289C139.674 39.9569 140.322 41.7742 140.572 44.2809C140.656 45.1164 140.719 46.0355 140.76 47.0382C140.802 47.9991 140.844 49.0853 140.886 50.2969C140.969 52.6782 141.095 54.4955 141.262 55.7489C141.512 57.0022 142.056 57.8587 142.891 58.3182V58.6942H133.115C132.656 58.0675 132.363 57.3573 132.238 56.5635C132.112 55.728 132.029 54.8715 131.987 53.9942L131.736 45.4089C131.653 43.6542 131.214 42.2755 130.42 41.2729C129.627 40.2702 128.29 39.7689 126.41 39.7689H121.584V58.6942H112.56V13.9502ZM121.584 33.5022H125.344C127.517 33.5022 129.188 33.0009 130.358 31.9982C131.528 30.9538 132.112 29.22 132.112 26.7969C132.112 22.6609 130.024 20.5929 125.846 20.5929H121.584V33.5022Z" fill="white"/>
</svg>
