<svg width="176" height="64" viewBox="0 0 176 64" fill="none" xmlns="http://www.w3.org/2000/svg">
<mask id="path-1-outside-1_405_6" maskUnits="userSpaceOnUse" x="0" y="0" width="176" height="53" fill="black">
<rect fill="white" width="176" height="53"/>
<path d="M22.3477 13.1759L19.0873 32.4465H25.7359L22.4755 13.1759H22.3477ZM29.8913 3.89039L41.015 49.3004H28.357L27.1424 41.3505H17.6809L16.4662 49.3004H4L14.9319 3.89039H29.8913ZM59.4691 16.9919V15.9107C59.4691 14.5539 59.1921 13.4091 58.638 12.4763C58.084 11.5011 57.2316 11.0135 56.0808 11.0135C54.8023 11.0135 53.8646 11.4375 53.268 12.2855C52.6713 13.0911 52.3729 14.0027 52.3729 15.0203C52.3729 16.5043 52.8418 17.6915 53.7794 18.5819C54.7596 19.4299 55.9743 20.1719 57.4234 20.8078C58.8724 21.4438 60.428 22.101 62.0902 22.7794C63.7523 23.4154 65.308 24.2634 66.757 25.3234C68.2061 26.3834 69.3994 27.7826 70.3371 29.521C71.3173 31.217 71.8074 33.4429 71.8074 36.1989C71.8074 41.0325 70.4223 44.5516 67.652 46.7564C64.8818 48.9188 60.8755 50 55.6333 50C53.1614 50 50.9665 49.788 49.0486 49.364C47.1734 48.9824 45.5751 48.304 44.2539 47.3288C42.9753 46.3112 41.9951 44.9968 41.3132 43.3857C40.6313 41.7745 40.2903 39.7817 40.2903 37.4073V35.8173H51.7976V36.8985C51.7976 38.8489 52.1598 40.2269 52.8844 41.0325C53.6089 41.7957 54.5465 42.1773 55.6973 42.1773C56.9332 42.1773 57.8709 41.7533 58.5101 40.9053C59.1921 40.0573 59.533 39.0185 59.533 37.7889C59.533 36.3049 59.0642 35.1389 58.1266 34.2909C57.2316 33.4005 56.0808 32.6585 54.6744 32.065C53.3106 31.429 51.8189 30.793 50.1993 30.157C48.5798 29.521 47.0668 28.6942 45.6604 27.6766C44.2966 26.659 43.1458 25.3234 42.2082 23.6698C41.3132 22.0162 40.8657 19.8539 40.8657 17.1827C40.8657 12.5611 42.1016 9.04195 44.5736 6.62517C47.0455 4.20839 50.796 3 55.8251 3C61.0247 3 64.7752 4.12359 67.0767 6.37077C69.4207 8.57555 70.5928 12.1159 70.5928 16.9919H59.4691ZM80.7645 13.9391H71.9423V3.89039H101.605V13.9391H92.6553V49.3004H80.7645V13.9391ZM114.897 23.0974H117.263C118.967 23.0974 120.225 22.6098 121.034 21.6346C121.844 20.617 122.249 19.3027 122.249 17.6915C122.249 15.7835 121.844 14.4267 121.034 13.6211C120.267 12.8155 118.989 12.4127 117.199 12.4127H114.897V23.0974ZM103.006 3.89039H121.61C123.869 3.89039 125.786 4.18719 127.363 4.78078C128.983 5.37438 130.283 6.22237 131.263 7.32476C132.286 8.38475 133.01 9.65674 133.437 11.1407C133.906 12.6247 134.14 14.2359 134.14 15.9743C134.14 19.0271 133.522 21.4862 132.286 23.3518C131.05 25.2174 129.068 26.3622 126.341 26.7862V26.9134C129.196 27.1678 131.157 28.1642 132.222 29.9026C133.288 31.641 133.82 34.0365 133.82 37.0893V40.9689C133.82 41.5625 133.82 42.1773 133.82 42.8133C133.82 43.4493 133.842 44.064 133.884 44.6576C133.927 45.2088 133.991 45.7176 134.076 46.184C134.161 46.6504 134.268 47.0108 134.396 47.2652C134.566 47.5196 134.737 47.774 134.907 48.0284C135.078 48.2404 135.355 48.4524 135.738 48.6644V49.3004H123.08C122.782 48.7068 122.547 48.0072 122.377 47.2016C122.249 46.396 122.143 45.5904 122.057 44.7848C122.015 43.9793 121.972 43.2161 121.929 42.4953C121.929 41.7321 121.929 41.1173 121.929 40.6509V37.5981C121.929 36.3261 121.866 35.2661 121.738 34.4181C121.61 33.5701 121.375 32.9129 121.034 32.4465C120.736 31.9378 120.331 31.5986 119.82 31.429C119.351 31.217 118.754 31.111 118.03 31.111H114.897V49.3004H103.006V3.89039ZM153.333 13.1759L150.072 32.4465H156.721L153.461 13.1759H153.333ZM160.876 3.89039L172 49.3004H159.342L158.127 41.3505H148.666L147.451 49.3004H134.985L145.917 3.89039H160.876Z"/>
</mask>
<path d="M22.3477 13.1759L19.0873 32.4465H25.7359L22.4755 13.1759H22.3477ZM29.8913 3.89039L41.015 49.3004H28.357L27.1424 41.3505H17.6809L16.4662 49.3004H4L14.9319 3.89039H29.8913ZM59.4691 16.9919V15.9107C59.4691 14.5539 59.1921 13.4091 58.638 12.4763C58.084 11.5011 57.2316 11.0135 56.0808 11.0135C54.8023 11.0135 53.8646 11.4375 53.268 12.2855C52.6713 13.0911 52.3729 14.0027 52.3729 15.0203C52.3729 16.5043 52.8418 17.6915 53.7794 18.5819C54.7596 19.4299 55.9743 20.1719 57.4234 20.8078C58.8724 21.4438 60.428 22.101 62.0902 22.7794C63.7523 23.4154 65.308 24.2634 66.757 25.3234C68.2061 26.3834 69.3994 27.7826 70.3371 29.521C71.3173 31.217 71.8074 33.4429 71.8074 36.1989C71.8074 41.0325 70.4223 44.5516 67.652 46.7564C64.8818 48.9188 60.8755 50 55.6333 50C53.1614 50 50.9665 49.788 49.0486 49.364C47.1734 48.9824 45.5751 48.304 44.2539 47.3288C42.9753 46.3112 41.9951 44.9968 41.3132 43.3857C40.6313 41.7745 40.2903 39.7817 40.2903 37.4073V35.8173H51.7976V36.8985C51.7976 38.8489 52.1598 40.2269 52.8844 41.0325C53.6089 41.7957 54.5465 42.1773 55.6973 42.1773C56.9332 42.1773 57.8709 41.7533 58.5101 40.9053C59.1921 40.0573 59.533 39.0185 59.533 37.7889C59.533 36.3049 59.0642 35.1389 58.1266 34.2909C57.2316 33.4005 56.0808 32.6585 54.6744 32.065C53.3106 31.429 51.8189 30.793 50.1993 30.157C48.5798 29.521 47.0668 28.6942 45.6604 27.6766C44.2966 26.659 43.1458 25.3234 42.2082 23.6698C41.3132 22.0162 40.8657 19.8539 40.8657 17.1827C40.8657 12.5611 42.1016 9.04195 44.5736 6.62517C47.0455 4.20839 50.796 3 55.8251 3C61.0247 3 64.7752 4.12359 67.0767 6.37077C69.4207 8.57555 70.5928 12.1159 70.5928 16.9919H59.4691ZM80.7645 13.9391H71.9423V3.89039H101.605V13.9391H92.6553V49.3004H80.7645V13.9391ZM114.897 23.0974H117.263C118.967 23.0974 120.225 22.6098 121.034 21.6346C121.844 20.617 122.249 19.3027 122.249 17.6915C122.249 15.7835 121.844 14.4267 121.034 13.6211C120.267 12.8155 118.989 12.4127 117.199 12.4127H114.897V23.0974ZM103.006 3.89039H121.61C123.869 3.89039 125.786 4.18719 127.363 4.78078C128.983 5.37438 130.283 6.22237 131.263 7.32476C132.286 8.38475 133.01 9.65674 133.437 11.1407C133.906 12.6247 134.14 14.2359 134.14 15.9743C134.14 19.0271 133.522 21.4862 132.286 23.3518C131.05 25.2174 129.068 26.3622 126.341 26.7862V26.9134C129.196 27.1678 131.157 28.1642 132.222 29.9026C133.288 31.641 133.82 34.0365 133.82 37.0893V40.9689C133.82 41.5625 133.82 42.1773 133.82 42.8133C133.82 43.4493 133.842 44.064 133.884 44.6576C133.927 45.2088 133.991 45.7176 134.076 46.184C134.161 46.6504 134.268 47.0108 134.396 47.2652C134.566 47.5196 134.737 47.774 134.907 48.0284C135.078 48.2404 135.355 48.4524 135.738 48.6644V49.3004H123.08C122.782 48.7068 122.547 48.0072 122.377 47.2016C122.249 46.396 122.143 45.5904 122.057 44.7848C122.015 43.9793 121.972 43.2161 121.929 42.4953C121.929 41.7321 121.929 41.1173 121.929 40.6509V37.5981C121.929 36.3261 121.866 35.2661 121.738 34.4181C121.61 33.5701 121.375 32.9129 121.034 32.4465C120.736 31.9378 120.331 31.5986 119.82 31.429C119.351 31.217 118.754 31.111 118.03 31.111H114.897V49.3004H103.006V3.89039ZM153.333 13.1759L150.072 32.4465H156.721L153.461 13.1759H153.333ZM160.876 3.89039L172 49.3004H159.342L158.127 41.3505H148.666L147.451 49.3004H134.985L145.917 3.89039H160.876Z" stroke="white" stroke-width="6" mask="url(#path-1-outside-1_405_6)"/>
<path d="M120.314 60.4961C120.314 60.7275 120.319 60.9196 120.329 61.0722C120.338 61.2247 120.355 61.3484 120.38 61.4431C120.409 61.5325 120.448 61.5956 120.497 61.6325C120.545 61.6693 120.606 61.6877 120.679 61.6877C120.757 61.6877 120.82 61.6693 120.869 61.6325C120.918 61.5956 120.954 61.5325 120.978 61.4431C121.008 61.3484 121.027 61.2247 121.037 61.0722C121.047 60.9196 121.051 60.7275 121.051 60.4961C121.051 60.2646 121.047 60.0752 121.037 59.9278C121.027 59.7753 121.008 59.6543 120.978 59.5648C120.954 59.4701 120.918 59.4044 120.869 59.3675C120.82 59.3307 120.757 59.3123 120.679 59.3123C120.606 59.3123 120.545 59.3307 120.497 59.3675C120.448 59.4044 120.409 59.4701 120.38 59.5648C120.355 59.6543 120.338 59.7753 120.329 59.9278C120.319 60.0752 120.314 60.2646 120.314 60.4961ZM119 58.3653H120.27V58.9493H120.285C120.436 58.4863 120.735 58.2548 121.183 58.2548C121.621 58.2548 121.928 58.4468 122.103 58.8309C122.278 59.215 122.366 59.8016 122.366 60.5908C122.366 61.0011 122.336 61.3431 122.278 61.6167C122.22 61.8903 122.137 62.1112 122.03 62.2796C121.928 62.4427 121.801 62.5584 121.65 62.6268C121.504 62.69 121.339 62.7215 121.154 62.7215C120.969 62.7215 120.801 62.6821 120.65 62.6032C120.504 62.5242 120.397 62.3743 120.329 62.1533H120.314V64H119V58.3653Z" fill="white"/>
<path d="M124.545 59.7779C124.545 59.5517 124.518 59.3859 124.465 59.2807C124.416 59.1755 124.321 59.1229 124.18 59.1229C124.044 59.1229 123.949 59.1755 123.895 59.2807C123.847 59.3859 123.822 59.5517 123.822 59.7779V59.9673H124.545V59.7779ZM123.822 60.7407V61.301C123.822 61.5325 123.859 61.6877 123.932 61.7666C124.005 61.8403 124.087 61.8771 124.18 61.8771C124.297 61.8771 124.387 61.8271 124.45 61.7272C124.518 61.6219 124.552 61.4247 124.552 61.1353H125.735C125.725 61.6614 125.601 62.0586 125.363 62.3269C125.124 62.59 124.732 62.7215 124.187 62.7215C123.871 62.7215 123.606 62.6847 123.391 62.611C123.177 62.5321 123.005 62.4059 122.873 62.2322C122.742 62.0534 122.647 61.8219 122.588 61.5378C122.535 61.2537 122.508 60.9091 122.508 60.5039C122.508 60.0936 122.54 59.7463 122.603 59.4622C122.666 59.1781 122.766 58.9466 122.902 58.7678C123.039 58.5889 123.211 58.46 123.421 58.3811C123.635 58.2969 123.89 58.2548 124.187 58.2548C124.45 58.2548 124.679 58.289 124.874 58.3574C125.073 58.4258 125.239 58.5415 125.37 58.7046C125.506 58.8625 125.606 59.0729 125.669 59.336C125.737 59.5938 125.771 59.9173 125.771 60.3067V60.7407H123.822Z" fill="white"/>
<path d="M125.957 58.3653H127.228V59.044H127.242C127.315 58.7862 127.432 58.5915 127.593 58.46C127.753 58.3232 127.931 58.2548 128.125 58.2548H128.337V59.5806C128.279 59.5701 128.223 59.5622 128.169 59.5569C128.116 59.5517 128.062 59.549 128.009 59.549C127.775 59.549 127.593 59.6043 127.461 59.7148C127.335 59.8253 127.271 60.0225 127.271 60.3067V62.6347H125.957V58.3653Z" fill="white"/>
<path d="M131.596 61.7903C131.742 61.7903 131.846 61.7324 131.91 61.6167C131.973 61.5009 132.004 61.3247 132.004 61.0879V60.575H131.99C131.951 60.6328 131.89 60.6697 131.807 60.6855C131.729 60.696 131.642 60.7249 131.545 60.7723C131.442 60.8249 131.372 60.8959 131.333 60.9853C131.294 61.0695 131.274 61.1826 131.274 61.3247C131.274 61.4667 131.304 61.5799 131.362 61.664C131.42 61.7482 131.498 61.7903 131.596 61.7903ZM132.085 62.6347C132.06 62.5611 132.043 62.4848 132.034 62.4059C132.024 62.3269 132.014 62.2428 132.004 62.1533H131.99C131.917 62.3427 131.8 62.4848 131.639 62.5795C131.484 62.6742 131.304 62.7215 131.099 62.7215C130.9 62.7215 130.729 62.6926 130.588 62.6347C130.452 62.5821 130.34 62.5006 130.252 62.3901C130.165 62.2796 130.101 62.1481 130.063 61.9955C130.024 61.8429 130.004 61.6746 130.004 61.4904C130.004 61.2905 130.021 61.1169 130.055 60.9696C130.094 60.8222 130.155 60.696 130.238 60.5908C130.32 60.4803 130.432 60.3882 130.574 60.3145C130.715 60.2356 130.89 60.1699 131.099 60.1172L131.618 59.9831C131.759 59.9463 131.858 59.8936 131.917 59.8253C131.975 59.7516 132.004 59.649 132.004 59.5175C132.004 59.2544 131.893 59.1229 131.669 59.1229C131.542 59.1229 131.45 59.1623 131.391 59.2413C131.333 59.3149 131.301 59.4649 131.296 59.6911H130.157C130.157 59.3807 130.209 59.1334 130.311 58.9493C130.413 58.7599 130.539 58.6152 130.69 58.5152C130.841 58.41 131.004 58.3416 131.18 58.31C131.355 58.2732 131.518 58.2548 131.669 58.2548C131.897 58.2548 132.107 58.2758 132.296 58.3179C132.491 58.3548 132.657 58.4258 132.793 58.531C132.934 58.631 133.041 58.7704 133.114 58.9493C133.192 59.1229 133.231 59.3491 133.231 59.628V61.7114C133.231 61.9113 133.238 62.0876 133.253 62.2401C133.267 62.3927 133.302 62.5242 133.355 62.6347H132.085Z" fill="white"/>
<path d="M134.684 61.3089C134.684 61.3931 134.691 61.472 134.706 61.5457C134.72 61.6193 134.745 61.6798 134.779 61.7272C134.842 61.8271 134.934 61.8771 135.056 61.8771C135.158 61.8771 135.246 61.8455 135.319 61.7824C135.397 61.7193 135.436 61.6298 135.436 61.5141C135.436 61.3878 135.387 61.2905 135.29 61.2221C135.197 61.1537 135.08 61.0932 134.939 61.0406C134.798 60.988 134.645 60.9327 134.479 60.8749C134.319 60.817 134.168 60.7381 134.027 60.6381C133.886 60.5381 133.766 60.4066 133.669 60.2435C133.577 60.0752 133.53 59.8568 133.53 59.5885C133.53 59.3991 133.562 59.2255 133.625 59.0676C133.688 58.9045 133.783 58.7625 133.91 58.6415C134.041 58.5205 134.204 58.4258 134.399 58.3574C134.599 58.289 134.832 58.2548 135.1 58.2548C136.088 58.2548 136.582 58.702 136.582 59.5964H135.443C135.443 59.4123 135.411 59.2886 135.348 59.2255C135.29 59.1571 135.205 59.1229 135.093 59.1229C134.995 59.1229 134.915 59.1518 134.852 59.2097C134.788 59.2676 134.757 59.3491 134.757 59.4543C134.757 59.5753 134.803 59.6674 134.895 59.7306C134.993 59.7884 135.112 59.841 135.253 59.8884C135.394 59.9357 135.545 59.9857 135.706 60.0383C135.871 60.0909 136.025 60.1672 136.166 60.2672C136.307 60.3619 136.424 60.4934 136.516 60.6618C136.614 60.8249 136.662 61.0432 136.662 61.3168C136.662 61.5272 136.626 61.7193 136.553 61.8929C136.48 62.0665 136.375 62.2165 136.239 62.3427C136.107 62.469 135.942 62.5637 135.742 62.6268C135.548 62.69 135.326 62.7215 135.078 62.7215C134.528 62.7215 134.131 62.6032 133.888 62.3664C133.65 62.1297 133.53 61.7772 133.53 61.3089H134.684Z" fill="white"/>
<path d="M138.238 60.4961C138.238 60.7275 138.243 60.9196 138.253 61.0722C138.263 61.2247 138.28 61.3484 138.304 61.4431C138.333 61.5325 138.372 61.5956 138.421 61.6325C138.469 61.6693 138.53 61.6877 138.603 61.6877C138.681 61.6877 138.744 61.6693 138.793 61.6325C138.842 61.5956 138.878 61.5325 138.903 61.4431C138.932 61.3484 138.951 61.2247 138.961 61.0722C138.971 60.9196 138.976 60.7275 138.976 60.4961C138.976 60.2646 138.971 60.0752 138.961 59.9278C138.951 59.7753 138.932 59.6543 138.903 59.5648C138.878 59.4701 138.842 59.4044 138.793 59.3675C138.744 59.3307 138.681 59.3123 138.603 59.3123C138.53 59.3123 138.469 59.3307 138.421 59.3675C138.372 59.4044 138.333 59.4701 138.304 59.5648C138.28 59.6543 138.263 59.7753 138.253 59.9278C138.243 60.0752 138.238 60.2646 138.238 60.4961ZM136.924 58.3653H138.195V58.9493H138.209C138.36 58.4863 138.659 58.2548 139.107 58.2548C139.545 58.2548 139.852 58.4468 140.027 58.8309C140.202 59.215 140.29 59.8016 140.29 60.5908C140.29 61.0011 140.261 61.3431 140.202 61.6167C140.144 61.8903 140.061 62.1112 139.954 62.2796C139.852 62.4427 139.725 62.5584 139.574 62.6268C139.428 62.69 139.263 62.7215 139.078 62.7215C138.893 62.7215 138.725 62.6821 138.574 62.6032C138.428 62.5242 138.321 62.3743 138.253 62.1533H138.238V64H136.924V58.3653Z" fill="white"/>
<path d="M142.469 59.7779C142.469 59.5517 142.442 59.3859 142.389 59.2807C142.34 59.1755 142.245 59.1229 142.104 59.1229C141.968 59.1229 141.873 59.1755 141.819 59.2807C141.771 59.3859 141.746 59.5517 141.746 59.7779V59.9673H142.469V59.7779ZM141.746 60.7407V61.301C141.746 61.5325 141.783 61.6877 141.856 61.7666C141.929 61.8403 142.012 61.8771 142.104 61.8771C142.221 61.8771 142.311 61.8271 142.374 61.7272C142.442 61.6219 142.476 61.4247 142.476 61.1353H143.659C143.649 61.6614 143.525 62.0586 143.287 62.3269C143.048 62.59 142.657 62.7215 142.111 62.7215C141.795 62.7215 141.53 62.6847 141.316 62.611C141.102 62.5321 140.929 62.4059 140.797 62.2322C140.666 62.0534 140.571 61.8219 140.513 61.5378C140.459 61.2537 140.432 60.9091 140.432 60.5039C140.432 60.0936 140.464 59.7463 140.527 59.4622C140.591 59.1781 140.69 58.9466 140.827 58.7678C140.963 58.5889 141.136 58.46 141.345 58.3811C141.559 58.2969 141.815 58.2548 142.111 58.2548C142.374 58.2548 142.603 58.289 142.798 58.3574C142.997 58.4258 143.163 58.5415 143.294 58.7046C143.43 58.8625 143.53 59.0729 143.593 59.336C143.662 59.5938 143.696 59.9173 143.696 60.3067V60.7407H141.746Z" fill="white"/>
<path d="M143.881 58.3653H145.152V59.044H145.166C145.239 58.7862 145.356 58.5915 145.517 58.46C145.677 58.3232 145.855 58.2548 146.05 58.2548H146.261V59.5806C146.203 59.5701 146.147 59.5622 146.094 59.5569C146.04 59.5517 145.986 59.549 145.933 59.549C145.699 59.549 145.517 59.6043 145.385 59.7148C145.259 59.8253 145.196 60.0225 145.196 60.3067V62.6347H143.881V58.3653Z" fill="white"/>
<path d="M147.769 61.7903C147.915 61.7903 148.02 61.7324 148.083 61.6167C148.147 61.5009 148.178 61.3247 148.178 61.0879V60.575H148.164C148.125 60.6328 148.064 60.6697 147.981 60.6855C147.903 60.696 147.816 60.7249 147.718 60.7723C147.616 60.8249 147.546 60.8959 147.507 60.9853C147.468 61.0695 147.448 61.1826 147.448 61.3247C147.448 61.4667 147.477 61.5799 147.536 61.664C147.594 61.7482 147.672 61.7903 147.769 61.7903ZM148.259 62.6347C148.234 62.5611 148.217 62.4848 148.207 62.4059C148.198 62.3269 148.188 62.2428 148.178 62.1533H148.164C148.091 62.3427 147.974 62.4848 147.813 62.5795C147.657 62.6742 147.477 62.7215 147.273 62.7215C147.073 62.7215 146.903 62.6926 146.762 62.6347C146.626 62.5821 146.514 62.5006 146.426 62.3901C146.339 62.2796 146.275 62.1481 146.236 61.9955C146.197 61.8429 146.178 61.6746 146.178 61.4904C146.178 61.2905 146.195 61.1169 146.229 60.9696C146.268 60.8222 146.329 60.696 146.412 60.5908C146.494 60.4803 146.606 60.3882 146.747 60.3145C146.889 60.2356 147.064 60.1699 147.273 60.1172L147.791 59.9831C147.932 59.9463 148.032 59.8936 148.091 59.8253C148.149 59.7516 148.178 59.649 148.178 59.5175C148.178 59.2544 148.066 59.1229 147.842 59.1229C147.716 59.1229 147.623 59.1623 147.565 59.2413C147.507 59.3149 147.475 59.4649 147.47 59.6911H146.331C146.331 59.3807 146.382 59.1334 146.485 58.9493C146.587 58.7599 146.713 58.6152 146.864 58.5152C147.015 58.41 147.178 58.3416 147.353 58.31C147.529 58.2732 147.692 58.2548 147.842 58.2548C148.071 58.2548 148.28 58.2758 148.47 58.3179C148.665 58.3548 148.83 58.4258 148.967 58.531C149.108 58.631 149.215 58.7704 149.288 58.9493C149.366 59.1229 149.405 59.3491 149.405 59.628V61.7114C149.405 61.9113 149.412 62.0876 149.427 62.2401C149.441 62.3927 149.475 62.5242 149.529 62.6347H148.259Z" fill="white"/>
<path d="M153.024 61.7903C153.17 61.7903 153.275 61.7324 153.338 61.6167C153.401 61.5009 153.433 61.3247 153.433 61.0879V60.575H153.418C153.379 60.6328 153.319 60.6697 153.236 60.6855C153.158 60.696 153.07 60.7249 152.973 60.7723C152.871 60.8249 152.8 60.8959 152.761 60.9853C152.722 61.0695 152.703 61.1826 152.703 61.3247C152.703 61.4667 152.732 61.5799 152.79 61.664C152.849 61.7482 152.927 61.7903 153.024 61.7903ZM153.513 62.6347C153.489 62.5611 153.472 62.4848 153.462 62.4059C153.452 62.3269 153.443 62.2428 153.433 62.1533H153.418C153.345 62.3427 153.229 62.4848 153.068 62.5795C152.912 62.6742 152.732 62.7215 152.528 62.7215C152.328 62.7215 152.158 62.6926 152.017 62.6347C151.88 62.5821 151.768 62.5006 151.681 62.3901C151.593 62.2796 151.53 62.1481 151.491 61.9955C151.452 61.8429 151.433 61.6746 151.433 61.4904C151.433 61.2905 151.45 61.1169 151.484 60.9696C151.523 60.8222 151.583 60.696 151.666 60.5908C151.749 60.4803 151.861 60.3882 152.002 60.3145C152.143 60.2356 152.318 60.1699 152.528 60.1172L153.046 59.9831C153.187 59.9463 153.287 59.8936 153.345 59.8253C153.404 59.7516 153.433 59.649 153.433 59.5175C153.433 59.2544 153.321 59.1229 153.097 59.1229C152.971 59.1229 152.878 59.1623 152.82 59.2413C152.761 59.3149 152.73 59.4649 152.725 59.6911H151.586C151.586 59.3807 151.637 59.1334 151.739 58.9493C151.841 58.7599 151.968 58.6152 152.119 58.5152C152.27 58.41 152.433 58.3416 152.608 58.31C152.783 58.2732 152.946 58.2548 153.097 58.2548C153.326 58.2548 153.535 58.2758 153.725 58.3179C153.92 58.3548 154.085 58.4258 154.221 58.531C154.363 58.631 154.47 58.7704 154.543 58.9493C154.62 59.1229 154.659 59.3491 154.659 59.628V61.7114C154.659 61.9113 154.667 62.0876 154.681 62.2401C154.696 62.3927 154.73 62.5242 154.784 62.6347H153.513Z" fill="white"/>
<path d="M156.295 60.5039C156.295 60.7302 156.3 60.9196 156.309 61.0722C156.319 61.2247 156.336 61.3484 156.36 61.4431C156.39 61.5325 156.429 61.5956 156.477 61.6325C156.526 61.6693 156.589 61.6877 156.667 61.6877C156.74 61.6877 156.801 61.6693 156.85 61.6325C156.898 61.5956 156.935 61.5325 156.959 61.4431C156.988 61.3484 157.008 61.2247 157.017 61.0722C157.027 60.9196 157.032 60.7302 157.032 60.5039C157.032 60.2725 157.027 60.0804 157.017 59.9278C157.008 59.7753 156.988 59.6543 156.959 59.5648C156.935 59.4701 156.898 59.4044 156.85 59.3675C156.801 59.3307 156.74 59.3123 156.667 59.3123C156.589 59.3123 156.526 59.3307 156.477 59.3675C156.429 59.4044 156.39 59.4701 156.36 59.5648C156.336 59.6543 156.319 59.7753 156.309 59.9278C156.3 60.0804 156.295 60.2725 156.295 60.5039ZM157.032 57H158.346V62.6347H157.076V62.0507H157.061C156.979 62.2875 156.867 62.4585 156.725 62.5637C156.584 62.6689 156.397 62.7215 156.163 62.7215C155.725 62.7215 155.419 62.5348 155.243 62.1612C155.068 61.7877 154.981 61.2037 154.981 60.4092C154.981 60.0041 155.01 59.6648 155.068 59.3912C155.127 59.1176 155.207 58.8967 155.309 58.7283C155.416 58.5599 155.545 58.4389 155.696 58.3653C155.847 58.2916 156.012 58.2548 156.193 58.2548C156.377 58.2548 156.543 58.2995 156.689 58.389C156.84 58.4731 156.949 58.6257 157.017 58.8467H157.032V57Z" fill="white"/>
<path d="M161.926 61.7903C162.072 61.7903 162.176 61.7324 162.24 61.6167C162.303 61.5009 162.334 61.3247 162.334 61.0879V60.575H162.32C162.281 60.6328 162.22 60.6697 162.137 60.6855C162.059 60.696 161.972 60.7249 161.875 60.7723C161.772 60.8249 161.702 60.8959 161.663 60.9853C161.624 61.0695 161.604 61.1826 161.604 61.3247C161.604 61.4667 161.634 61.5799 161.692 61.664C161.75 61.7482 161.828 61.7903 161.926 61.7903ZM162.415 62.6347C162.39 62.5611 162.373 62.4848 162.364 62.4059C162.354 62.3269 162.344 62.2428 162.334 62.1533H162.32C162.247 62.3427 162.13 62.4848 161.969 62.5795C161.814 62.6742 161.634 62.7215 161.429 62.7215C161.23 62.7215 161.059 62.6926 160.918 62.6347C160.782 62.5821 160.67 62.5006 160.582 62.3901C160.495 62.2796 160.431 62.1481 160.393 61.9955C160.354 61.8429 160.334 61.6746 160.334 61.4904C160.334 61.2905 160.351 61.1169 160.385 60.9696C160.424 60.8222 160.485 60.696 160.568 60.5908C160.65 60.4803 160.762 60.3882 160.904 60.3145C161.045 60.2356 161.22 60.1699 161.429 60.1172L161.948 59.9831C162.089 59.9463 162.188 59.8936 162.247 59.8253C162.305 59.7516 162.334 59.649 162.334 59.5175C162.334 59.2544 162.223 59.1229 161.999 59.1229C161.872 59.1229 161.78 59.1623 161.721 59.2413C161.663 59.3149 161.631 59.4649 161.626 59.6911H160.487C160.487 59.3807 160.539 59.1334 160.641 58.9493C160.743 58.7599 160.869 58.6152 161.02 58.5152C161.171 58.41 161.334 58.3416 161.509 58.31C161.685 58.2732 161.848 58.2548 161.999 58.2548C162.227 58.2548 162.437 58.2758 162.626 58.3179C162.821 58.3548 162.987 58.4258 163.123 58.531C163.264 58.631 163.371 58.7704 163.444 58.9493C163.522 59.1229 163.561 59.3491 163.561 59.628V61.7114C163.561 61.9113 163.568 62.0876 163.583 62.2401C163.597 62.3927 163.632 62.5242 163.685 62.6347H162.415Z" fill="white"/>
<path d="M165.014 61.3089C165.014 61.3931 165.021 61.472 165.036 61.5457C165.05 61.6193 165.075 61.6798 165.109 61.7272C165.172 61.8271 165.264 61.8771 165.386 61.8771C165.488 61.8771 165.576 61.8455 165.649 61.7824C165.727 61.7193 165.766 61.6298 165.766 61.5141C165.766 61.3878 165.717 61.2905 165.62 61.2221C165.527 61.1537 165.41 61.0932 165.269 61.0406C165.128 60.988 164.975 60.9327 164.809 60.8749C164.649 60.817 164.498 60.7381 164.357 60.6381C164.216 60.5381 164.096 60.4066 163.999 60.2435C163.906 60.0752 163.86 59.8568 163.86 59.5885C163.86 59.3991 163.892 59.2255 163.955 59.0676C164.018 58.9045 164.113 58.7625 164.24 58.6415C164.371 58.5205 164.534 58.4258 164.729 58.3574C164.929 58.289 165.162 58.2548 165.43 58.2548C166.418 58.2548 166.912 58.702 166.912 59.5964H165.773C165.773 59.4123 165.741 59.2886 165.678 59.2255C165.62 59.1571 165.535 59.1229 165.423 59.1229C165.325 59.1229 165.245 59.1518 165.182 59.2097C165.118 59.2676 165.087 59.3491 165.087 59.4543C165.087 59.5753 165.133 59.6674 165.225 59.7306C165.323 59.7884 165.442 59.841 165.583 59.8884C165.724 59.9357 165.875 59.9857 166.036 60.0383C166.201 60.0909 166.355 60.1672 166.496 60.2672C166.637 60.3619 166.754 60.4934 166.846 60.6618C166.944 60.8249 166.992 61.0432 166.992 61.3168C166.992 61.5272 166.956 61.7193 166.883 61.8929C166.81 62.0665 166.705 62.2165 166.569 62.3427C166.437 62.469 166.272 62.5637 166.072 62.6268C165.878 62.69 165.656 62.7215 165.408 62.7215C164.858 62.7215 164.461 62.6032 164.218 62.3664C163.979 62.1297 163.86 61.7772 163.86 61.3089H165.014Z" fill="white"/>
<path d="M166.984 58.3653H167.422V57.1105H168.736V58.3653H169.255V59.3202H168.736V61.3563C168.736 61.4773 168.761 61.5641 168.809 61.6167C168.863 61.664 168.943 61.6877 169.05 61.6877H169.255V62.6347C169.133 62.6347 169.011 62.6374 168.89 62.6426C168.768 62.6531 168.651 62.6584 168.539 62.6584C168.34 62.6584 168.169 62.6505 168.028 62.6347C167.887 62.6137 167.77 62.5663 167.678 62.4927C167.59 62.419 167.524 62.3112 167.481 62.1691C167.442 62.0218 167.422 61.8298 167.422 61.593V59.3202H166.984V58.3653Z" fill="white"/>
<path d="M169.353 58.3653H170.623V59.044H170.637C170.71 58.7862 170.827 58.5915 170.988 58.46C171.149 58.3232 171.326 58.2548 171.521 58.2548H171.733V59.5806C171.674 59.5701 171.618 59.5622 171.565 59.5569C171.511 59.5517 171.458 59.549 171.404 59.549C171.17 59.549 170.988 59.6043 170.856 59.7148C170.73 59.8253 170.667 60.0225 170.667 60.3067V62.6347H169.353V58.3653Z" fill="white"/>
<path d="M173.241 61.7903C173.387 61.7903 173.491 61.7324 173.554 61.6167C173.618 61.5009 173.649 61.3247 173.649 61.0879V60.575H173.635C173.596 60.6328 173.535 60.6697 173.452 60.6855C173.374 60.696 173.287 60.7249 173.189 60.7723C173.087 60.8249 173.017 60.8959 172.978 60.9853C172.939 61.0695 172.919 61.1826 172.919 61.3247C172.919 61.4667 172.949 61.5799 173.007 61.664C173.065 61.7482 173.143 61.7903 173.241 61.7903ZM173.73 62.6347C173.705 62.5611 173.688 62.4848 173.679 62.4059C173.669 62.3269 173.659 62.2428 173.649 62.1533H173.635C173.562 62.3427 173.445 62.4848 173.284 62.5795C173.129 62.6742 172.949 62.7215 172.744 62.7215C172.545 62.7215 172.374 62.6926 172.233 62.6347C172.097 62.5821 171.985 62.5006 171.897 62.3901C171.81 62.2796 171.746 62.1481 171.707 61.9955C171.669 61.8429 171.649 61.6746 171.649 61.4904C171.649 61.2905 171.666 61.1169 171.7 60.9696C171.739 60.8222 171.8 60.696 171.883 60.5908C171.965 60.4803 172.077 60.3882 172.219 60.3145C172.36 60.2356 172.535 60.1699 172.744 60.1172L173.262 59.9831C173.404 59.9463 173.503 59.8936 173.562 59.8253C173.62 59.7516 173.649 59.649 173.649 59.5175C173.649 59.2544 173.537 59.1229 173.314 59.1229C173.187 59.1229 173.095 59.1623 173.036 59.2413C172.978 59.3149 172.946 59.4649 172.941 59.6911H171.802C171.802 59.3807 171.853 59.1334 171.956 58.9493C172.058 58.7599 172.184 58.6152 172.335 58.5152C172.486 58.41 172.649 58.3416 172.824 58.31C173 58.2732 173.163 58.2548 173.314 58.2548C173.542 58.2548 173.752 58.2758 173.941 58.3179C174.136 58.3548 174.302 58.4258 174.438 58.531C174.579 58.631 174.686 58.7704 174.759 58.9493C174.837 59.1229 174.876 59.3491 174.876 59.628V61.7114C174.876 61.9113 174.883 62.0876 174.898 62.2401C174.912 62.3927 174.946 62.5242 175 62.6347H173.73Z" fill="white"/>
</svg>
