<svg width="145" height="45" viewBox="0 0 145 45" fill="none" xmlns="http://www.w3.org/2000/svg">
<path d="M122.5 6.09143L125.901 15.8755L126.358 17.1901L127.749 17.2184L138.105 17.4295L129.851 23.6874L128.742 24.5282L129.145 25.8603L132.145 35.7748L123.642 29.8584L122.5 29.0634L121.358 29.8584L112.855 35.7748L115.855 25.8603L116.258 24.5282L115.149 23.6874L106.895 17.4295L117.251 17.2184L118.642 17.1901L119.099 15.8755L122.5 6.09143Z" stroke="white" stroke-width="4"/>
<path d="M16.704 27.088L13.392 11.68H13.296L9.984 27.088H16.704ZM17.616 5.728L26.688 40H19.488L17.904 32.752H8.784L7.2 40H0L9.072 5.728H17.616ZM34.6399 29.296V30.304C34.6399 31.104 34.7039 31.84 34.8319 32.512C34.9599 33.152 35.1999 33.696 35.5519 34.144C35.9039 34.592 36.3679 34.944 36.9439 35.2C37.5519 35.456 38.3039 35.584 39.1999 35.584C40.2559 35.584 41.1999 35.248 42.0319 34.576C42.8959 33.872 43.3279 32.8 43.3279 31.36C43.3279 30.592 43.2159 29.936 42.9919 29.392C42.7999 28.816 42.4639 28.304 41.9839 27.856C41.5039 27.408 40.8639 27.008 40.0639 26.656C39.2959 26.272 38.3359 25.888 37.1839 25.504C35.6479 24.992 34.3199 24.432 33.1999 23.824C32.0799 23.216 31.1359 22.512 30.3679 21.712C29.6319 20.88 29.0879 19.936 28.7359 18.88C28.3839 17.792 28.2079 16.544 28.2079 15.136C28.2079 11.744 29.1519 9.216 31.0399 7.552C32.9279 5.888 35.5199 5.056 38.8159 5.056C40.3519 5.056 41.7599 5.232 43.0399 5.584C44.3519 5.904 45.4719 6.448 46.3999 7.216C47.3599 7.952 48.0959 8.912 48.6079 10.096C49.1519 11.248 49.4239 12.64 49.4239 14.272V15.232H42.7999C42.7999 13.6 42.5119 12.352 41.9359 11.488C41.3599 10.592 40.3999 10.144 39.0559 10.144C38.2879 10.144 37.6479 10.256 37.1359 10.48C36.6239 10.704 36.2079 11.008 35.8879 11.392C35.5999 11.744 35.3919 12.16 35.2639 12.64C35.1679 13.12 35.1199 13.616 35.1199 14.128C35.1199 15.184 35.3439 16.08 35.7919 16.816C36.2399 17.52 37.1999 18.176 38.6719 18.784L43.9999 21.088C45.3119 21.664 46.3839 22.272 47.2159 22.912C48.0479 23.52 48.7039 24.192 49.1839 24.928C49.6959 25.632 50.0479 26.416 50.2399 27.28C50.4319 28.144 50.5279 29.104 50.5279 30.16C50.5279 33.776 49.4719 36.416 47.3599 38.08C45.2799 39.712 42.3679 40.528 38.6239 40.528C34.7199 40.528 31.9199 39.68 30.2239 37.984C28.5599 36.288 27.7279 33.856 27.7279 30.688V29.296H34.6399ZM74.0265 5.728V11.392H66.5385V40H59.6265V11.392H52.1385V5.728H74.0265ZM77.025 5.728H89.793C92.673 5.728 94.913 6.464 96.513 7.936C98.113 9.376 98.913 11.584 98.913 14.56C98.913 16.864 98.449 18.752 97.521 20.224C96.593 21.664 95.153 22.592 93.201 23.008V23.104C94.929 23.36 96.193 23.92 96.993 24.784C97.793 25.648 98.289 27.04 98.481 28.96C98.545 29.6 98.593 30.304 98.625 31.072C98.657 31.808 98.689 32.64 98.721 33.568C98.785 35.392 98.881 36.784 99.009 37.744C99.201 38.704 99.617 39.36 100.257 39.712V40H92.769C92.417 39.52 92.193 38.976 92.097 38.368C92.001 37.728 91.937 37.072 91.905 36.4L91.713 29.824C91.649 28.48 91.313 27.424 90.705 26.656C90.097 25.888 89.073 25.504 87.633 25.504H83.937V40H77.025V5.728ZM83.937 20.704H86.817C88.481 20.704 89.761 20.32 90.657 19.552C91.553 18.752 92.001 17.424 92.001 15.568C92.001 12.4 90.401 10.816 87.201 10.816H83.937V20.704Z" fill="white"/>
</svg>
