<svg width="168" height="57" viewBox="0 0 168 57" fill="none" xmlns="http://www.w3.org/2000/svg">
<path d="M18.3477 10.1759L15.0873 29.4465H21.7359L18.4755 10.1759H18.3477ZM25.8913 0.890392L37.015 46.3004H24.357L23.1424 38.3505H13.6809L12.4662 46.3004H0L10.9319 0.890392H25.8913ZM55.4691 13.9919V12.9107C55.4691 11.5539 55.1921 10.4091 54.638 9.47632C54.084 8.50113 53.2316 8.01353 52.0808 8.01353C50.8023 8.01353 49.8646 8.43753 49.268 9.28552C48.6713 10.0911 48.3729 11.0027 48.3729 12.0203C48.3729 13.5043 48.8418 14.6915 49.7794 15.5819C50.7596 16.4299 51.9743 17.1719 53.4234 17.8078C54.8724 18.4438 56.428 19.101 58.0902 19.7794C59.7523 20.4154 61.308 21.2634 62.757 22.3234C64.2061 23.3834 65.3994 24.7826 66.3371 26.521C67.3173 28.217 67.8074 30.4429 67.8074 33.1989C67.8074 38.0325 66.4223 41.5516 63.652 43.7564C60.8818 45.9188 56.8755 47 51.6333 47C49.1614 47 46.9665 46.788 45.0486 46.364C43.1734 45.9824 41.5751 45.304 40.2539 44.3288C38.9753 43.3112 37.9951 41.9968 37.3132 40.3857C36.6313 38.7745 36.2903 36.7817 36.2903 34.4073V32.8173H47.7976V33.8985C47.7976 35.8489 48.1598 37.2269 48.8844 38.0325C49.6089 38.7957 50.5465 39.1773 51.6973 39.1773C52.9332 39.1773 53.8709 38.7533 54.5101 37.9053C55.1921 37.0573 55.533 36.0185 55.533 34.7889C55.533 33.3049 55.0642 32.1389 54.1266 31.2909C53.2316 30.4005 52.0808 29.6585 50.6744 29.065C49.3106 28.429 47.8189 27.793 46.1993 27.157C44.5798 26.521 43.0668 25.6942 41.6604 24.6766C40.2966 23.659 39.1458 22.3234 38.2082 20.6698C37.3132 19.0162 36.8657 16.8539 36.8657 14.1827C36.8657 9.56112 38.1017 6.04195 40.5736 3.62517C43.0455 1.20839 46.796 0 51.8251 0C57.0247 0 60.7752 1.12359 63.0767 3.37077C65.4207 5.57555 66.5928 9.11592 66.5928 13.9919H55.4691ZM76.7645 10.9391H67.9423V0.890392H97.6054V10.9391H88.6553V46.3004H76.7645V10.9391ZM110.897 20.0974H113.263C114.967 20.0974 116.225 19.6098 117.034 18.6346C117.844 17.6171 118.249 16.3027 118.249 14.6915C118.249 12.7835 117.844 11.4267 117.034 10.6211C116.267 9.81551 114.989 9.41272 113.199 9.41272H110.897V20.0974ZM99.0064 0.890392H117.61C119.869 0.890392 121.786 1.18719 123.363 1.78078C124.983 2.37438 126.283 3.22237 127.263 4.32476C128.286 5.38475 129.01 6.65674 129.437 8.14073C129.906 9.62472 130.14 11.2359 130.14 12.9743C130.14 16.0271 129.522 18.4862 128.286 20.3518C127.05 22.2174 125.068 23.3622 122.341 23.7862V23.9134C125.196 24.1678 127.157 25.1642 128.222 26.9026C129.288 28.641 129.82 31.0365 129.82 34.0893V37.9689C129.82 38.5625 129.82 39.1773 129.82 39.8133C129.82 40.4493 129.842 41.064 129.884 41.6576C129.927 42.2088 129.991 42.7176 130.076 43.184C130.161 43.6504 130.268 44.0108 130.396 44.2652C130.566 44.5196 130.737 44.774 130.907 45.0284C131.078 45.2404 131.355 45.4524 131.738 45.6644V46.3004H119.08C118.782 45.7068 118.547 45.0072 118.377 44.2016C118.249 43.396 118.143 42.5904 118.057 41.7848C118.015 40.9793 117.972 40.2161 117.929 39.4953C117.929 38.7321 117.929 38.1173 117.929 37.6509V34.5981C117.929 33.3261 117.866 32.2661 117.738 31.4181C117.61 30.5701 117.375 29.9129 117.034 29.4465C116.736 28.9378 116.331 28.5986 115.82 28.429C115.351 28.217 114.754 28.111 114.03 28.111H110.897V46.3004H99.0064V0.890392ZM149.333 10.1759L146.072 29.4465H152.721L149.461 10.1759H149.333ZM156.876 0.890392L168 46.3004H155.342L154.127 38.3505H144.666L143.451 46.3004H130.985L141.917 0.890392H156.876Z" fill="white"/>
<path d="M113.314 53.4961C113.314 53.7275 113.319 53.9196 113.329 54.0722C113.338 54.2247 113.355 54.3484 113.38 54.4431C113.409 54.5325 113.448 54.5956 113.497 54.6325C113.545 54.6693 113.606 54.6877 113.679 54.6877C113.757 54.6877 113.82 54.6693 113.869 54.6325C113.918 54.5956 113.954 54.5325 113.978 54.4431C114.008 54.3484 114.027 54.2247 114.037 54.0722C114.047 53.9196 114.051 53.7275 114.051 53.4961C114.051 53.2646 114.047 53.0752 114.037 52.9278C114.027 52.7753 114.008 52.6543 113.978 52.5648C113.954 52.4701 113.918 52.4044 113.869 52.3675C113.82 52.3307 113.757 52.3123 113.679 52.3123C113.606 52.3123 113.545 52.3307 113.497 52.3675C113.448 52.4044 113.409 52.4701 113.38 52.5648C113.355 52.6543 113.338 52.7753 113.329 52.9278C113.319 53.0752 113.314 53.2646 113.314 53.4961ZM112 51.3653H113.27V51.9493H113.285C113.436 51.4863 113.735 51.2548 114.183 51.2548C114.621 51.2548 114.928 51.4468 115.103 51.8309C115.278 52.215 115.366 52.8016 115.366 53.5908C115.366 54.0011 115.336 54.3431 115.278 54.6167C115.22 54.8903 115.137 55.1112 115.03 55.2796C114.928 55.4427 114.801 55.5584 114.65 55.6268C114.504 55.69 114.339 55.7215 114.154 55.7215C113.969 55.7215 113.801 55.6821 113.65 55.6032C113.504 55.5242 113.397 55.3743 113.329 55.1533H113.314V57H112V51.3653Z" fill="white"/>
<path d="M117.545 52.7779C117.545 52.5517 117.518 52.3859 117.465 52.2807C117.416 52.1755 117.321 52.1229 117.18 52.1229C117.044 52.1229 116.949 52.1755 116.895 52.2807C116.847 52.3859 116.822 52.5517 116.822 52.7779V52.9673H117.545V52.7779ZM116.822 53.7407V54.301C116.822 54.5325 116.859 54.6877 116.932 54.7666C117.005 54.8403 117.087 54.8771 117.18 54.8771C117.297 54.8771 117.387 54.8271 117.45 54.7272C117.518 54.6219 117.552 54.4247 117.552 54.1353H118.735C118.725 54.6614 118.601 55.0586 118.363 55.3269C118.124 55.59 117.732 55.7215 117.187 55.7215C116.871 55.7215 116.606 55.6847 116.391 55.611C116.177 55.5321 116.005 55.4059 115.873 55.2322C115.742 55.0534 115.647 54.8219 115.588 54.5378C115.535 54.2537 115.508 53.9091 115.508 53.5039C115.508 53.0936 115.54 52.7463 115.603 52.4622C115.666 52.1781 115.766 51.9466 115.902 51.7678C116.039 51.5889 116.211 51.46 116.421 51.3811C116.635 51.2969 116.89 51.2548 117.187 51.2548C117.45 51.2548 117.679 51.289 117.874 51.3574C118.073 51.4258 118.239 51.5415 118.37 51.7046C118.506 51.8625 118.606 52.0729 118.669 52.336C118.737 52.5938 118.771 52.9173 118.771 53.3067V53.7407H116.822Z" fill="white"/>
<path d="M118.957 51.3653H120.228V52.044H120.242C120.315 51.7862 120.432 51.5915 120.593 51.46C120.753 51.3232 120.931 51.2548 121.125 51.2548H121.337V52.5806C121.279 52.5701 121.223 52.5622 121.169 52.5569C121.116 52.5517 121.062 52.549 121.009 52.549C120.775 52.549 120.593 52.6043 120.461 52.7148C120.335 52.8253 120.271 53.0225 120.271 53.3067V55.6347H118.957V51.3653Z" fill="white"/>
<path d="M124.596 54.7903C124.742 54.7903 124.846 54.7324 124.91 54.6167C124.973 54.5009 125.004 54.3247 125.004 54.0879V53.575H124.99C124.951 53.6328 124.89 53.6697 124.807 53.6855C124.729 53.696 124.642 53.7249 124.545 53.7723C124.442 53.8249 124.372 53.8959 124.333 53.9853C124.294 54.0695 124.274 54.1826 124.274 54.3247C124.274 54.4667 124.304 54.5799 124.362 54.664C124.42 54.7482 124.498 54.7903 124.596 54.7903ZM125.085 55.6347C125.06 55.5611 125.043 55.4848 125.034 55.4059C125.024 55.3269 125.014 55.2428 125.004 55.1533H124.99C124.917 55.3427 124.8 55.4848 124.639 55.5795C124.484 55.6742 124.304 55.7215 124.099 55.7215C123.9 55.7215 123.729 55.6926 123.588 55.6347C123.452 55.5821 123.34 55.5006 123.252 55.3901C123.165 55.2796 123.101 55.1481 123.063 54.9955C123.024 54.8429 123.004 54.6746 123.004 54.4904C123.004 54.2905 123.021 54.1169 123.055 53.9696C123.094 53.8222 123.155 53.696 123.238 53.5908C123.32 53.4803 123.432 53.3882 123.574 53.3145C123.715 53.2356 123.89 53.1699 124.099 53.1172L124.618 52.9831C124.759 52.9463 124.858 52.8936 124.917 52.8253C124.975 52.7516 125.004 52.649 125.004 52.5175C125.004 52.2544 124.893 52.1229 124.669 52.1229C124.542 52.1229 124.45 52.1623 124.391 52.2413C124.333 52.3149 124.301 52.4649 124.296 52.6911H123.157C123.157 52.3807 123.209 52.1334 123.311 51.9493C123.413 51.7599 123.539 51.6152 123.69 51.5152C123.841 51.41 124.004 51.3416 124.18 51.31C124.355 51.2732 124.518 51.2548 124.669 51.2548C124.897 51.2548 125.107 51.2758 125.296 51.3179C125.491 51.3548 125.657 51.4258 125.793 51.531C125.934 51.631 126.041 51.7704 126.114 51.9493C126.192 52.1229 126.231 52.3491 126.231 52.628V54.7114C126.231 54.9113 126.238 55.0876 126.253 55.2401C126.267 55.3927 126.302 55.5242 126.355 55.6347H125.085Z" fill="white"/>
<path d="M127.684 54.3089C127.684 54.3931 127.691 54.472 127.706 54.5457C127.72 54.6193 127.745 54.6798 127.779 54.7272C127.842 54.8271 127.934 54.8771 128.056 54.8771C128.158 54.8771 128.246 54.8455 128.319 54.7824C128.397 54.7193 128.436 54.6298 128.436 54.5141C128.436 54.3878 128.387 54.2905 128.29 54.2221C128.197 54.1537 128.08 54.0932 127.939 54.0406C127.798 53.988 127.645 53.9327 127.479 53.8749C127.319 53.817 127.168 53.7381 127.027 53.6381C126.886 53.5381 126.766 53.4066 126.669 53.2435C126.577 53.0752 126.53 52.8568 126.53 52.5885C126.53 52.3991 126.562 52.2255 126.625 52.0676C126.688 51.9045 126.783 51.7625 126.91 51.6415C127.041 51.5205 127.204 51.4258 127.399 51.3574C127.599 51.289 127.832 51.2548 128.1 51.2548C129.088 51.2548 129.582 51.702 129.582 52.5964H128.443C128.443 52.4123 128.411 52.2886 128.348 52.2255C128.29 52.1571 128.205 52.1229 128.093 52.1229C127.995 52.1229 127.915 52.1518 127.852 52.2097C127.788 52.2676 127.757 52.3491 127.757 52.4543C127.757 52.5753 127.803 52.6674 127.895 52.7306C127.993 52.7884 128.112 52.841 128.253 52.8884C128.394 52.9357 128.545 52.9857 128.706 53.0383C128.871 53.0909 129.025 53.1672 129.166 53.2672C129.307 53.3619 129.424 53.4934 129.516 53.6618C129.614 53.8249 129.662 54.0432 129.662 54.3168C129.662 54.5272 129.626 54.7193 129.553 54.8929C129.48 55.0665 129.375 55.2165 129.239 55.3427C129.107 55.469 128.942 55.5637 128.742 55.6268C128.548 55.69 128.326 55.7215 128.078 55.7215C127.528 55.7215 127.131 55.6032 126.888 55.3664C126.65 55.1297 126.53 54.7772 126.53 54.3089H127.684Z" fill="white"/>
<path d="M131.238 53.4961C131.238 53.7275 131.243 53.9196 131.253 54.0722C131.263 54.2247 131.28 54.3484 131.304 54.4431C131.333 54.5325 131.372 54.5956 131.421 54.6325C131.469 54.6693 131.53 54.6877 131.603 54.6877C131.681 54.6877 131.744 54.6693 131.793 54.6325C131.842 54.5956 131.878 54.5325 131.903 54.4431C131.932 54.3484 131.951 54.2247 131.961 54.0722C131.971 53.9196 131.976 53.7275 131.976 53.4961C131.976 53.2646 131.971 53.0752 131.961 52.9278C131.951 52.7753 131.932 52.6543 131.903 52.5648C131.878 52.4701 131.842 52.4044 131.793 52.3675C131.744 52.3307 131.681 52.3123 131.603 52.3123C131.53 52.3123 131.469 52.3307 131.421 52.3675C131.372 52.4044 131.333 52.4701 131.304 52.5648C131.28 52.6543 131.263 52.7753 131.253 52.9278C131.243 53.0752 131.238 53.2646 131.238 53.4961ZM129.924 51.3653H131.195V51.9493H131.209C131.36 51.4863 131.659 51.2548 132.107 51.2548C132.545 51.2548 132.852 51.4468 133.027 51.8309C133.202 52.215 133.29 52.8016 133.29 53.5908C133.29 54.0011 133.261 54.3431 133.202 54.6167C133.144 54.8903 133.061 55.1112 132.954 55.2796C132.852 55.4427 132.725 55.5584 132.574 55.6268C132.428 55.69 132.263 55.7215 132.078 55.7215C131.893 55.7215 131.725 55.6821 131.574 55.6032C131.428 55.5242 131.321 55.3743 131.253 55.1533H131.238V57H129.924V51.3653Z" fill="white"/>
<path d="M135.469 52.7779C135.469 52.5517 135.442 52.3859 135.389 52.2807C135.34 52.1755 135.245 52.1229 135.104 52.1229C134.968 52.1229 134.873 52.1755 134.819 52.2807C134.771 52.3859 134.746 52.5517 134.746 52.7779V52.9673H135.469V52.7779ZM134.746 53.7407V54.301C134.746 54.5325 134.783 54.6877 134.856 54.7666C134.929 54.8403 135.012 54.8771 135.104 54.8771C135.221 54.8771 135.311 54.8271 135.374 54.7272C135.442 54.6219 135.476 54.4247 135.476 54.1353H136.659C136.649 54.6614 136.525 55.0586 136.287 55.3269C136.048 55.59 135.657 55.7215 135.111 55.7215C134.795 55.7215 134.53 55.6847 134.316 55.611C134.102 55.5321 133.929 55.4059 133.797 55.2322C133.666 55.0534 133.571 54.8219 133.513 54.5378C133.459 54.2537 133.432 53.9091 133.432 53.5039C133.432 53.0936 133.464 52.7463 133.527 52.4622C133.591 52.1781 133.69 51.9466 133.827 51.7678C133.963 51.5889 134.136 51.46 134.345 51.3811C134.559 51.2969 134.815 51.2548 135.111 51.2548C135.374 51.2548 135.603 51.289 135.798 51.3574C135.997 51.4258 136.163 51.5415 136.294 51.7046C136.43 51.8625 136.53 52.0729 136.593 52.336C136.662 52.5938 136.696 52.9173 136.696 53.3067V53.7407H134.746Z" fill="white"/>
<path d="M136.881 51.3653H138.152V52.044H138.166C138.239 51.7862 138.356 51.5915 138.517 51.46C138.677 51.3232 138.855 51.2548 139.05 51.2548H139.261V52.5806C139.203 52.5701 139.147 52.5622 139.094 52.5569C139.04 52.5517 138.986 52.549 138.933 52.549C138.699 52.549 138.517 52.6043 138.385 52.7148C138.259 52.8253 138.196 53.0225 138.196 53.3067V55.6347H136.881V51.3653Z" fill="white"/>
<path d="M140.769 54.7903C140.915 54.7903 141.02 54.7324 141.083 54.6167C141.147 54.5009 141.178 54.3247 141.178 54.0879V53.575H141.164C141.125 53.6328 141.064 53.6697 140.981 53.6855C140.903 53.696 140.816 53.7249 140.718 53.7723C140.616 53.8249 140.546 53.8959 140.507 53.9853C140.468 54.0695 140.448 54.1826 140.448 54.3247C140.448 54.4667 140.477 54.5799 140.536 54.664C140.594 54.7482 140.672 54.7903 140.769 54.7903ZM141.259 55.6347C141.234 55.5611 141.217 55.4848 141.207 55.4059C141.198 55.3269 141.188 55.2428 141.178 55.1533H141.164C141.091 55.3427 140.974 55.4848 140.813 55.5795C140.657 55.6742 140.477 55.7215 140.273 55.7215C140.073 55.7215 139.903 55.6926 139.762 55.6347C139.626 55.5821 139.514 55.5006 139.426 55.3901C139.339 55.2796 139.275 55.1481 139.236 54.9955C139.197 54.8429 139.178 54.6746 139.178 54.4904C139.178 54.2905 139.195 54.1169 139.229 53.9696C139.268 53.8222 139.329 53.696 139.412 53.5908C139.494 53.4803 139.606 53.3882 139.747 53.3145C139.889 53.2356 140.064 53.1699 140.273 53.1172L140.791 52.9831C140.932 52.9463 141.032 52.8936 141.091 52.8253C141.149 52.7516 141.178 52.649 141.178 52.5175C141.178 52.2544 141.066 52.1229 140.842 52.1229C140.716 52.1229 140.623 52.1623 140.565 52.2413C140.507 52.3149 140.475 52.4649 140.47 52.6911H139.331C139.331 52.3807 139.382 52.1334 139.485 51.9493C139.587 51.7599 139.713 51.6152 139.864 51.5152C140.015 51.41 140.178 51.3416 140.353 51.31C140.529 51.2732 140.692 51.2548 140.842 51.2548C141.071 51.2548 141.28 51.2758 141.47 51.3179C141.665 51.3548 141.83 51.4258 141.967 51.531C142.108 51.631 142.215 51.7704 142.288 51.9493C142.366 52.1229 142.405 52.3491 142.405 52.628V54.7114C142.405 54.9113 142.412 55.0876 142.427 55.2401C142.441 55.3927 142.475 55.5242 142.529 55.6347H141.259Z" fill="white"/>
<path d="M146.024 54.7903C146.17 54.7903 146.275 54.7324 146.338 54.6167C146.401 54.5009 146.433 54.3247 146.433 54.0879V53.575H146.418C146.379 53.6328 146.319 53.6697 146.236 53.6855C146.158 53.696 146.07 53.7249 145.973 53.7723C145.871 53.8249 145.8 53.8959 145.761 53.9853C145.722 54.0695 145.703 54.1826 145.703 54.3247C145.703 54.4667 145.732 54.5799 145.79 54.664C145.849 54.7482 145.927 54.7903 146.024 54.7903ZM146.513 55.6347C146.489 55.5611 146.472 55.4848 146.462 55.4059C146.452 55.3269 146.443 55.2428 146.433 55.1533H146.418C146.345 55.3427 146.229 55.4848 146.068 55.5795C145.912 55.6742 145.732 55.7215 145.528 55.7215C145.328 55.7215 145.158 55.6926 145.017 55.6347C144.88 55.5821 144.768 55.5006 144.681 55.3901C144.593 55.2796 144.53 55.1481 144.491 54.9955C144.452 54.8429 144.433 54.6746 144.433 54.4904C144.433 54.2905 144.45 54.1169 144.484 53.9696C144.523 53.8222 144.583 53.696 144.666 53.5908C144.749 53.4803 144.861 53.3882 145.002 53.3145C145.143 53.2356 145.318 53.1699 145.528 53.1172L146.046 52.9831C146.187 52.9463 146.287 52.8936 146.345 52.8253C146.404 52.7516 146.433 52.649 146.433 52.5175C146.433 52.2544 146.321 52.1229 146.097 52.1229C145.971 52.1229 145.878 52.1623 145.82 52.2413C145.761 52.3149 145.73 52.4649 145.725 52.6911H144.586C144.586 52.3807 144.637 52.1334 144.739 51.9493C144.841 51.7599 144.968 51.6152 145.119 51.5152C145.27 51.41 145.433 51.3416 145.608 51.31C145.783 51.2732 145.946 51.2548 146.097 51.2548C146.326 51.2548 146.535 51.2758 146.725 51.3179C146.92 51.3548 147.085 51.4258 147.221 51.531C147.363 51.631 147.47 51.7704 147.543 51.9493C147.62 52.1229 147.659 52.3491 147.659 52.628V54.7114C147.659 54.9113 147.667 55.0876 147.681 55.2401C147.696 55.3927 147.73 55.5242 147.784 55.6347H146.513Z" fill="white"/>
<path d="M149.295 53.5039C149.295 53.7302 149.3 53.9196 149.309 54.0722C149.319 54.2247 149.336 54.3484 149.36 54.4431C149.39 54.5325 149.429 54.5956 149.477 54.6325C149.526 54.6693 149.589 54.6877 149.667 54.6877C149.74 54.6877 149.801 54.6693 149.85 54.6325C149.898 54.5956 149.935 54.5325 149.959 54.4431C149.988 54.3484 150.008 54.2247 150.017 54.0722C150.027 53.9196 150.032 53.7302 150.032 53.5039C150.032 53.2725 150.027 53.0804 150.017 52.9278C150.008 52.7753 149.988 52.6543 149.959 52.5648C149.935 52.4701 149.898 52.4044 149.85 52.3675C149.801 52.3307 149.74 52.3123 149.667 52.3123C149.589 52.3123 149.526 52.3307 149.477 52.3675C149.429 52.4044 149.39 52.4701 149.36 52.5648C149.336 52.6543 149.319 52.7753 149.309 52.9278C149.3 53.0804 149.295 53.2725 149.295 53.5039ZM150.032 50H151.346V55.6347H150.076V55.0507H150.061C149.979 55.2875 149.867 55.4585 149.725 55.5637C149.584 55.6689 149.397 55.7215 149.163 55.7215C148.725 55.7215 148.419 55.5348 148.243 55.1612C148.068 54.7877 147.981 54.2037 147.981 53.4092C147.981 53.0041 148.01 52.6648 148.068 52.3912C148.127 52.1176 148.207 51.8967 148.309 51.7283C148.416 51.5599 148.545 51.4389 148.696 51.3653C148.847 51.2916 149.012 51.2548 149.193 51.2548C149.377 51.2548 149.543 51.2995 149.689 51.389C149.84 51.4731 149.949 51.6257 150.017 51.8467H150.032V50Z" fill="white"/>
<path d="M154.926 54.7903C155.072 54.7903 155.176 54.7324 155.24 54.6167C155.303 54.5009 155.334 54.3247 155.334 54.0879V53.575H155.32C155.281 53.6328 155.22 53.6697 155.137 53.6855C155.059 53.696 154.972 53.7249 154.875 53.7723C154.772 53.8249 154.702 53.8959 154.663 53.9853C154.624 54.0695 154.604 54.1826 154.604 54.3247C154.604 54.4667 154.634 54.5799 154.692 54.664C154.75 54.7482 154.828 54.7903 154.926 54.7903ZM155.415 55.6347C155.39 55.5611 155.373 55.4848 155.364 55.4059C155.354 55.3269 155.344 55.2428 155.334 55.1533H155.32C155.247 55.3427 155.13 55.4848 154.969 55.5795C154.814 55.6742 154.634 55.7215 154.429 55.7215C154.23 55.7215 154.059 55.6926 153.918 55.6347C153.782 55.5821 153.67 55.5006 153.582 55.3901C153.495 55.2796 153.431 55.1481 153.393 54.9955C153.354 54.8429 153.334 54.6746 153.334 54.4904C153.334 54.2905 153.351 54.1169 153.385 53.9696C153.424 53.8222 153.485 53.696 153.568 53.5908C153.65 53.4803 153.762 53.3882 153.904 53.3145C154.045 53.2356 154.22 53.1699 154.429 53.1172L154.948 52.9831C155.089 52.9463 155.188 52.8936 155.247 52.8253C155.305 52.7516 155.334 52.649 155.334 52.5175C155.334 52.2544 155.223 52.1229 154.999 52.1229C154.872 52.1229 154.78 52.1623 154.721 52.2413C154.663 52.3149 154.631 52.4649 154.626 52.6911H153.487C153.487 52.3807 153.539 52.1334 153.641 51.9493C153.743 51.7599 153.869 51.6152 154.02 51.5152C154.171 51.41 154.334 51.3416 154.509 51.31C154.685 51.2732 154.848 51.2548 154.999 51.2548C155.227 51.2548 155.437 51.2758 155.626 51.3179C155.821 51.3548 155.987 51.4258 156.123 51.531C156.264 51.631 156.371 51.7704 156.444 51.9493C156.522 52.1229 156.561 52.3491 156.561 52.628V54.7114C156.561 54.9113 156.568 55.0876 156.583 55.2401C156.597 55.3927 156.632 55.5242 156.685 55.6347H155.415Z" fill="white"/>
<path d="M158.014 54.3089C158.014 54.3931 158.021 54.472 158.036 54.5457C158.05 54.6193 158.075 54.6798 158.109 54.7272C158.172 54.8271 158.264 54.8771 158.386 54.8771C158.488 54.8771 158.576 54.8455 158.649 54.7824C158.727 54.7193 158.766 54.6298 158.766 54.5141C158.766 54.3878 158.717 54.2905 158.62 54.2221C158.527 54.1537 158.41 54.0932 158.269 54.0406C158.128 53.988 157.975 53.9327 157.809 53.8749C157.649 53.817 157.498 53.7381 157.357 53.6381C157.216 53.5381 157.096 53.4066 156.999 53.2435C156.906 53.0752 156.86 52.8568 156.86 52.5885C156.86 52.3991 156.892 52.2255 156.955 52.0676C157.018 51.9045 157.113 51.7625 157.24 51.6415C157.371 51.5205 157.534 51.4258 157.729 51.3574C157.929 51.289 158.162 51.2548 158.43 51.2548C159.418 51.2548 159.912 51.702 159.912 52.5964H158.773C158.773 52.4123 158.741 52.2886 158.678 52.2255C158.62 52.1571 158.535 52.1229 158.423 52.1229C158.325 52.1229 158.245 52.1518 158.182 52.2097C158.118 52.2676 158.087 52.3491 158.087 52.4543C158.087 52.5753 158.133 52.6674 158.225 52.7306C158.323 52.7884 158.442 52.841 158.583 52.8884C158.724 52.9357 158.875 52.9857 159.036 53.0383C159.201 53.0909 159.355 53.1672 159.496 53.2672C159.637 53.3619 159.754 53.4934 159.846 53.6618C159.944 53.8249 159.992 54.0432 159.992 54.3168C159.992 54.5272 159.956 54.7193 159.883 54.8929C159.81 55.0665 159.705 55.2165 159.569 55.3427C159.437 55.469 159.272 55.5637 159.072 55.6268C158.878 55.69 158.656 55.7215 158.408 55.7215C157.858 55.7215 157.461 55.6032 157.218 55.3664C156.979 55.1297 156.86 54.7772 156.86 54.3089H158.014Z" fill="white"/>
<path d="M159.984 51.3653H160.422V50.1105H161.736V51.3653H162.255V52.3202H161.736V54.3563C161.736 54.4773 161.761 54.5641 161.809 54.6167C161.863 54.664 161.943 54.6877 162.05 54.6877H162.255V55.6347C162.133 55.6347 162.011 55.6374 161.89 55.6426C161.768 55.6531 161.651 55.6584 161.539 55.6584C161.34 55.6584 161.169 55.6505 161.028 55.6347C160.887 55.6137 160.77 55.5663 160.678 55.4927C160.59 55.419 160.524 55.3112 160.481 55.1691C160.442 55.0218 160.422 54.8298 160.422 54.593V52.3202H159.984V51.3653Z" fill="white"/>
<path d="M162.353 51.3653H163.623V52.044H163.637C163.71 51.7862 163.827 51.5915 163.988 51.46C164.149 51.3232 164.326 51.2548 164.521 51.2548H164.733V52.5806C164.674 52.5701 164.618 52.5622 164.565 52.5569C164.511 52.5517 164.458 52.549 164.404 52.549C164.17 52.549 163.988 52.6043 163.856 52.7148C163.73 52.8253 163.667 53.0225 163.667 53.3067V55.6347H162.353V51.3653Z" fill="white"/>
<path d="M166.241 54.7903C166.387 54.7903 166.491 54.7324 166.555 54.6167C166.618 54.5009 166.649 54.3247 166.649 54.0879V53.575H166.635C166.596 53.6328 166.535 53.6697 166.452 53.6855C166.374 53.696 166.287 53.7249 166.189 53.7723C166.087 53.8249 166.017 53.8959 165.978 53.9853C165.939 54.0695 165.919 54.1826 165.919 54.3247C165.919 54.4667 165.949 54.5799 166.007 54.664C166.065 54.7482 166.143 54.7903 166.241 54.7903ZM166.73 55.6347C166.705 55.5611 166.688 55.4848 166.679 55.4059C166.669 55.3269 166.659 55.2428 166.649 55.1533H166.635C166.562 55.3427 166.445 55.4848 166.284 55.5795C166.129 55.6742 165.949 55.7215 165.744 55.7215C165.545 55.7215 165.374 55.6926 165.233 55.6347C165.097 55.5821 164.985 55.5006 164.897 55.3901C164.81 55.2796 164.746 55.1481 164.707 54.9955C164.669 54.8429 164.649 54.6746 164.649 54.4904C164.649 54.2905 164.666 54.1169 164.7 53.9696C164.739 53.8222 164.8 53.696 164.883 53.5908C164.965 53.4803 165.077 53.3882 165.219 53.3145C165.36 53.2356 165.535 53.1699 165.744 53.1172L166.262 52.9831C166.404 52.9463 166.503 52.8936 166.562 52.8253C166.62 52.7516 166.649 52.649 166.649 52.5175C166.649 52.2544 166.537 52.1229 166.314 52.1229C166.187 52.1229 166.095 52.1623 166.036 52.2413C165.978 52.3149 165.946 52.4649 165.941 52.6911H164.802C164.802 52.3807 164.853 52.1334 164.956 51.9493C165.058 51.7599 165.184 51.6152 165.335 51.5152C165.486 51.41 165.649 51.3416 165.824 51.31C166 51.2732 166.163 51.2548 166.314 51.2548C166.542 51.2548 166.752 51.2758 166.941 51.3179C167.136 51.3548 167.302 51.4258 167.438 51.531C167.579 51.631 167.686 51.7704 167.759 51.9493C167.837 52.1229 167.876 52.3491 167.876 52.628V54.7114C167.876 54.9113 167.883 55.0876 167.898 55.2401C167.912 55.3927 167.946 55.5242 168 55.6347H166.73Z" fill="white"/>
</svg>
