<svg width="73" height="71" viewBox="0 0 73 71" fill="none" xmlns="http://www.w3.org/2000/svg">
<path fill-rule="evenodd" clip-rule="evenodd" d="M49.6625 41.3241C48.5804 42.1286 48.1295 43.5409 48.5418 44.8483L54.8585 64.6468L38.3174 52.4083C37.2267 51.6038 35.7667 51.6038 34.6803 52.4083L18.1391 64.6468L24.4602 44.8396C24.8724 43.5409 24.4215 42.1286 23.3351 41.3241L6.78971 29.0856H27.2384C28.5825 29.0856 29.7677 28.2068 30.18 26.9081L36.501 7.10527L42.8177 26.9037C43.0175 27.5379 43.4102 28.0911 43.9389 28.4832C44.4676 28.8754 45.105 29.0864 45.7592 29.0856H66.2122L49.6625 41.3241ZM72.8467 26.8906C72.4301 25.5876 71.2493 24.7132 69.9052 24.7132H46.6309L39.4424 2.17746C39.0259 0.874522 37.845 0 36.501 0C35.1569 0 33.9717 0.874483 33.5595 2.1775L26.3667 24.7132H3.09246C1.74837 24.7132 0.567475 25.5876 0.150915 26.8906C-0.261311 28.1936 0.189582 29.6059 1.276 30.4105L20.1059 44.3368L12.9088 66.8768C12.4966 68.1798 12.9475 69.5921 14.0382 70.3966C14.5793 70.7988 15.2191 71 15.8503 71C16.4902 71 17.13 70.7989 17.6711 70.3922L36.501 56.4659L55.3222 70.3922C56.4087 71.2011 57.873 71.2011 58.9637 70.3966C60.0501 69.5921 60.501 68.1798 60.0887 66.8724L52.8917 44.3367L71.7216 30.4105C72.8123 29.6059 73.2632 28.1936 72.8467 26.8906H72.8467Z" fill="white"/>
</svg>
