<svg width="427" height="427" viewBox="0 0 427 427" fill="none" xmlns="http://www.w3.org/2000/svg">
<path d="M191.356 33.9201C201.792 17.9351 225.208 17.9351 235.644 33.9201V33.9201C243.432 45.8506 259.272 49.4661 271.466 42.0963V42.0963C287.804 32.2221 308.901 42.3822 311.368 61.3119V61.3119C313.208 75.4402 325.911 85.5704 340.095 84.2211V84.2211C359.099 82.4133 373.699 100.721 367.708 118.846V118.846C363.236 132.374 370.286 147.013 383.65 151.951V151.951C401.556 158.568 406.767 181.398 393.505 195.128V195.128C383.607 205.376 383.607 221.624 393.505 231.872V231.872C406.767 245.602 401.556 268.432 383.65 275.049V275.049C370.286 279.987 363.236 294.626 367.708 308.154V308.154C373.699 326.279 359.099 344.587 340.095 342.779V342.779C325.911 341.43 313.208 351.56 311.368 365.688V365.688C308.901 384.618 287.803 394.778 271.466 384.904V384.904C259.272 377.534 243.432 381.149 235.644 393.08V393.08C225.208 409.065 201.792 409.065 191.356 393.08V393.08C183.568 381.149 167.728 377.534 155.534 384.904V384.904C139.197 394.778 118.099 384.618 115.632 365.688V365.688C113.792 351.56 101.089 341.43 86.9052 342.779V342.779C67.9013 344.587 53.3012 326.279 59.2924 308.154V308.154C63.764 294.626 56.7145 279.987 43.35 275.049V275.049C25.4437 268.432 20.233 245.602 33.4951 231.872V231.872C43.3934 221.624 43.3934 205.376 33.4951 195.128V195.128C20.233 181.398 25.4437 158.568 43.35 151.951V151.951C56.7145 147.013 63.764 132.374 59.2924 118.846V118.846C53.3012 100.721 67.9013 82.4133 86.9051 84.2211V84.2211C101.089 85.5704 113.792 75.4402 115.632 61.3119V61.3119C118.099 42.3822 139.196 32.2221 155.534 42.0963V42.0963C167.728 49.4661 183.568 45.8506 191.356 33.9201V33.9201Z" fill="#3874F0"/>
<path d="M130.087 184.888L125.984 216.869H134.35L130.247 184.888H130.087ZM139.579 169.478L153.575 244.839H137.648L136.12 231.645H124.214L122.686 244.839H107L120.755 169.478H139.579Z" fill="white"/>
<path d="M177.198 191.221H191.195C191.195 183.129 189.72 177.253 186.77 173.594C183.874 169.865 179.155 168 172.613 168C166.285 168 161.566 170.005 158.455 174.016C155.345 178.027 153.79 183.867 153.79 191.537C153.79 195.97 154.353 199.559 155.479 202.303C156.659 205.047 158.107 207.264 159.823 208.953C161.592 210.641 163.496 212.014 165.534 213.069C167.572 214.124 169.449 215.18 171.165 216.235C172.935 217.221 174.382 218.452 175.509 219.93C176.688 221.337 177.278 223.272 177.278 225.735C177.278 227.775 176.849 229.499 175.991 230.907C175.187 232.314 174.007 233.018 172.452 233.018C171.004 233.018 169.824 232.384 168.912 231.118C168.001 229.781 167.545 227.494 167.545 224.257V222.463H153.066V225.101C153.066 229.042 153.495 232.349 154.353 235.023C155.211 237.697 156.444 239.878 158.053 241.567C159.715 243.185 161.726 244.311 164.086 244.945C166.499 245.648 169.261 246 172.371 246C178.968 246 184.009 244.206 187.494 240.617C190.98 236.958 192.723 231.118 192.723 223.096C192.723 218.522 192.106 214.828 190.873 212.014C189.693 209.129 188.191 206.806 186.368 205.047C184.545 203.288 182.587 201.881 180.496 200.825C178.405 199.7 176.447 198.609 174.624 197.553C172.8 196.498 171.272 195.267 170.039 193.859C168.859 192.382 168.269 190.411 168.269 187.949C168.269 186.26 168.644 184.747 169.395 183.41C170.146 182.003 171.326 181.299 172.935 181.299C174.382 181.299 175.455 182.108 176.152 183.727C176.849 185.275 177.198 187.175 177.198 189.426V191.221Z" fill="white"/>
<path d="M204.396 186.154V244.839H219.358V186.154H230.619V169.478H193.295V186.154H204.396Z" fill="white"/>
<path d="M247.746 201.353V183.621H250.642C252.895 183.621 254.503 184.29 255.469 185.627C256.488 186.963 256.997 189.215 256.997 192.382C256.997 195.055 256.488 197.237 255.469 198.926C254.45 200.544 252.868 201.353 250.723 201.353H247.746ZM232.784 169.478V244.839H247.746V214.652H251.688C252.6 214.652 253.351 214.828 253.94 215.18C254.584 215.461 255.093 216.024 255.469 216.869C255.898 217.643 256.193 218.733 256.354 220.141C256.515 221.548 256.595 223.307 256.595 225.418V230.484C256.595 231.258 256.595 232.279 256.595 233.545C256.649 234.742 256.702 236.008 256.756 237.345C256.863 238.682 256.997 240.019 257.158 241.356C257.373 242.693 257.668 243.854 258.043 244.839H273.97V243.783C273.488 243.432 273.139 243.08 272.924 242.728C272.71 242.306 272.495 241.884 272.281 241.461C272.12 241.039 271.986 240.441 271.879 239.667C271.771 238.893 271.691 238.049 271.637 237.134C271.584 236.149 271.557 235.129 271.557 234.073C271.557 233.018 271.557 231.997 271.557 231.012V224.574C271.557 219.507 270.887 215.532 269.546 212.647C268.205 209.762 265.738 208.108 262.145 207.686V207.475C265.578 206.771 268.071 204.871 269.626 201.775C271.182 198.679 271.959 194.598 271.959 189.532C271.959 186.647 271.664 183.973 271.074 181.51C270.538 179.047 269.626 176.936 268.339 175.177C267.106 173.348 265.47 171.94 263.432 170.955C261.448 169.97 259.035 169.478 256.193 169.478H232.784Z" fill="white"/>
<path d="M296.511 184.888L292.409 216.869H300.775L296.672 184.888H296.511ZM306.003 169.478L320 244.839H304.073L302.544 231.645H290.639L289.111 244.839H273.425L287.18 169.478H306.003Z" fill="white"/>
<path d="M207.741 354.714L201.018 354.243L201.192 351.742L207.915 352.213L207.741 354.714Z" fill="white"/>
<path d="M161.677 339.569C161.787 339.263 161.83 339.032 161.805 338.875C161.766 338.712 161.63 338.588 161.398 338.504C161.325 338.477 161.238 338.446 161.137 338.409C161.035 338.371 160.914 338.344 160.773 338.325L161.398 336.602C161.496 336.605 161.623 336.618 161.778 336.642C161.925 336.646 162.076 336.66 162.231 336.684C162.387 336.708 162.54 336.739 162.69 336.777C162.841 336.816 162.967 336.853 163.068 336.89C163.576 337.075 163.96 337.331 164.22 337.656C164.479 337.981 164.568 338.417 164.484 338.963C165.152 338.663 165.888 338.536 166.693 338.583C167.483 338.624 168.211 338.766 168.879 339.01C169.387 339.195 169.846 339.445 170.258 339.76C170.674 340.06 171.017 340.407 171.284 340.801C171.532 341.204 171.691 341.649 171.761 342.135C171.811 342.631 171.735 343.155 171.535 343.708C171.281 344.406 170.952 344.928 170.547 345.274C170.127 345.615 169.67 345.835 169.174 345.934C168.663 346.027 168.135 346.033 167.591 345.949C167.026 345.875 166.472 345.772 165.929 345.639C165.447 345.562 164.998 345.465 164.581 345.345C164.159 345.241 163.78 345.177 163.444 345.153C163.093 345.124 162.799 345.164 162.561 345.275C162.304 345.396 162.109 345.637 161.977 346.001C161.861 346.321 161.846 346.612 161.932 346.873C162.003 347.13 162.136 347.351 162.331 347.538C162.506 347.733 162.727 347.896 162.992 348.026C163.252 348.17 163.505 348.287 163.751 348.377C164.448 348.631 165.074 348.695 165.629 348.568C166.184 348.441 166.602 348.083 166.882 347.494L169.363 348.398C169.055 349.109 168.662 349.649 168.183 350.018C167.704 350.387 167.18 350.632 166.61 350.753C166.025 350.869 165.415 350.877 164.778 350.776C164.141 350.676 163.51 350.512 162.886 350.284C162.335 350.083 161.812 349.826 161.317 349.514C160.823 349.202 160.413 348.839 160.087 348.423C159.747 348.003 159.523 347.534 159.415 347.017C159.301 346.515 159.353 345.966 159.57 345.37L161.677 339.569ZM163.017 343.614C163.484 343.504 164.004 343.521 164.576 343.664C165.143 343.821 165.721 343.95 166.309 344.049C166.586 344.101 166.864 344.128 167.142 344.131C167.415 344.148 167.672 344.118 167.914 344.042C168.15 343.98 168.368 343.853 168.569 343.663C168.75 343.482 168.898 343.232 169.014 342.912C169.114 342.636 169.119 342.374 169.028 342.127C168.937 341.879 168.804 341.658 168.629 341.462C168.434 341.276 168.213 341.113 167.968 340.974C167.708 340.83 167.47 340.718 167.252 340.639C166.976 340.538 166.666 340.466 166.32 340.423C165.974 340.379 165.632 340.394 165.293 340.468C164.94 340.537 164.621 340.667 164.337 340.86C164.048 341.068 163.833 341.368 163.69 341.76L163.017 343.614Z" fill="white"/>
<path d="M150.663 335.613C150.957 334.893 150.952 334.277 150.647 333.764C150.342 333.251 149.876 332.828 149.249 332.494C149.031 332.377 148.778 332.26 148.491 332.142C148.183 332.031 147.881 331.957 147.585 331.922C147.289 331.887 147.019 331.918 146.774 332.016C146.509 332.12 146.304 332.326 146.158 332.634C146.012 332.942 145.991 333.246 146.094 333.546C146.197 333.846 146.383 334.138 146.652 334.422C146.901 334.712 147.207 335.007 147.573 335.307C147.938 335.607 148.307 335.917 148.679 336.238C149.064 336.566 149.425 336.907 149.762 337.262C150.085 337.609 150.348 337.986 150.552 338.392C150.742 338.792 150.839 339.22 150.841 339.677C150.836 340.147 150.692 340.649 150.41 341.182C150.105 341.755 149.715 342.161 149.24 342.398C148.743 342.642 148.222 342.767 147.676 342.774C147.11 342.788 146.542 342.704 145.973 342.524C145.391 342.336 144.861 342.115 144.384 341.861C143.839 341.57 143.353 341.233 142.928 340.848C142.481 340.47 142.129 340.046 141.872 339.576C141.6 339.099 141.448 338.579 141.413 338.018C141.358 337.462 141.452 336.873 141.696 336.249L144.129 337.546C143.941 338.164 144.001 338.678 144.308 339.087C144.602 339.489 145.008 339.828 145.526 340.104C145.69 340.191 145.894 340.283 146.141 340.379C146.373 340.468 146.614 340.526 146.862 340.553C147.089 340.586 147.31 340.564 147.526 340.486C147.735 340.422 147.901 340.274 148.024 340.042C148.177 339.755 148.204 339.472 148.108 339.193C147.997 338.906 147.818 338.618 147.57 338.328C147.301 338.044 146.983 337.752 146.618 337.453C146.252 337.153 145.877 336.839 145.491 336.511C145.12 336.19 144.765 335.852 144.429 335.498C144.092 335.143 143.829 334.766 143.639 334.367C143.435 333.96 143.332 333.529 143.329 333.072C143.313 332.608 143.443 332.116 143.718 331.597C144.052 330.968 144.478 330.512 144.996 330.227C145.514 329.943 146.077 329.787 146.686 329.761C147.281 329.727 147.89 329.798 148.514 329.973C149.138 330.148 149.723 330.381 150.268 330.671C150.936 331.027 151.517 331.433 152.01 331.888C152.489 332.336 152.86 332.823 153.123 333.349C153.365 333.881 153.49 334.438 153.496 335.019C153.481 335.607 153.314 336.219 152.994 336.855L150.663 335.613Z" fill="white"/>
<path d="M131.023 333.335L129.412 332.162L127.302 335.072L125.166 333.517L127.276 330.607L125.346 329.201L126.503 327.606L128.433 329.011L132.19 323.828C132.354 323.603 132.488 323.405 132.594 323.233C132.687 323.052 132.743 322.882 132.762 322.724C132.769 322.557 132.726 322.392 132.634 322.229C132.533 322.079 132.364 321.918 132.126 321.745C131.976 321.636 131.826 321.527 131.677 321.418C131.518 321.321 131.35 321.237 131.172 321.165L132.37 319.513C132.626 319.661 132.875 319.804 133.118 319.943C133.361 320.081 133.601 320.237 133.839 320.41C134.401 320.819 134.82 321.201 135.097 321.556C135.353 321.914 135.508 322.266 135.563 322.612C135.596 322.961 135.536 323.32 135.384 323.687C135.22 324.045 134.999 324.429 134.721 324.839L130.569 330.566L132.18 331.739L131.023 333.335Z" fill="white"/>
<path d="M114.301 319.849L112.518 318.124L114.127 316.455L114.094 316.422C113.813 316.602 113.487 316.728 113.117 316.8C112.736 316.862 112.349 316.874 111.955 316.837C111.54 316.801 111.139 316.704 110.755 316.546C110.37 316.389 110.033 316.171 109.744 315.891C109.522 315.676 109.377 315.525 109.31 315.439C109.232 315.342 109.154 315.245 109.076 315.148L110.846 313.311C110.957 313.463 111.08 313.614 111.214 313.764C111.326 313.916 111.448 314.056 111.581 314.185C111.904 314.496 112.273 314.725 112.691 314.871C113.086 315.017 113.513 315.065 113.971 315.013C114.418 314.972 114.879 314.827 115.355 314.578C115.831 314.329 116.3 313.965 116.761 313.487L120.719 309.38L122.618 311.218L114.301 319.849Z" fill="white"/>
<path d="M102.323 292.262C102.578 292.062 102.737 291.889 102.799 291.742C102.851 291.584 102.802 291.407 102.65 291.211C102.602 291.151 102.545 291.077 102.478 290.992C102.412 290.907 102.324 290.819 102.214 290.728L103.656 289.599C103.737 289.653 103.837 289.732 103.957 289.835C104.079 289.916 104.199 290.008 104.319 290.111C104.438 290.214 104.551 290.321 104.659 290.434C104.766 290.546 104.853 290.645 104.919 290.73C105.252 291.157 105.443 291.577 105.491 291.991C105.539 292.405 105.384 292.821 105.024 293.24C105.749 293.34 106.44 293.623 107.098 294.09C107.746 294.545 108.289 295.052 108.726 295.613C109.059 296.04 109.317 296.496 109.499 296.981C109.694 297.457 109.8 297.933 109.819 298.41C109.816 298.883 109.715 299.345 109.517 299.794C109.298 300.241 108.957 300.646 108.494 301.008C107.91 301.465 107.355 301.733 106.828 301.811C106.292 301.878 105.788 301.821 105.315 301.642C104.832 301.45 104.382 301.174 103.964 300.814C103.525 300.451 103.11 300.07 102.719 299.669C102.351 299.348 102.022 299.026 101.731 298.704C101.429 298.391 101.141 298.135 100.869 297.937C100.586 297.726 100.315 297.604 100.055 297.572C99.7736 297.537 99.4807 297.639 99.1765 297.877C98.9088 298.087 98.7421 298.325 98.6764 298.593C98.6011 298.848 98.5969 299.107 98.6638 299.368C98.7091 299.627 98.8098 299.882 98.9661 300.133C99.1102 300.393 99.2631 300.627 99.4247 300.834C99.8809 301.419 100.378 301.806 100.916 301.993C101.454 302.181 101.998 302.099 102.547 301.747L104.172 303.832C103.535 304.272 102.916 304.521 102.315 304.579C101.714 304.638 101.14 304.567 100.592 304.367C100.035 304.156 99.5131 303.838 99.0261 303.414C98.539 302.99 98.0911 302.516 97.6824 301.992C97.3212 301.529 97.0134 301.034 96.759 300.506C96.5047 299.979 96.3492 299.453 96.2925 298.928C96.2263 298.39 96.2841 297.874 96.4658 297.378C96.6354 296.892 96.9696 296.454 97.4684 296.063L102.323 292.262ZM101.32 296.405C101.774 296.56 102.206 296.85 102.616 297.275C103.014 297.71 103.436 298.126 103.882 298.522C104.09 298.713 104.311 298.884 104.545 299.034C104.768 299.193 105.002 299.305 105.247 299.368C105.48 299.441 105.732 299.45 106.003 299.395C106.252 299.337 106.51 299.204 106.778 298.994C107.009 298.813 107.151 298.594 107.205 298.336C107.258 298.078 107.262 297.819 107.217 297.56C107.15 297.299 107.05 297.044 106.915 296.796C106.771 296.535 106.628 296.314 106.485 296.131C106.304 295.899 106.079 295.673 105.809 295.453C105.539 295.232 105.241 295.063 104.914 294.946C104.578 294.816 104.239 294.758 103.896 294.771C103.542 294.793 103.2 294.933 102.871 295.19L101.32 296.405Z" fill="white"/>
<path d="M86.3927 265.736C87.0796 265.374 87.4707 264.899 87.5662 264.31C87.6616 263.72 87.5763 263.096 87.3102 262.436C87.2177 262.206 87.0993 261.954 86.955 261.679C86.7906 261.395 86.6062 261.144 86.4019 260.926C86.1976 260.709 85.9706 260.559 85.7209 260.476C85.4511 260.385 85.1616 260.411 84.8524 260.552C84.5433 260.694 84.3319 260.913 84.2182 261.21C84.1046 261.506 84.0599 261.85 84.0842 262.24C84.0884 262.622 84.1343 263.046 84.2219 263.511C84.3095 263.976 84.3929 264.451 84.4719 264.937C84.5568 265.436 84.6144 265.93 84.6448 266.419C84.6694 266.893 84.6294 267.351 84.5248 267.794C84.4145 268.222 84.2137 268.612 83.9225 268.964C83.617 269.321 83.1851 269.613 82.6268 269.839C82.0255 270.082 81.4667 270.142 80.9502 270.017C80.4136 269.884 79.934 269.644 79.5113 269.298C79.0686 268.943 78.6872 268.514 78.3672 268.009C78.0415 267.49 77.7774 266.98 77.5749 266.478C77.3436 265.904 77.1882 265.333 77.1088 264.764C77.0094 264.187 77.0118 263.635 77.116 263.109C77.2145 262.569 77.4307 262.072 77.7646 261.62C78.0783 261.159 78.5285 260.768 79.1152 260.447L80.1475 263.008C79.6069 263.36 79.3231 263.792 79.2962 264.304C79.2635 264.801 79.3571 265.322 79.5769 265.867C79.6463 266.04 79.7444 266.242 79.8714 266.474C79.9926 266.692 80.1395 266.891 80.3121 267.072C80.4647 267.243 80.6486 267.369 80.8639 267.449C81.0649 267.534 81.287 267.528 81.5304 267.429C81.831 267.308 82.0339 267.109 82.139 266.832C82.2384 266.542 82.2859 266.206 82.2817 265.823C82.2575 265.433 82.2015 265.005 82.1139 264.54C82.0263 264.075 81.94 263.592 81.8551 263.093C81.7761 262.607 81.7213 262.121 81.691 261.632C81.6606 261.144 81.7006 260.685 81.8109 260.257C81.9155 259.814 82.1134 259.417 82.4046 259.065C82.69 258.7 83.1047 258.407 83.6487 258.186C84.3072 257.92 84.9262 257.844 85.5057 257.96C86.0853 258.076 86.6165 258.32 87.0995 258.691C87.5766 259.049 87.9982 259.496 88.3642 260.032C88.7301 260.568 89.0288 261.123 89.2601 261.696C89.5435 262.399 89.7279 263.084 89.8134 263.75C89.8931 264.402 89.8651 265.014 89.7294 265.586C89.5737 266.15 89.3117 266.657 88.9434 267.106C88.555 267.547 88.0345 267.908 87.3817 268.189L86.3927 265.736Z" fill="white"/>
<path d="M74.8333 242.869C74.1404 243.154 73.6739 243.581 73.4339 244.152C73.1752 244.711 73.1355 245.35 73.3148 246.071C73.3969 246.401 73.5446 246.739 73.7578 247.084C73.9561 247.433 74.2517 247.726 74.6448 247.963C75.0228 248.203 75.5151 248.359 76.1217 248.431C76.7133 248.507 77.451 248.434 78.3349 248.213C78.8143 248.093 79.2806 247.921 79.7338 247.696C80.1833 247.456 80.5654 247.169 80.8802 246.836C81.1912 246.487 81.418 246.087 81.5606 245.637C81.6882 245.191 81.6829 244.69 81.5447 244.134C81.3579 243.384 80.9726 242.826 80.3887 242.462C79.801 242.082 79.0728 241.937 78.204 242.027L77.5653 239.46C79.1381 239.322 80.4429 239.61 81.4797 240.323C82.4978 241.026 83.1936 242.128 83.5671 243.629C83.7949 244.545 83.8468 245.393 83.7227 246.173C83.5799 246.942 83.3062 247.633 82.9014 248.244C82.4816 248.859 81.9364 249.386 81.2659 249.825C80.5916 250.248 79.8275 250.567 78.9736 250.78C78.1047 250.997 77.2584 251.081 76.4346 251.032C75.6108 250.983 74.862 250.787 74.1882 250.445C73.4994 250.107 72.91 249.624 72.4198 248.997C71.911 248.359 71.537 247.56 71.298 246.599C71.1299 245.923 71.061 245.263 71.0914 244.617C71.103 243.961 71.2233 243.356 71.452 242.805C71.6771 242.238 72.0144 241.74 72.464 241.308C72.9136 240.877 73.4905 240.542 74.1946 240.302L74.8333 242.869Z" fill="white"/>
<path d="M64.276 232.286L64 229.654L70.1035 229.011L70.0986 228.965C69.5273 228.699 69.032 228.269 68.6127 227.675C68.1764 227.068 67.9171 226.371 67.8348 225.587C67.6976 224.279 67.9273 223.212 68.5238 222.387C69.1204 221.562 70.0942 221.078 71.4454 220.936L79.6218 220.075L79.8978 222.706L72.4124 223.494C71.479 223.624 70.8243 223.895 70.4485 224.308C70.0573 224.722 69.9028 225.322 69.9851 226.107C70.0319 226.553 70.1584 226.944 70.3644 227.28C70.555 227.618 70.8092 227.895 71.1267 228.11C71.4289 228.327 71.7792 228.485 72.1776 228.583C72.576 228.681 72.9902 228.707 73.4201 228.662L80.4449 227.922L80.7208 230.553L64.276 232.286Z" fill="white"/>
<path d="M79.9431 207.482C79.9096 208.441 79.7254 209.294 79.3904 210.041C79.0406 210.772 78.5787 211.39 78.0049 211.897C77.4317 212.387 76.7544 212.758 75.9732 213.01C75.1926 213.246 74.3394 213.347 73.4136 213.315C72.5032 213.283 71.6669 213.122 70.9045 212.832C70.1427 212.527 69.493 212.11 68.9553 211.58C68.4182 211.035 68.0082 210.386 67.7255 209.633C67.4278 208.864 67.2957 208 67.3291 207.041C67.3626 206.082 67.5542 205.238 67.9041 204.507C68.2391 203.76 68.6932 203.141 69.2665 202.65C69.8403 202.144 70.5175 201.773 71.2981 201.537C72.0793 201.286 72.9251 201.176 73.8355 201.208C74.7613 201.24 75.6051 201.409 76.3669 201.714C77.1292 202.004 77.7789 202.422 78.3161 202.967C78.8538 203.496 79.2714 204.146 79.5691 204.915C79.8518 205.668 79.9765 206.524 79.9431 207.482ZM77.86 207.41C77.8805 206.822 77.7748 206.307 77.5431 205.866C77.3113 205.424 76.9996 205.057 76.6081 204.765C76.2167 204.472 75.7762 204.256 75.2868 204.115C74.7824 203.958 74.268 203.87 73.7433 203.852C73.2342 203.834 72.7225 203.886 72.2085 204.007C71.695 204.113 71.2405 204.298 70.8451 204.563C70.4342 204.827 70.0978 205.172 69.8358 205.596C69.5739 206.02 69.4327 206.526 69.4122 207.114C69.3917 207.701 69.4974 208.216 69.7292 208.658C69.9609 209.099 70.2726 209.466 70.6641 209.759C71.0401 210.05 71.4803 210.275 71.9846 210.432C72.4895 210.573 72.9965 210.653 73.5057 210.671C74.0303 210.689 74.5494 210.645 75.0629 210.54C75.5615 210.418 76.0162 210.225 76.4271 209.96C76.838 209.696 77.1744 209.352 77.4364 208.927C77.6983 208.503 77.8395 207.997 77.86 207.41Z" fill="white"/>
<path d="M81.9078 188.786C81.7415 189.731 81.4407 190.55 81.0052 191.242C80.5572 191.917 80.014 192.466 79.3755 192.887C78.7396 193.293 78.0175 193.566 77.209 193.706C76.4032 193.831 75.5441 193.812 74.6318 193.651C73.7347 193.493 72.9289 193.217 72.2142 192.823C71.5022 192.415 70.9168 191.911 70.4579 191.311C70.0017 190.696 69.6859 189.996 69.5105 189.211C69.3225 188.408 69.3117 187.534 69.4779 186.59C69.6441 185.645 69.9512 184.835 70.3992 184.16C70.8347 183.467 71.3703 182.918 72.0062 182.512C72.6447 182.09 73.3669 181.817 74.1727 181.693C74.9812 181.553 75.834 181.562 76.731 181.721C77.6433 181.882 78.4555 182.167 79.1674 182.575C79.8821 182.969 80.4675 183.473 80.9237 184.087C81.3826 184.687 81.7061 185.388 81.894 186.191C82.0694 186.976 82.074 187.841 81.9078 188.786ZM79.8551 188.423C79.957 187.844 79.9238 187.32 79.7556 186.85C79.5874 186.381 79.3298 185.974 78.9827 185.63C78.6357 185.286 78.2296 185.01 77.7645 184.802C77.2868 184.576 76.7896 184.417 76.2726 184.326C75.7708 184.237 75.257 184.217 74.7311 184.266C74.2079 184.299 73.7321 184.419 73.3038 184.626C72.8602 184.831 72.4792 185.125 72.1609 185.508C71.8425 185.892 71.6324 186.373 71.5306 186.952C71.4287 187.531 71.4618 188.056 71.63 188.525C71.7983 188.995 72.0559 189.402 72.403 189.746C72.7348 190.087 73.1396 190.371 73.6172 190.597C74.0975 190.807 74.5885 190.957 75.0903 191.046C75.6072 191.137 76.1273 191.166 76.6505 191.133C77.1612 191.082 77.6383 190.954 78.0819 190.749C78.5255 190.545 78.9065 190.251 79.2248 189.867C79.5431 189.484 79.7532 189.002 79.8551 188.423Z" fill="white"/>
<path d="M70.3054 165.652L71.1212 163.136L86.8473 168.256L86.0315 170.772L70.3054 165.652Z" fill="white"/>
<path d="M94.4363 135.237L98.2049 129.638L100.278 131.04L96.5099 136.639L94.4363 135.237Z" fill="white"/>
<path d="M130.559 102.831C130.768 103.08 130.946 103.233 131.095 103.29C131.255 103.337 131.43 103.281 131.619 103.122C131.678 103.072 131.749 103.013 131.832 102.943C131.915 102.873 131.999 102.782 132.086 102.669L133.262 104.073C133.211 104.157 133.136 104.26 133.038 104.383C132.961 104.508 132.873 104.632 132.775 104.755C132.677 104.879 132.573 104.996 132.465 105.107C132.356 105.218 132.261 105.309 132.178 105.378C131.764 105.727 131.352 105.932 130.941 105.995C130.53 106.058 130.109 105.916 129.679 105.571C129.604 106.3 129.346 107.003 128.903 107.678C128.473 108.343 127.985 108.904 127.441 109.362C127.027 109.71 126.582 109.984 126.104 110.183C125.636 110.395 125.165 110.518 124.691 110.554C124.218 110.567 123.754 110.482 123.299 110.3C122.846 110.095 122.431 109.768 122.053 109.317C121.577 108.749 121.291 108.202 121.194 107.677C121.109 107.143 121.148 106.635 121.31 106.155C121.485 105.665 121.744 105.205 122.088 104.774C122.435 104.321 122.801 103.892 123.187 103.486C123.494 103.107 123.803 102.766 124.115 102.464C124.416 102.15 124.661 101.853 124.85 101.573C125.051 101.283 125.162 101.007 125.185 100.746C125.21 100.462 125.098 100.173 124.85 99.8763C124.632 99.6156 124.388 99.4569 124.119 99.4004C123.862 99.3339 123.604 99.3388 123.345 99.4149C123.088 99.4693 122.838 99.5791 122.593 99.7443C122.339 99.8977 122.111 100.059 121.91 100.228C121.342 100.705 120.974 101.217 120.806 101.762C120.638 102.308 120.739 102.849 121.108 103.387L119.086 105.087C118.625 104.465 118.355 103.854 118.276 103.254C118.197 102.654 118.247 102.076 118.427 101.521C118.619 100.955 118.918 100.421 119.323 99.9189C119.729 99.4163 120.186 98.9512 120.694 98.5236C121.144 98.1456 121.627 97.8201 122.144 97.5469C122.661 97.2738 123.18 97.0997 123.702 97.0246C124.235 96.9396 124.752 96.9794 125.253 97.1441C125.744 97.297 126.193 97.6164 126.6 98.1023L130.559 102.831ZM126.393 101.972C126.255 102.432 125.98 102.875 125.57 103.3C125.151 103.714 124.751 104.151 124.371 104.612C124.188 104.826 124.026 105.054 123.884 105.294C123.733 105.522 123.63 105.76 123.575 106.008C123.511 106.244 123.511 106.497 123.575 106.766C123.641 107.013 123.783 107.267 124.001 107.528C124.19 107.753 124.414 107.888 124.673 107.933C124.932 107.977 125.19 107.973 125.447 107.918C125.705 107.842 125.956 107.732 126.199 107.589C126.453 107.435 126.669 107.284 126.847 107.135C127.071 106.946 127.289 106.712 127.5 106.434C127.71 106.156 127.868 105.852 127.974 105.521C128.091 105.179 128.138 104.838 128.113 104.495C128.078 104.14 127.927 103.803 127.659 103.483L126.393 101.972Z" fill="white"/>
<path d="M139.482 95.2494C139.957 95.8645 140.492 96.1679 141.087 96.1598C141.683 96.1516 142.282 95.959 142.884 95.5818C143.094 95.4506 143.321 95.2899 143.567 95.0997C143.817 94.8882 144.032 94.6627 144.21 94.4233C144.389 94.1838 144.497 93.9337 144.534 93.673C144.577 93.3909 144.502 93.1096 144.309 92.8291C144.115 92.5487 143.863 92.3781 143.552 92.3174C143.242 92.2567 142.896 92.2722 142.517 92.364C142.142 92.4345 141.733 92.5534 141.292 92.7206C140.85 92.8879 140.397 93.0526 139.934 93.215C139.458 93.3855 138.982 93.5281 138.508 93.6429C138.046 93.7494 137.589 93.7896 137.135 93.7633C136.695 93.7288 136.277 93.5984 135.881 93.372C135.477 93.1325 135.115 92.7569 134.796 92.2452C134.452 91.6941 134.297 91.1529 134.33 90.6215C134.368 90.0688 134.52 89.5539 134.787 89.0766C135.058 88.5781 135.414 88.1271 135.855 87.7237C136.308 87.3121 136.764 86.9628 137.222 86.6758C137.746 86.3479 138.28 86.0954 138.825 85.9183C139.375 85.7199 139.917 85.6265 140.453 85.638C141.001 85.6413 141.526 85.7685 142.029 86.0194C142.536 86.2491 142.998 86.6255 143.415 87.1487L141.078 88.6123C140.638 88.1399 140.164 87.9348 139.657 87.9971C139.163 88.0512 138.667 88.234 138.169 88.5456C138.012 88.644 137.831 88.776 137.624 88.9416C137.431 89.099 137.261 89.2786 137.114 89.4803C136.971 89.6607 136.88 89.8641 136.839 90.0904C136.79 90.3036 136.835 90.5217 136.974 90.7448C137.145 91.0203 137.376 91.186 137.666 91.2418C137.969 91.2894 138.307 91.2779 138.682 91.2074C139.062 91.1156 139.473 90.9861 139.915 90.8188C140.356 90.6516 140.816 90.4827 141.292 90.3122C141.755 90.1499 142.224 90.0113 142.698 89.8966C143.173 89.7818 143.63 89.7417 144.071 89.7762C144.524 89.8025 144.949 89.9288 145.345 90.1551C145.754 90.3733 146.114 90.7317 146.425 91.2303C146.801 91.8339 146.983 92.4317 146.97 93.0237C146.956 93.6158 146.809 94.1824 146.528 94.7236C146.259 95.2566 145.893 95.7502 145.43 96.2045C144.967 96.6587 144.473 97.0498 143.95 97.3778C143.308 97.7795 142.667 98.0804 142.027 98.2804C141.401 98.4723 140.794 98.5509 140.208 98.5164C139.627 98.4606 139.084 98.29 138.578 98.0046C138.078 97.6979 137.633 97.2468 137.243 96.6514L139.482 95.2494Z" fill="white"/>
<path d="M151.27 79.3471L153.089 78.5353L151.629 75.249L154.041 74.1729L155.501 77.4592L157.68 76.4869L158.481 78.2891L156.302 79.2613L158.901 85.113C159.014 85.3675 159.119 85.5834 159.215 85.7609C159.324 85.932 159.443 86.0655 159.57 86.1612C159.711 86.2507 159.875 86.2961 160.061 86.2976C160.242 86.2849 160.466 86.2188 160.734 86.0992C160.903 86.0237 161.072 85.9482 161.242 85.8726C161.405 85.783 161.561 85.6792 161.712 85.5613L162.541 87.427C162.285 87.5749 162.037 87.7196 161.795 87.8611C161.554 88.0027 161.3 88.1332 161.032 88.2528C160.397 88.536 159.857 88.7091 159.412 88.7723C158.974 88.815 158.593 88.7736 158.267 88.6481C157.948 88.5022 157.668 88.2715 157.427 87.9559C157.199 87.634 156.978 87.25 156.763 86.804L153.89 80.3375L152.07 81.1493L151.27 79.3471Z" fill="white"/>
<path d="M171.282 71.5733L173.664 70.8888L174.303 73.1198L174.347 73.107C174.332 72.7733 174.386 72.4279 174.508 72.0707C174.646 71.7093 174.829 71.367 175.058 71.0437C175.297 70.7013 175.581 70.4025 175.909 70.1471C176.238 69.8918 176.595 69.7086 176.981 69.5978C177.278 69.5125 177.48 69.4623 177.588 69.4473C177.711 69.4281 177.834 69.4089 177.957 69.3896L178.66 71.8436C178.473 71.8651 178.281 71.8961 178.084 71.9366C177.897 71.9581 177.715 71.9944 177.537 72.0455C177.106 72.1692 176.724 72.3757 176.389 72.6651C176.065 72.9353 175.811 73.282 175.627 73.7051C175.438 74.1133 175.333 74.5863 175.31 75.124C175.287 75.6617 175.367 76.2503 175.55 76.8899L177.12 82.3779L174.583 83.1072L171.282 71.5733Z" fill="white"/>
<path d="M201.116 74.9726C201.161 75.2944 201.232 75.5188 201.327 75.6459C201.438 75.7709 201.616 75.8162 201.861 75.7817C201.937 75.7709 202.029 75.758 202.136 75.743C202.243 75.7279 202.363 75.6953 202.497 75.6453L202.751 77.4609C202.664 77.5045 202.546 77.5524 202.397 77.6045C202.266 77.6699 202.126 77.7286 201.978 77.7808C201.829 77.833 201.679 77.8775 201.529 77.9144C201.378 77.9512 201.249 77.9772 201.142 77.9922C200.607 78.0676 200.148 78.0228 199.767 77.8578C199.385 77.6929 199.103 77.3498 198.921 76.8286C198.472 77.4074 197.881 77.8656 197.149 78.2031C196.432 78.5384 195.722 78.7556 195.019 78.8546C194.484 78.93 193.961 78.9255 193.45 78.8412C192.941 78.7722 192.477 78.6268 192.056 78.4048C191.648 78.1654 191.299 77.8473 191.01 77.4506C190.733 77.0364 190.554 76.5382 190.473 75.956C190.37 75.2206 190.416 74.6047 190.611 74.1085C190.822 73.6101 191.123 73.2005 191.515 72.8797C191.922 72.5568 192.385 72.304 192.905 72.1214C193.438 71.9213 193.976 71.7519 194.518 71.6131C194.979 71.4544 195.421 71.3296 195.845 71.2386C196.267 71.1324 196.631 71.0107 196.94 70.8735C197.263 70.7342 197.504 70.5597 197.661 70.35C197.832 70.1229 197.891 69.8178 197.837 69.4347C197.79 69.0976 197.667 68.8337 197.469 68.6429C197.286 68.4499 197.064 68.317 196.805 68.2442C196.558 68.1539 196.288 68.1139 195.993 68.1242C195.696 68.1192 195.417 68.1349 195.158 68.1715C194.424 68.2749 193.841 68.5132 193.41 68.8864C192.979 69.2596 192.778 69.7722 192.807 70.4243L190.193 70.7925C190.131 70.02 190.226 69.3583 190.476 68.8075C190.726 68.2566 191.074 67.7936 191.521 67.4182C191.982 67.0407 192.518 66.7466 193.127 66.5357C193.737 66.3248 194.371 66.1731 195.028 66.0805C195.609 65.9987 196.191 65.9792 196.774 66.0221C197.357 66.065 197.889 66.1932 198.371 66.4065C198.869 66.6177 199.286 66.9261 199.623 67.3316C199.959 67.7219 200.171 68.2311 200.259 68.8593L201.116 74.9726ZM198.037 72.0314C197.676 72.3478 197.21 72.5776 196.637 72.7207C196.063 72.8485 195.493 73.0069 194.927 73.196C194.658 73.2807 194.4 73.3874 194.153 73.5159C193.904 73.6291 193.691 73.7763 193.513 73.9575C193.334 74.1234 193.2 74.3375 193.112 74.5999C193.038 74.8448 193.024 75.1358 193.071 75.4729C193.112 75.764 193.23 75.9973 193.426 76.1728C193.623 76.3483 193.844 76.4812 194.09 76.5714C194.35 76.6442 194.621 76.6842 194.902 76.6914C195.199 76.6965 195.462 76.6829 195.692 76.6506C195.982 76.6097 196.29 76.5272 196.616 76.4032C196.942 76.2793 197.237 76.1049 197.501 75.8801C197.781 75.6532 198.001 75.3878 198.162 75.084C198.319 74.7649 198.369 74.3985 198.311 73.9849L198.037 72.0314Z" fill="white"/>
<path d="M232.006 74.4106C231.975 75.1874 232.19 75.7646 232.652 76.1421C233.114 76.5196 233.696 76.7578 234.399 76.8569C234.644 76.8913 234.921 76.9148 235.231 76.9272C235.559 76.9265 235.868 76.8918 236.158 76.8233C236.448 76.7549 236.691 76.6329 236.887 76.4574C237.101 76.2687 237.224 76.0048 237.256 75.6655C237.288 75.3263 237.204 75.0333 237.005 74.7865C236.806 74.5397 236.531 74.3292 236.181 74.1549C235.849 73.9675 235.46 73.7955 235.014 73.639C234.568 73.4824 234.116 73.3172 233.657 73.1432C233.183 72.967 232.727 72.77 232.29 72.5522C231.868 72.3366 231.492 72.0727 231.162 71.7605C230.847 71.4505 230.61 71.0813 230.452 70.6528C230.296 70.2089 230.26 69.6882 230.343 69.0907C230.434 68.4472 230.662 67.9325 231.028 67.5465C231.411 67.1474 231.858 66.851 232.368 66.6573C232.896 66.4504 233.458 66.3343 234.054 66.3088C234.666 66.2856 235.239 66.3116 235.774 66.387C236.386 66.4731 236.957 66.6239 237.488 66.8393C238.036 67.0415 238.512 67.3194 238.915 67.673C239.332 68.0287 239.653 68.4645 239.877 68.9804C240.118 69.4831 240.231 70.0692 240.215 70.7388L237.486 70.3545C237.452 69.7091 237.22 69.2468 236.792 68.9677C236.379 68.6908 235.881 68.5114 235.3 68.4295C235.117 68.4037 234.893 68.3878 234.629 68.3818C234.38 68.378 234.134 68.4059 233.892 68.4656C233.667 68.512 233.467 68.6088 233.29 68.7558C233.116 68.8875 233.01 69.0835 232.974 69.344C232.929 69.6658 232.999 69.9413 233.185 70.1706C233.387 70.4021 233.654 70.6115 233.986 70.799C234.336 70.9732 234.733 71.1386 235.179 71.2951C235.625 71.4517 236.085 71.618 236.559 71.7942C237.018 71.9682 237.466 72.1641 237.903 72.3819C238.341 72.5997 238.717 72.8636 239.032 73.1736C239.362 73.4858 239.607 73.8561 239.765 74.2846C239.938 74.7153 239.984 75.2217 239.902 75.8039C239.804 76.5087 239.559 77.0837 239.169 77.5287C238.78 77.9738 238.303 78.3129 237.74 78.5462C237.193 78.7815 236.596 78.924 235.95 78.9736C235.304 79.0232 234.675 79.005 234.063 78.9188C233.314 78.8133 232.63 78.6311 232.012 78.3721C231.409 78.1153 230.894 77.785 230.467 77.3811C230.058 76.9641 229.751 76.4835 229.547 75.9391C229.36 75.3815 229.308 74.7493 229.392 74.0423L232.006 74.4106Z" fill="white"/>
<path d="M257.545 75.8122C257.645 75.0684 257.509 74.4499 257.136 73.9564C256.783 73.4524 256.249 73.098 255.537 72.8933C255.211 72.7995 254.845 72.7588 254.44 72.7711C254.039 72.7686 253.638 72.8788 253.237 73.1015C252.84 73.3094 252.459 73.6587 252.094 74.1493C251.733 74.625 251.427 75.3016 251.176 76.1791C251.04 76.655 250.955 77.1459 250.923 77.6517C250.906 78.1617 250.962 78.6368 251.094 79.0768C251.239 79.5211 251.471 79.9177 251.789 80.2666C252.111 80.6005 252.547 80.8464 253.096 81.0042C253.838 81.2175 254.512 81.1618 255.119 80.8372C255.741 80.5169 256.23 79.9573 256.587 79.1586L259.125 79.8878C258.458 81.3218 257.557 82.3102 256.422 82.8532C255.306 83.3856 254.005 83.4385 252.521 83.0121C251.616 82.7519 250.857 82.3729 250.245 81.875C249.651 81.3665 249.192 80.7837 248.866 80.1267C248.544 79.4548 248.361 78.7182 248.318 77.917C248.289 77.1199 248.395 76.2976 248.638 75.4498C248.885 74.5872 249.235 73.8107 249.69 73.1205C250.144 72.4302 250.688 71.8781 251.32 71.4643C251.957 71.0356 252.669 70.7653 253.456 70.6534C254.262 70.5309 255.14 70.6062 256.089 70.8791C256.757 71.071 257.362 71.3415 257.905 71.6906C258.467 72.029 258.929 72.4354 259.291 72.9097C259.668 73.3882 259.93 73.9304 260.078 74.5363C260.226 75.1421 260.228 75.8105 260.083 76.5415L257.545 75.8122Z" fill="white"/>
<path d="M271.971 71.9397L274.383 73.0159L271.886 78.6343L271.929 78.6532C272.445 78.2907 273.064 78.0758 273.787 78.0088C274.53 77.9339 275.261 78.0569 275.98 78.3778C277.179 78.9127 277.986 79.6453 278.401 80.5756C278.816 81.5059 278.747 82.593 278.194 83.8368L274.85 91.3634L272.438 90.2873L275.5 83.3967C275.855 82.5219 275.948 81.8182 275.779 81.2855C275.616 80.7387 275.175 80.3049 274.456 79.9839C274.047 79.8014 273.645 79.7155 273.252 79.7263C272.865 79.7229 272.499 79.8051 272.154 79.973C271.815 80.1267 271.504 80.3519 271.22 80.6487C270.936 80.9454 270.706 81.2916 270.53 81.6874L267.657 88.154L265.245 87.0778L271.971 71.9397Z" fill="white"/>
<path d="M285.572 97.9422C284.76 97.4339 284.115 96.8476 283.637 96.1834C283.181 95.5143 282.877 94.8042 282.726 94.0531C282.589 93.3102 282.607 92.5369 282.78 91.7333C282.967 90.9378 283.305 90.1465 283.796 89.3592C284.279 88.585 284.836 87.9396 285.468 87.423C286.113 86.9145 286.798 86.5593 287.525 86.3575C288.265 86.164 289.03 86.1327 289.823 86.2638C290.636 86.3901 291.449 86.7073 292.26 87.2157C293.072 87.724 293.706 88.3127 294.163 88.9818C294.641 89.646 294.949 90.3495 295.086 91.0925C295.237 91.8436 295.219 92.6169 295.032 93.4123C294.859 94.216 294.531 95.0049 294.048 95.779C293.557 96.5663 292.99 97.2142 292.345 97.7226C291.713 98.2393 291.027 98.5944 290.288 98.788C289.561 98.9898 288.791 99.0276 287.978 98.9014C287.186 98.7703 286.384 98.4506 285.572 97.9422ZM286.676 96.1709C287.174 96.4824 287.672 96.648 288.169 96.6677C288.667 96.6873 289.139 96.6003 289.588 96.4068C290.036 96.2132 290.444 95.9393 290.81 95.585C291.198 95.2258 291.531 94.8231 291.809 94.377C292.079 93.944 292.29 93.4741 292.443 92.9673C292.608 92.4687 292.675 91.9816 292.644 91.506C292.621 91.0173 292.491 90.5531 292.256 90.1136C292.02 89.6741 291.653 89.2986 291.156 88.987C290.658 88.6755 290.161 88.5099 289.663 88.4902C289.166 88.4706 288.693 88.5576 288.244 88.7511C287.804 88.9316 287.39 89.2014 287.002 89.5606C286.628 89.928 286.305 90.3282 286.035 90.7612C285.757 91.2073 285.535 91.6797 285.37 92.1783C285.226 92.672 285.166 93.1632 285.189 93.6519C285.212 94.1406 285.341 94.6047 285.577 95.0442C285.812 95.4838 286.179 95.8593 286.676 96.1709Z" fill="white"/>
<path d="M300.746 108.992C300.012 108.376 299.455 107.705 299.074 106.981C298.715 106.255 298.513 105.509 298.468 104.744C298.435 103.989 298.56 103.226 298.843 102.454C299.138 101.693 299.584 100.956 300.179 100.245C300.765 99.5459 301.406 98.9845 302.103 98.5609C302.812 98.1473 303.541 97.8913 304.288 97.7928C305.048 97.7042 305.811 97.7801 306.577 98.0205C307.365 98.2589 308.125 98.6864 308.859 99.303C309.592 99.9196 310.138 100.591 310.497 101.317C310.878 102.042 311.086 102.781 311.119 103.536C311.163 104.301 311.038 105.064 310.743 105.826C310.46 106.598 310.025 107.333 309.44 108.032C308.844 108.744 308.192 109.306 307.483 109.72C306.786 110.143 306.057 110.399 305.298 110.488C304.55 110.586 303.783 110.516 302.995 110.278C302.229 110.037 301.479 109.609 300.746 108.992ZM302.085 107.392C302.535 107.77 303.004 108.004 303.494 108.092C303.984 108.181 304.465 108.161 304.936 108.032C305.407 107.903 305.848 107.688 306.26 107.389C306.694 107.087 307.08 106.735 307.417 106.332C307.745 105.941 308.019 105.505 308.24 105.024C308.473 104.553 308.607 104.08 308.642 103.605C308.688 103.118 308.624 102.64 308.452 102.172C308.279 101.704 307.968 101.281 307.519 100.903C307.069 100.525 306.6 100.292 306.11 100.203C305.62 100.114 305.139 100.134 304.668 100.263C304.207 100.381 303.76 100.59 303.326 100.892C302.904 101.203 302.529 101.555 302.202 101.946C301.864 102.349 301.579 102.786 301.346 103.256C301.135 103.725 301.007 104.203 300.962 104.69C300.917 105.177 300.98 105.655 301.153 106.123C301.325 106.591 301.636 107.014 302.085 107.392Z" fill="white"/>
<path d="M326.542 110.493L328.309 112.459L316.021 123.547L314.254 121.581L326.542 110.493Z" fill="white"/>
<path d="M340.754 146.644L343.708 152.714L341.46 153.813L338.506 147.743L340.754 146.644Z" fill="white"/>
<path d="M350.702 194.194C350.383 194.25 350.162 194.329 350.038 194.429C349.917 194.545 349.879 194.724 349.921 194.968C349.935 195.044 349.951 195.136 349.97 195.242C349.988 195.349 350.025 195.468 350.08 195.6L348.278 195.918C348.231 195.832 348.179 195.716 348.122 195.569C348.053 195.44 347.989 195.302 347.932 195.155C347.875 195.008 347.825 194.859 347.783 194.71C347.741 194.56 347.711 194.432 347.692 194.325C347.598 193.792 347.627 193.331 347.778 192.943C347.929 192.555 348.261 192.261 348.775 192.06C348.182 191.631 347.704 191.055 347.342 190.334C346.983 189.627 346.741 188.924 346.618 188.223C346.524 187.689 346.51 187.165 346.577 186.651C346.628 186.139 346.757 185.669 346.963 185.239C347.188 184.823 347.493 184.462 347.878 184.159C348.282 183.867 348.772 183.671 349.35 183.569C350.08 183.44 350.696 183.464 351.197 183.643C351.702 183.837 352.121 184.124 352.454 184.505C352.791 184.901 353.059 185.356 353.259 185.871C353.477 186.398 353.665 186.93 353.822 187.468C353.997 187.924 354.137 188.363 354.242 188.784C354.363 189.203 354.497 189.564 354.644 189.868C354.795 190.187 354.977 190.422 355.192 190.573C355.424 190.736 355.73 190.784 356.111 190.717C356.445 190.657 356.704 190.525 356.887 190.32C357.073 190.13 357.198 189.904 357.262 189.641C357.343 189.391 357.374 189.119 357.353 188.824C357.348 188.526 357.322 188.248 357.277 187.989C357.148 187.258 356.89 186.683 356.503 186.264C356.116 185.845 355.597 185.662 354.948 185.714L354.49 183.108C355.258 183.02 355.921 183.091 356.479 183.322C357.037 183.554 357.511 183.886 357.901 184.32C358.294 184.769 358.606 185.295 358.837 185.899C359.069 186.502 359.242 187.131 359.358 187.786C359.459 188.365 359.499 188.947 359.477 189.533C359.454 190.118 359.345 190.656 359.149 191.146C358.956 191.651 358.663 192.08 358.27 192.432C357.893 192.782 357.392 193.012 356.769 193.122L350.702 194.194ZM353.528 191.008C353.2 190.657 352.954 190.198 352.792 189.63C352.644 189.059 352.466 188.493 352.258 187.933C352.164 187.667 352.049 187.412 351.912 187.169C351.79 186.924 351.636 186.715 351.449 186.544C351.278 186.37 351.059 186.244 350.795 186.165C350.548 186.099 350.257 186.095 349.923 186.154C349.634 186.205 349.405 186.332 349.237 186.534C349.069 186.737 348.944 186.963 348.863 187.213C348.799 187.476 348.769 187.748 348.771 188.031C348.777 188.328 348.799 188.591 348.84 188.82C348.891 189.109 348.984 189.415 349.119 189.737C349.254 190.059 349.438 190.348 349.671 190.605C349.907 190.878 350.18 191.089 350.488 191.239C350.812 191.386 351.179 191.423 351.589 191.35L353.528 191.008Z" fill="white"/>
<path d="M352.791 205.733C352.023 205.837 351.493 206.15 351.202 206.671C350.911 207.192 350.778 207.808 350.803 208.519C350.812 208.767 350.837 209.044 350.878 209.353C350.936 209.676 351.024 209.975 351.141 210.249C351.259 210.524 351.421 210.743 351.628 210.906C351.85 211.084 352.131 211.159 352.47 211.132C352.809 211.104 353.082 210.971 353.29 210.731C353.498 210.492 353.657 210.184 353.768 209.809C353.894 209.448 353.996 209.035 354.072 208.567C354.148 208.1 354.232 207.625 354.324 207.142C354.414 206.644 354.529 206.16 354.667 205.69C354.806 205.236 355 204.819 355.249 204.439C355.499 204.074 355.821 203.777 356.214 203.546C356.623 203.315 357.129 203.189 357.731 203.168C358.379 203.145 358.924 203.281 359.367 203.575C359.826 203.884 360.195 204.274 360.474 204.744C360.769 205.229 360.98 205.763 361.109 206.347C361.238 206.947 361.312 207.517 361.331 208.058C361.352 208.677 361.303 209.267 361.184 209.828C361.08 210.404 360.89 210.922 360.612 211.381C360.335 211.855 359.963 212.247 359.495 212.558C359.042 212.883 358.486 213.096 357.825 213.197L357.729 210.437C358.357 210.291 358.771 209.982 358.971 209.511C359.172 209.055 359.262 208.533 359.241 207.945C359.235 207.76 359.211 207.536 359.171 207.274C359.132 207.028 359.062 206.791 358.961 206.562C358.876 206.348 358.747 206.167 358.571 206.018C358.412 205.869 358.201 205.799 357.938 205.808C357.614 205.819 357.356 205.937 357.163 206.16C356.97 206.399 356.811 206.699 356.684 207.059C356.574 207.435 356.48 207.856 356.404 208.323C356.328 208.79 356.244 209.273 356.153 209.772C356.062 210.255 355.947 210.731 355.809 211.2C355.671 211.67 355.477 212.087 355.227 212.452C354.978 212.832 354.656 213.137 354.262 213.368C353.869 213.614 353.38 213.747 352.793 213.768C352.084 213.792 351.476 213.651 350.971 213.344C350.466 213.036 350.05 212.625 349.723 212.11C349.397 211.611 349.153 211.046 348.992 210.417C348.831 209.788 348.74 209.164 348.718 208.546C348.692 207.788 348.752 207.082 348.899 206.426C349.047 205.786 349.282 205.221 349.605 204.73C349.944 204.253 350.363 203.867 350.862 203.571C351.378 203.29 351.99 203.129 352.699 203.089L352.791 205.733Z" fill="white"/>
<path d="M360.638 223.912L360.43 225.897L364 226.273L363.724 228.904L360.154 228.528L359.905 230.905L357.947 230.699L358.196 228.322L351.839 227.652C351.563 227.623 351.324 227.606 351.123 227.6C350.92 227.61 350.746 227.646 350.599 227.708C350.452 227.786 350.33 227.906 350.236 228.067C350.157 228.23 350.102 228.457 350.071 228.75C350.052 228.934 350.032 229.119 350.013 229.304C350.009 229.49 350.02 229.678 350.047 229.867L348.02 229.654C348.02 229.358 348.019 229.07 348.018 228.79C348.016 228.51 348.03 228.224 348.061 227.931C348.134 227.239 348.254 226.684 348.422 226.266C348.604 225.865 348.831 225.554 349.102 225.334C349.387 225.13 349.727 225.003 350.12 224.951C350.512 224.914 350.955 224.914 351.448 224.951L358.472 225.691L358.681 223.706L360.638 223.912Z" fill="white"/>
<path d="M357.346 245.166L356.747 247.576L354.5 247.014L354.489 247.059C354.785 247.213 355.056 247.432 355.304 247.717C355.547 248.017 355.751 248.348 355.916 248.708C356.093 249.087 356.209 249.482 356.265 249.895C356.322 250.308 356.302 250.709 356.204 251.1C356.13 251.4 356.072 251.601 356.031 251.702C355.986 251.819 355.941 251.935 355.896 252.051L353.424 251.434C353.499 251.261 353.568 251.079 353.632 250.888C353.707 250.715 353.766 250.538 353.811 250.358C353.919 249.923 353.932 249.488 353.85 249.052C353.778 248.636 353.606 248.242 353.332 247.871C353.074 247.503 352.718 247.175 352.264 246.886C351.811 246.598 351.262 246.373 350.618 246.212L345.09 244.831L345.729 242.264L357.346 245.166Z" fill="white"/>
<path d="M339.496 269.359C339.195 269.237 338.966 269.186 338.808 269.206C338.645 269.239 338.517 269.371 338.424 269.601C338.395 269.672 338.361 269.759 338.32 269.859C338.28 269.959 338.248 270.08 338.224 270.221L336.528 269.534C336.534 269.436 336.552 269.31 336.581 269.155C336.59 269.008 336.609 268.857 336.638 268.702C336.668 268.547 336.704 268.395 336.747 268.246C336.791 268.097 336.833 267.972 336.873 267.871C337.076 267.369 337.344 266.994 337.677 266.745C338.011 266.496 338.448 266.423 338.99 266.526C338.714 265.847 338.613 265.105 338.688 264.301C338.756 263.511 338.924 262.786 339.19 262.126C339.392 261.624 339.658 261.172 339.986 260.771C340.3 260.364 340.658 260.034 341.06 259.779C341.471 259.545 341.92 259.402 342.408 259.349C342.904 259.316 343.424 259.41 343.968 259.63C344.655 259.908 345.164 260.256 345.495 260.674C345.82 261.106 346.024 261.572 346.105 262.072C346.181 262.587 346.168 263.116 346.065 263.658C345.972 264.221 345.849 264.772 345.698 265.312C345.605 265.791 345.492 266.238 345.358 266.651C345.239 267.07 345.162 267.448 345.126 267.784C345.085 268.134 345.116 268.43 345.218 268.672C345.329 268.934 345.563 269.137 345.921 269.282C346.236 269.409 346.526 269.435 346.79 269.358C347.048 269.296 347.273 269.17 347.466 268.981C347.667 268.813 347.837 268.598 347.976 268.337C348.129 268.081 348.254 267.832 348.353 267.588C348.63 266.899 348.715 266.275 348.608 265.714C348.501 265.154 348.159 264.723 347.581 264.422L348.57 261.969C349.268 262.302 349.793 262.715 350.144 263.207C350.495 263.7 350.721 264.233 350.822 264.808C350.917 265.398 350.904 266.01 350.781 266.644C350.659 267.279 350.473 267.904 350.224 268.521C350.005 269.066 349.73 269.581 349.402 270.065C349.073 270.55 348.696 270.948 348.271 271.26C347.84 271.586 347.365 271.794 346.845 271.884C346.34 271.98 345.795 271.909 345.208 271.671L339.496 269.359ZM343.577 268.158C343.484 267.686 343.519 267.166 343.681 266.598C343.858 266.035 344.006 265.461 344.126 264.876C344.187 264.6 344.224 264.323 344.236 264.044C344.263 263.771 344.242 263.513 344.174 263.268C344.121 263.03 344.003 262.806 343.82 262.599C343.646 262.412 343.401 262.254 343.086 262.127C342.814 262.017 342.553 262.003 342.303 262.085C342.054 262.168 341.828 262.293 341.627 262.462C341.434 262.651 341.264 262.866 341.117 263.107C340.964 263.362 340.845 263.597 340.758 263.812C340.648 264.085 340.565 264.393 340.51 264.738C340.454 265.083 340.457 265.426 340.519 265.768C340.575 266.124 340.694 266.448 340.877 266.739C341.074 267.036 341.365 267.262 341.752 267.419L343.577 268.158Z" fill="white"/>
<path d="M324.541 296.446C323.885 296.031 323.279 295.929 322.722 296.141C322.165 296.353 321.668 296.739 321.23 297.3C321.078 297.495 320.919 297.724 320.754 297.987C320.591 298.272 320.466 298.557 320.38 298.843C320.294 299.129 320.278 299.402 320.332 299.659C320.388 299.939 320.555 300.178 320.832 300.375C321.109 300.572 321.404 300.646 321.717 300.597C322.03 300.547 322.349 300.414 322.674 300.198C323.002 300.003 323.346 299.752 323.704 299.443C324.062 299.134 324.431 298.824 324.811 298.513C325.2 298.19 325.598 297.893 326.005 297.622C326.402 297.364 326.818 297.169 327.253 297.039C327.679 296.92 328.116 296.899 328.566 296.976C329.027 297.063 329.495 297.292 329.97 297.663C330.481 298.063 330.812 298.519 330.962 299.029C331.115 299.562 331.148 300.098 331.06 300.638C330.975 301.199 330.794 301.745 330.518 302.275C330.233 302.817 329.924 303.302 329.591 303.728C329.211 304.216 328.795 304.636 328.343 304.99C327.894 305.365 327.416 305.638 326.909 305.811C326.393 305.996 325.856 306.056 325.298 305.993C324.743 305.951 324.18 305.755 323.61 305.407L325.306 303.23C325.881 303.523 326.396 303.554 326.852 303.321C327.298 303.101 327.701 302.759 328.063 302.296C328.177 302.15 328.302 301.963 328.44 301.737C328.567 301.523 328.666 301.296 328.736 301.056C328.808 300.838 328.825 300.615 328.786 300.388C328.759 300.171 328.642 299.982 328.436 299.82C328.18 299.62 327.907 299.543 327.616 299.59C327.315 299.649 327 299.776 326.672 299.971C326.347 300.187 326.005 300.449 325.647 300.758C325.289 301.067 324.915 301.383 324.526 301.706C324.146 302.017 323.752 302.308 323.346 302.579C322.939 302.849 322.523 303.044 322.097 303.162C321.662 303.293 321.22 303.32 320.771 303.243C320.312 303.178 319.851 302.965 319.389 302.603C318.829 302.165 318.454 301.665 318.265 301.104C318.075 300.543 318.02 299.96 318.1 299.355C318.17 298.763 318.346 298.173 318.626 297.588C318.906 297.002 319.236 296.465 319.616 295.978C320.082 295.38 320.582 294.878 321.115 294.471C321.638 294.076 322.181 293.794 322.744 293.625C323.309 293.479 323.877 293.453 324.45 293.548C325.025 293.664 325.597 293.936 326.166 294.362L324.541 296.446Z" fill="white"/>
<path d="M310.558 317.914C311.151 318.373 311.754 318.564 312.366 318.487C312.979 318.432 313.551 318.146 314.085 317.631C314.329 317.394 314.547 317.097 314.739 316.739C314.941 316.393 315.047 315.99 315.055 315.53C315.073 315.082 314.962 314.577 314.721 314.014C314.49 313.463 314.058 312.859 313.426 312.203C313.083 311.846 312.7 311.528 312.28 311.247C311.847 310.977 311.409 310.789 310.963 310.682C310.506 310.587 310.047 310.59 309.587 310.691C309.137 310.804 308.707 311.059 308.296 311.456C307.741 311.994 307.452 312.607 307.429 313.296C307.395 313.996 307.633 314.7 308.145 315.409L306.246 317.247C305.34 315.951 304.937 314.675 305.035 313.418C305.133 312.183 305.737 311.029 306.848 309.954C307.526 309.298 308.233 308.829 308.969 308.547C309.705 308.286 310.439 308.178 311.169 308.224C311.911 308.281 312.639 308.49 313.353 308.853C314.056 309.226 314.714 309.73 315.325 310.365C315.947 311.01 316.443 311.703 316.812 312.442C317.181 313.182 317.386 313.93 317.428 314.685C317.48 315.452 317.358 316.205 317.061 316.944C316.764 317.705 316.26 318.429 315.549 319.117C315.049 319.601 314.513 319.991 313.94 320.287C313.367 320.605 312.785 320.803 312.194 320.88C311.592 320.968 310.992 320.925 310.394 320.75C309.797 320.576 309.218 320.243 308.659 319.751L310.558 317.914Z" fill="white"/>
<path d="M306.692 332.367L304.556 333.922L300.948 328.946L300.911 328.974C300.966 329.603 300.842 330.248 300.539 330.908C300.232 331.591 299.76 332.164 299.123 332.628C298.061 333.401 297.025 333.735 296.013 333.629C295.002 333.524 294.097 332.921 293.299 331.82L288.466 325.154L290.602 323.599L295.026 329.701C295.605 330.446 296.166 330.879 296.711 330.999C297.265 331.131 297.86 330.965 298.497 330.501C298.86 330.238 299.135 329.932 299.322 329.585C299.519 329.251 299.63 328.892 299.658 328.509C299.694 328.138 299.655 327.755 299.541 327.36C299.426 326.966 299.242 326.593 298.988 326.243L294.836 320.516L296.972 318.961L306.692 332.367Z" fill="white"/>
<path d="M277.421 331.17C278.267 330.72 279.096 330.453 279.909 330.371C280.715 330.309 281.481 330.4 282.205 330.645C282.916 330.897 283.575 331.299 284.183 331.852C284.777 332.411 285.292 333.101 285.727 333.921C286.154 334.727 286.433 335.533 286.564 336.339C286.681 337.153 286.645 337.926 286.456 338.657C286.254 339.396 285.898 340.076 285.388 340.698C284.873 341.341 284.192 341.888 283.347 342.338C282.502 342.788 281.676 343.045 280.869 343.106C280.056 343.189 279.295 343.104 278.584 342.852C277.859 342.607 277.2 342.205 276.606 341.646C275.998 341.093 275.48 340.414 275.053 339.608C274.618 338.788 274.342 337.972 274.225 337.158C274.094 336.351 274.13 335.579 274.333 334.84C274.522 334.108 274.874 333.421 275.39 332.778C275.899 332.157 276.576 331.62 277.421 331.17ZM278.4 333.014C277.882 333.29 277.49 333.639 277.224 334.061C276.959 334.483 276.797 334.937 276.74 335.423C276.683 335.909 276.716 336.4 276.839 336.895C276.956 337.411 277.137 337.902 277.384 338.366C277.623 338.817 277.923 339.235 278.285 339.62C278.634 340.013 279.021 340.315 279.448 340.526C279.881 340.75 280.347 340.87 280.845 340.885C281.343 340.9 281.85 340.77 282.368 340.494C282.886 340.218 283.278 339.869 283.544 339.447C283.81 339.025 283.971 338.571 284.028 338.085C284.092 337.613 284.066 337.118 283.949 336.602C283.819 336.093 283.635 335.614 283.395 335.163C283.149 334.698 282.852 334.27 282.503 333.877C282.149 333.505 281.755 333.207 281.321 332.983C280.887 332.758 280.421 332.638 279.923 332.623C279.426 332.608 278.918 332.738 278.4 333.014Z" fill="white"/>
<path d="M260.285 338.814C261.184 338.486 262.042 338.337 262.859 338.369C263.666 338.42 264.411 338.618 265.095 338.961C265.764 339.31 266.361 339.8 266.886 340.432C267.397 341.069 267.81 341.823 268.127 342.696C268.439 343.554 268.603 344.391 268.621 345.208C268.623 346.03 268.481 346.79 268.192 347.488C267.889 348.192 267.442 348.816 266.851 349.36C266.251 349.925 265.501 350.371 264.602 350.699C263.702 351.028 262.849 351.166 262.041 351.115C261.225 351.083 260.482 350.893 259.813 350.544C259.13 350.201 258.533 349.71 258.022 349.073C257.497 348.442 257.079 347.697 256.767 346.839C256.45 345.967 256.291 345.12 256.288 344.297C256.27 343.48 256.413 342.72 256.716 342.017C257.005 341.319 257.449 340.688 258.049 340.123C258.64 339.578 259.385 339.142 260.285 338.814ZM260.998 340.776C260.446 340.978 260.01 341.269 259.688 341.649C259.366 342.03 259.144 342.457 259.02 342.93C258.896 343.404 258.86 343.894 258.913 344.402C258.957 344.929 259.069 345.44 259.248 345.934C259.422 346.414 259.662 346.87 259.967 347.302C260.257 347.74 260.599 348.093 260.992 348.361C261.39 348.644 261.835 348.827 262.326 348.912C262.816 348.996 263.337 348.938 263.889 348.737C264.44 348.536 264.877 348.245 265.198 347.864C265.52 347.483 265.743 347.056 265.867 346.583C265.996 346.124 266.039 345.631 265.995 345.104C265.937 344.581 265.821 344.08 265.646 343.601C265.467 343.106 265.232 342.64 264.941 342.203C264.642 341.785 264.293 341.435 263.894 341.152C263.496 340.87 263.051 340.686 262.561 340.602C262.07 340.517 261.549 340.575 260.998 340.776Z" fill="white"/>
<path d="M246.087 360.45L243.505 361L240.067 344.791L242.649 344.241L246.087 360.45Z" fill="white"/>
</svg>
