<svg width="94" height="67" viewBox="0 0 94 67" fill="none" xmlns="http://www.w3.org/2000/svg">
<path d="M92.0583 24.7019C94.6472 23.5737 94.6472 19.9076 92.0583 18.7794L50.8947 0.811435C49.6537 0.268323 48.3285 0 47 0C45.6715 0 44.3463 0.271556 43.1053 0.814668L1.94169 18.7794C-0.647231 19.9109 -0.647231 23.5737 1.94169 24.7019L21.0784 33.0555V43.7884C21.0784 47.4609 23.1586 50.8198 26.4506 52.4621C32.9213 55.6884 39.959 57.3016 47 57.3016C54.041 57.3016 61.0787 55.6884 67.5461 52.4621C70.8414 50.8198 72.9216 47.4609 72.9216 43.7884V33.0555L85.8825 27.3981V50.8359C84.0939 50.8359 82.6423 52.2842 82.6423 54.0688V63.7672C82.6423 65.5517 84.0939 67 85.8825 67H89.1227C90.9113 67 92.3629 65.5517 92.3629 63.7672V54.0688C92.3629 52.2842 90.9113 50.8359 89.1227 50.8359V25.9821L92.0583 24.7019ZM69.6814 43.7884C69.6814 46.2518 68.3076 48.4695 66.0978 49.5719C60.2006 52.5138 53.5938 54.0688 47 54.0688C40.4062 54.0688 33.7994 52.5138 27.9022 49.5719C25.6924 48.4695 24.3186 46.2518 24.3186 43.7884V34.4715L43.1053 42.6699C44.3463 43.213 45.6748 43.4845 47 43.4845C48.3285 43.4845 49.6537 43.213 50.8947 42.6699L69.6814 34.4682V43.7884ZM49.5986 39.7086C48.7756 40.0675 47.9008 40.2517 47 40.2517C46.0992 40.2517 45.2276 40.0707 44.4014 39.7086L3.24102 21.7407L44.4014 3.77269C45.2276 3.41385 46.0992 3.23281 47 3.23281C47.9008 3.23281 48.7724 3.41385 49.5986 3.77592L90.759 21.7407L87.1364 23.3215L49.8967 20.3505C49.3718 19.2675 48.2831 18.5078 47 18.5078C45.2114 18.5078 43.7598 19.9561 43.7598 21.7407C43.7598 23.5252 45.2114 24.9735 47 24.9735C48.0919 24.9735 49.0122 24.398 49.5986 23.5704L80.8537 26.0662L49.5986 39.7086Z" fill="white"/>
</svg>
