<svg width="1228" height="466" viewBox="0 0 1228 466" fill="none" xmlns="http://www.w3.org/2000/svg">
<path d="M0 1.44858H27.4933L35.2451 45.2165H35.4518L43.2037 1.44858H70.6969V75.3264H52.7126V20.2802H52.5059L42.2735 75.3264H28.4235L18.191 20.2802H17.9843V75.3264H0V1.44858Z" fill="white"/>
<path d="M76.9824 1.44858H96.207V27.937H103.752C112.159 27.937 118.257 30.0064 122.047 34.1452C125.905 38.215 127.835 43.9059 127.835 51.2178C127.835 55.9085 127.111 59.8059 125.664 62.91C124.217 66.0141 122.322 68.4974 119.979 70.3598C117.705 72.1533 115.122 73.4295 112.228 74.1882C109.333 74.947 106.405 75.3264 103.442 75.3264H76.9824V1.44858ZM98.791 61.4614C102.236 61.4614 104.648 60.6681 106.026 59.0816C107.404 57.426 108.093 54.8738 108.093 51.4248C108.093 47.5619 107.232 44.9751 105.509 43.6645C103.856 42.2849 101.582 41.5951 98.6876 41.5951H96.207V61.4614H98.791ZM131.762 1.44858H150.987V75.3264H131.762V1.44858Z" fill="white"/>
<path d="M181.113 37.5597H213.361V53.2872H181.113V37.5597Z" fill="white"/>
<path d="M242.811 1.44858H262.035V29.7995H262.242L276.506 1.44858H296.97L278.366 33.7313L299.244 75.3264H277.332L266.066 49.5623L262.035 55.7705V75.3264H242.811V1.44858Z" fill="white"/>
<path d="M321.067 76.4646C316.174 76.4646 312.04 75.8093 308.664 74.4986C305.287 73.119 302.565 70.9117 300.498 67.8765C298.431 64.8414 296.95 60.9095 296.054 56.0809C295.158 51.2523 294.71 45.3545 294.71 38.3875C294.71 31.4895 295.158 25.6262 296.054 20.7975C296.95 15.8999 298.431 11.9336 300.498 8.89845C302.565 5.79434 305.287 3.55248 308.664 2.17288C312.04 0.724293 316.174 0 321.067 0C325.959 0 330.093 0.724293 333.47 2.17288C336.846 3.55248 339.568 5.79434 341.635 8.89845C343.702 11.9336 345.183 15.8999 346.079 20.7975C346.975 25.6262 347.423 31.4895 347.423 38.3875C347.423 45.3545 346.975 51.2523 346.079 56.0809C345.183 60.9095 343.702 64.8414 341.635 67.8765C339.568 70.9117 336.846 73.119 333.47 74.4986C330.093 75.8093 325.959 76.4646 321.067 76.4646ZM321.067 63.7377C322.514 63.7377 323.651 63.3583 324.477 62.5996C325.373 61.8408 326.028 60.4957 326.441 58.5642C326.924 56.6328 327.234 54.046 327.371 50.8039C327.509 47.4929 327.578 43.3541 327.578 38.3875C327.578 33.4209 327.509 29.3166 327.371 26.0745C327.234 22.7635 326.924 20.1422 326.441 18.2108C326.028 16.2793 325.373 14.9342 324.477 14.1754C323.651 13.4167 322.514 13.0373 321.067 13.0373C319.62 13.0373 318.448 13.4167 317.552 14.1754C316.726 14.9342 316.071 16.2793 315.589 18.2108C315.175 20.1422 314.9 22.7635 314.762 26.0745C314.624 29.3166 314.555 33.4209 314.555 38.3875C314.555 43.3541 314.624 47.4929 314.762 50.8039C314.9 54.046 315.175 56.6328 315.589 58.5642C316.071 60.4957 316.726 61.8408 317.552 62.5996C318.448 63.3583 319.62 63.7377 321.067 63.7377Z" fill="white"/>
<path d="M351.522 1.44858H379.016L386.768 45.2165H386.974L394.726 1.44858H422.219V75.3264H404.235V20.2802H404.028L393.796 75.3264H379.946L369.714 20.2802H369.507V75.3264H351.522V1.44858Z" fill="white"/>
<path d="M440.598 1.44858H464.784L482.768 75.3264H462.303L460.339 62.3926H445.042L443.078 75.3264H422.924L440.598 1.44858ZM458.065 47.9068L452.794 16.5553H452.587L447.316 47.9068H458.065Z" fill="white"/>
<path d="M483.87 1.44858H503.095V28.5578H514.878V1.44858H534.102V75.3264H514.878V44.9061H503.095V75.3264H483.87V1.44858Z" fill="white"/>
<path d="M536.605 59.5989H541.567C543.014 56.7018 544.219 53.7701 545.184 50.8039C546.149 47.7688 546.907 44.6302 547.458 41.3881C548.078 38.1461 548.492 34.7315 548.698 31.1446C548.905 27.5576 549.008 23.6602 549.008 19.4524V1.44858H595.933V59.5989H602.444V89.5019H584.874V75.3264H554.176V89.5019H536.605V59.5989ZM576.812 59.5989V16.7622H567.096V23.5912C567.096 27.2472 566.924 30.8687 566.579 34.4556C566.304 37.9736 565.89 41.3192 565.339 44.4922C564.788 47.6653 564.167 50.5625 563.478 53.1838C562.789 55.736 562.1 57.8744 561.411 59.5989H576.812Z" fill="white"/>
<path d="M618.402 1.44858H642.588L660.572 75.3264H640.107L638.143 62.3926H622.846L620.883 75.3264H600.728L618.402 1.44858ZM635.87 47.9068L630.598 16.5553H630.392L625.12 47.9068H635.87Z" fill="white"/>
<path d="M661.881 54.8393H679.245V73.4639C679.245 80.0171 677.902 84.9147 675.214 88.1567C672.527 91.3988 668.082 93.0888 661.881 93.2268V84.3283C664.362 84.0524 666.084 83.2246 667.049 81.845C668.014 80.4654 668.496 78.396 668.496 75.6368V74.7056H661.881V54.8393Z" fill="white"/>
<path d="M0 98.8324H19.2246V127.183H19.4313L33.6947 98.8324H54.1596L35.5552 131.115L56.4335 172.71H34.5216L23.2556 146.946L19.2246 153.154V172.71H0V98.8324Z" fill="white"/>
<path d="M78.2558 173.848C73.3635 173.848 69.2292 173.193 65.8528 171.883C62.4765 170.503 59.7547 168.296 57.6875 165.26C55.6204 162.225 54.1389 158.293 53.2431 153.465C52.3474 148.636 51.8995 142.738 51.8995 135.771C51.8995 128.873 52.3474 123.01 53.2431 118.181C54.1389 113.284 55.6204 109.317 57.6875 106.282C59.7547 103.178 62.4765 100.936 65.8528 99.5567C69.2292 98.1081 73.3635 97.3839 78.2558 97.3839C83.1481 97.3839 87.2824 98.1081 90.6588 99.5567C94.0351 100.936 96.7569 103.178 98.8241 106.282C100.891 109.317 102.373 113.284 103.268 118.181C104.164 123.01 104.612 128.873 104.612 135.771C104.612 142.738 104.164 148.636 103.268 153.465C102.373 158.293 100.891 162.225 98.8241 165.26C96.7569 168.296 94.0351 170.503 90.6588 171.883C87.2824 173.193 83.1481 173.848 78.2558 173.848ZM78.2558 161.122C79.7028 161.122 80.8398 160.742 81.6666 159.983C82.5624 159.225 83.217 157.88 83.6304 155.948C84.1128 154.017 84.4228 151.43 84.5606 148.188C84.6985 144.877 84.7674 140.738 84.7674 135.771C84.7674 130.805 84.6985 126.7 84.5606 123.458C84.4228 120.147 84.1128 117.526 83.6304 115.595C83.217 113.663 82.5624 112.318 81.6666 111.559C80.8398 110.801 79.7028 110.421 78.2558 110.421C76.8088 110.421 75.6374 110.801 74.7416 111.559C73.9148 112.318 73.2602 113.663 72.7778 115.595C72.3644 117.526 72.0888 120.147 71.951 123.458C71.8132 126.7 71.7442 130.805 71.7442 135.771C71.7442 140.738 71.8132 144.877 71.951 148.188C72.0888 151.43 72.3644 154.017 72.7778 155.948C73.2602 157.88 73.9148 159.225 74.7416 159.983C75.6374 160.742 76.8088 161.122 78.2558 161.122Z" fill="white"/>
<path d="M119.151 115.181H104.887V98.8324H152.846V115.181H138.375V172.71H119.151V115.181Z" fill="white"/>
<path d="M179.296 173.848C174.404 173.848 170.27 173.193 166.893 171.883C163.517 170.503 160.795 168.296 158.728 165.26C156.661 162.225 155.18 158.293 154.284 153.465C153.388 148.636 152.94 142.738 152.94 135.771C152.94 128.873 153.388 123.01 154.284 118.181C155.18 113.284 156.661 109.317 158.728 106.282C160.795 103.178 163.517 100.936 166.893 99.5567C170.27 98.1081 174.404 97.3839 179.296 97.3839C184.189 97.3839 188.323 98.1081 191.699 99.5567C195.076 100.936 197.798 103.178 199.865 106.282C201.932 109.317 203.413 113.284 204.309 118.181C205.205 123.01 205.653 128.873 205.653 135.771C205.653 142.738 205.205 148.636 204.309 153.465C203.413 158.293 201.932 162.225 199.865 165.26C197.798 168.296 195.076 170.503 191.699 171.883C188.323 173.193 184.189 173.848 179.296 173.848ZM179.296 161.122C180.743 161.122 181.88 160.742 182.707 159.983C183.603 159.225 184.258 157.88 184.671 155.948C185.153 154.017 185.463 151.43 185.601 148.188C185.739 144.877 185.808 140.738 185.808 135.771C185.808 130.805 185.739 126.7 185.601 123.458C185.463 120.147 185.153 117.526 184.671 115.595C184.258 113.663 183.603 112.318 182.707 111.559C181.88 110.801 180.743 110.421 179.296 110.421C177.849 110.421 176.678 110.801 175.782 111.559C174.955 112.318 174.301 113.663 173.818 115.595C173.405 117.526 173.129 120.147 172.992 123.458C172.854 126.7 172.785 130.805 172.785 135.771C172.785 140.738 172.854 144.877 172.992 148.188C173.129 151.43 173.405 154.017 173.818 155.948C174.301 157.88 174.955 159.225 175.782 159.983C176.678 160.742 177.849 161.122 179.296 161.122Z" fill="white"/>
<path d="M209.752 98.8324H238.589C242.241 98.8324 245.411 99.4188 248.098 100.591C250.785 101.764 252.99 103.385 254.713 105.455C256.505 107.455 257.814 109.869 258.641 112.697C259.468 115.457 259.881 118.423 259.881 121.596C259.881 129.322 257.814 135.082 253.68 138.875C249.614 142.669 243.619 144.566 235.695 144.566H228.977V172.71H209.752V98.8324ZM232.594 130.701C235.006 130.701 236.832 129.977 238.072 128.528C239.382 127.08 240.036 124.803 240.036 121.699C240.036 115.698 237.556 112.697 232.594 112.697H228.977V130.701H232.594Z" fill="white"/>
<path d="M271.878 98.8324H296.064L314.048 172.71H293.583L291.619 159.776H276.322L274.358 172.71H254.204L271.878 98.8324ZM289.345 145.291L284.074 113.939H283.867L278.596 145.291H289.345Z" fill="white"/>
<path d="M323.625 142.393C320.249 140.6 317.631 138.013 315.77 134.633C313.979 131.253 313.083 127.08 313.083 122.113C313.083 117.354 313.772 113.491 315.15 110.525C316.597 107.489 318.458 105.11 320.731 103.385C323.074 101.661 325.693 100.488 328.587 99.8671C331.481 99.1773 334.409 98.8324 337.372 98.8324H363.935V172.71H344.711V145.291H341.713L330.861 172.71H309.982L323.625 142.393ZM345.331 131.529V112.801H340.99C337.751 112.801 335.477 113.56 334.168 115.077C332.928 116.595 332.308 119.009 332.308 122.32C332.308 125.976 333.066 128.425 334.581 129.667C336.166 130.908 338.337 131.529 341.093 131.529H345.331Z" fill="white"/>
<path d="M395.701 98.8324H445.933V172.71H426.708V114.56H414.925V172.71H395.701V98.8324Z" fill="white"/>
<path d="M477.17 173.848C472.277 173.848 468.143 173.193 464.767 171.883C461.39 170.503 458.668 168.296 456.601 165.26C454.534 162.225 453.053 158.293 452.157 153.465C451.261 148.636 450.813 142.738 450.813 135.771C450.813 128.873 451.261 123.01 452.157 118.181C453.053 113.284 454.534 109.317 456.601 106.282C458.668 103.178 461.39 100.936 464.767 99.5567C468.143 98.1081 472.277 97.3839 477.17 97.3839C482.062 97.3839 486.196 98.1081 489.573 99.5567C492.949 100.936 495.671 103.178 497.738 106.282C499.805 109.317 501.286 113.284 502.182 118.181C503.078 123.01 503.526 128.873 503.526 135.771C503.526 142.738 503.078 148.636 502.182 153.465C501.286 158.293 499.805 162.225 497.738 165.26C495.671 168.296 492.949 170.503 489.573 171.883C486.196 173.193 482.062 173.848 477.17 173.848ZM477.17 161.122C478.617 161.122 479.754 160.742 480.58 159.983C481.476 159.225 482.131 157.88 482.544 155.948C483.027 154.017 483.337 151.43 483.474 148.188C483.612 144.877 483.681 140.738 483.681 135.771C483.681 130.805 483.612 126.7 483.474 123.458C483.337 120.147 483.027 117.526 482.544 115.595C482.131 113.663 481.476 112.318 480.58 111.559C479.754 110.801 478.617 110.421 477.17 110.421C475.723 110.421 474.551 110.801 473.655 111.559C472.829 112.318 472.174 113.663 471.692 115.595C471.278 117.526 471.003 120.147 470.865 123.458C470.727 126.7 470.658 130.805 470.658 135.771C470.658 140.738 470.727 144.877 470.865 148.188C471.003 151.43 471.278 154.017 471.692 155.948C472.174 157.88 472.829 159.225 473.655 159.983C474.551 160.742 475.723 161.122 477.17 161.122Z" fill="white"/>
<path d="M507.626 98.8324H535.119L542.871 142.6H543.077L550.829 98.8324H578.322V172.71H560.338V117.664H560.131L549.899 172.71H536.049L525.817 117.664H525.61V172.71H507.626V98.8324Z" fill="white"/>
<path d="M608.794 173.848C603.901 173.848 599.767 173.193 596.391 171.883C593.014 170.503 590.293 168.296 588.225 165.26C586.158 162.225 584.677 158.293 583.781 153.465C582.885 148.636 582.437 142.738 582.437 135.771C582.437 128.873 582.885 123.01 583.781 118.181C584.677 113.284 586.158 109.317 588.225 106.282C590.293 103.178 593.014 100.936 596.391 99.5567C599.767 98.1081 603.901 97.3839 608.794 97.3839C613.686 97.3839 617.82 98.1081 621.197 99.5567C624.573 100.936 627.295 103.178 629.362 106.282C631.429 109.317 632.911 113.284 633.806 118.181C634.702 123.01 635.15 128.873 635.15 135.771C635.15 142.738 634.702 148.636 633.806 153.465C632.911 158.293 631.429 162.225 629.362 165.26C627.295 168.296 624.573 170.503 621.197 171.883C617.82 173.193 613.686 173.848 608.794 173.848ZM608.794 161.122C610.241 161.122 611.378 160.742 612.205 159.983C613.1 159.225 613.755 157.88 614.168 155.948C614.651 154.017 614.961 151.43 615.099 148.188C615.236 144.877 615.305 140.738 615.305 135.771C615.305 130.805 615.236 126.7 615.099 123.458C614.961 120.147 614.651 117.526 614.168 115.595C613.755 113.663 613.1 112.318 612.205 111.559C611.378 110.801 610.241 110.421 608.794 110.421C607.347 110.421 606.175 110.801 605.28 111.559C604.453 112.318 603.798 113.663 603.316 115.595C602.902 117.526 602.627 120.147 602.489 123.458C602.351 126.7 602.282 130.805 602.282 135.771C602.282 140.738 602.351 144.877 602.489 148.188C602.627 151.43 602.902 154.017 603.316 155.948C603.798 157.88 604.453 159.225 605.28 159.983C606.175 160.742 607.347 161.122 608.794 161.122Z" fill="white"/>
<path d="M650.254 129.356L634.234 98.8324H654.388L666.378 127.08V98.8324H685.086V127.08L697.075 98.8324H717.23L701.21 129.356L719.607 172.71H698.522L689.323 146.325L685.086 155.017V172.71H666.378V155.017L662.14 146.325L652.941 172.71H631.856L650.254 129.356Z" fill="white"/>
<path d="M720.572 98.8324H764.293V114.56H739.797V127.183H762.742V142.29H739.797V156.983H765.223V172.71H720.572V98.8324Z" fill="white"/>
<path d="M779.9 115.181H765.636V98.8324H813.594V115.181H799.124V172.71H779.9V115.181Z" fill="white"/>
<path d="M850.357 115.181H836.093V98.8324H884.052V115.181H869.581V172.71H850.357V115.181Z" fill="white"/>
<path d="M886.317 98.8324H930.037V114.56H905.541V127.183H928.487V142.29H905.541V156.983H930.967V172.71H886.317V98.8324Z" fill="white"/>
<path d="M935.929 98.8324H982.026V114.146H955.153V127.287H963.835C971.484 127.287 977.237 129.115 981.096 132.771C984.955 136.427 986.884 142.049 986.884 149.636C986.884 154.189 986.195 157.948 984.817 160.915C983.508 163.881 981.751 166.261 979.546 168.054C977.341 169.779 974.826 170.986 972.001 171.676C969.244 172.365 966.419 172.71 963.525 172.71H935.929V98.8324ZM958.874 158.742C961.975 158.742 964.111 158.052 965.282 156.672C966.523 155.293 967.143 153.016 967.143 149.843C967.143 146.325 966.385 144.014 964.869 142.911C963.422 141.807 961.389 141.255 958.771 141.255H955.153V158.742H958.874Z" fill="white"/>
<path d="M991.697 98.8324H1035.42V114.56H1010.92V127.183H1033.87V142.29H1010.92V156.983H1036.35V172.71H991.697V98.8324Z" fill="white"/>
<path d="M0.723507 196.216H46.8212V211.53H19.9481V224.671H28.6302C36.2787 224.671 42.0323 226.499 45.891 230.155C49.7497 233.811 51.679 239.432 51.679 247.02C51.679 251.573 50.99 255.332 49.6119 258.298C48.3027 261.265 46.5456 263.644 44.3406 265.438C42.1357 267.162 39.6206 268.37 36.7955 269.059C34.0393 269.749 31.2141 270.094 28.3201 270.094H0.723507V196.216ZM23.669 256.126C26.7697 256.126 28.9058 255.436 30.0772 254.056C31.3175 252.677 31.9377 250.4 31.9377 247.227C31.9377 243.709 31.1797 241.398 29.6638 240.295C28.2168 239.191 26.1841 238.639 23.5656 238.639H19.9481V256.126H23.669Z" fill="white"/>
<path d="M56.4925 196.216H75.7171V222.705H83.2622C91.6687 222.705 97.7668 224.774 101.557 228.913C105.415 232.983 107.345 238.674 107.345 245.986C107.345 250.676 106.621 254.574 105.174 257.678C103.727 260.782 101.832 263.265 99.4894 265.128C97.2156 266.921 94.6316 268.197 91.7376 268.956C88.8436 269.715 85.9151 270.094 82.9521 270.094H56.4925V196.216ZM78.301 256.229C81.7463 256.229 84.158 255.436 85.5361 253.849C86.9142 252.194 87.6033 249.641 87.6033 246.192C87.6033 242.33 86.7419 239.743 85.0193 238.432C83.3656 237.053 81.0917 236.363 78.1977 236.363H75.7171V256.229H78.301ZM111.272 196.216H130.497V270.094H111.272V196.216Z" fill="white"/>
<path d="M161.681 271.232C156.307 271.232 151.897 270.577 148.451 269.266C145.006 267.887 142.319 265.679 140.389 262.644C138.46 259.609 137.116 255.677 136.358 250.849C135.669 246.02 135.325 240.122 135.325 233.155C135.325 226.119 135.738 220.152 136.565 215.255C137.461 210.357 138.942 206.391 141.01 203.356C143.077 200.321 145.798 198.148 149.175 196.837C152.551 195.458 156.72 194.768 161.681 194.768C166.022 194.768 169.709 195.32 172.74 196.423C175.772 197.527 178.218 199.113 180.079 201.183C182.008 203.183 183.386 205.632 184.213 208.529C185.109 211.357 185.557 214.565 185.557 218.152V222.808H166.952V218.669C166.952 214.462 166.539 211.599 165.712 210.081C164.885 208.564 163.542 207.805 161.681 207.805C160.234 207.805 159.063 208.184 158.167 208.943C157.34 209.702 156.685 211.047 156.203 212.978C155.79 214.91 155.514 217.531 155.376 220.842C155.238 224.084 155.17 228.189 155.17 233.155C155.17 238.122 155.238 242.261 155.376 245.572C155.514 248.814 155.79 251.4 156.203 253.332C156.685 255.263 157.34 256.608 158.167 257.367C159.063 258.126 160.234 258.505 161.681 258.505C162.853 258.505 163.817 258.23 164.575 257.678C165.333 257.057 165.919 256.057 166.332 254.677C166.746 253.297 167.021 251.469 167.159 249.193C167.366 246.848 167.469 243.916 167.469 240.398H186.074V245.882C186.074 251.125 185.385 255.401 184.006 258.712C182.628 261.954 180.802 264.507 178.528 266.369C176.255 268.232 173.636 269.508 170.673 270.198C167.779 270.887 164.782 271.232 161.681 271.232Z" fill="white"/>
<path d="M200.658 212.565H186.395V196.216H234.353V212.565H219.883V270.094H200.658V212.565Z" fill="white"/>
<path d="M235.895 196.216H264.732C268.384 196.216 271.553 196.803 274.241 197.975C276.928 199.148 279.133 200.769 280.855 202.838C282.647 204.839 283.956 207.253 284.783 210.081C285.61 212.841 286.023 215.807 286.023 218.98C286.023 226.706 283.956 232.465 279.822 236.259C275.756 240.053 269.762 241.95 261.838 241.95H255.119V270.094H235.895V196.216ZM258.737 228.085C261.148 228.085 262.974 227.361 264.215 225.912C265.524 224.464 266.179 222.187 266.179 219.083C266.179 213.082 263.698 210.081 258.737 210.081H255.119V228.085H258.737Z" fill="white"/>
<path d="M314.251 271.232C309.359 271.232 305.225 270.577 301.848 269.266C298.472 267.887 295.75 265.679 293.683 262.644C291.616 259.609 290.135 255.677 289.239 250.849C288.343 246.02 287.895 240.122 287.895 233.155C287.895 226.257 288.343 220.394 289.239 215.565C290.135 210.668 291.616 206.701 293.683 203.666C295.75 200.562 298.472 198.32 301.848 196.941C305.225 195.492 309.359 194.768 314.251 194.768C319.144 194.768 323.278 195.492 326.654 196.941C330.031 198.32 332.752 200.562 334.82 203.666C336.887 206.701 338.368 210.668 339.264 215.565C340.16 220.394 340.608 226.257 340.608 233.155C340.608 240.122 340.16 246.02 339.264 250.849C338.368 255.677 336.887 259.609 334.82 262.644C332.752 265.679 330.031 267.887 326.654 269.266C323.278 270.577 319.144 271.232 314.251 271.232ZM314.251 258.505C315.698 258.505 316.835 258.126 317.662 257.367C318.558 256.608 319.213 255.263 319.626 253.332C320.108 251.4 320.418 248.814 320.556 245.572C320.694 242.261 320.763 238.122 320.763 233.155C320.763 228.189 320.694 224.084 320.556 220.842C320.418 217.531 320.108 214.91 319.626 212.978C319.213 211.047 318.558 209.702 317.662 208.943C316.835 208.184 315.698 207.805 314.251 207.805C312.804 207.805 311.633 208.184 310.737 208.943C309.91 209.702 309.256 211.047 308.773 212.978C308.36 214.91 308.084 217.531 307.947 220.842C307.809 224.084 307.74 228.189 307.74 233.155C307.74 238.122 307.809 242.261 307.947 245.572C308.084 248.814 308.36 251.4 308.773 253.332C309.256 255.263 309.91 256.608 310.737 257.367C311.633 258.126 312.804 258.505 314.251 258.505Z" fill="white"/>
<path d="M370.213 196.216H420.445V270.094H401.22V211.944H389.437V270.094H370.213V196.216Z" fill="white"/>
<path d="M451.681 271.232C446.789 271.232 442.655 270.577 439.278 269.266C435.902 267.887 433.18 265.679 431.113 262.644C429.046 259.609 427.564 255.677 426.669 250.849C425.773 246.02 425.325 240.122 425.325 233.155C425.325 226.257 425.773 220.394 426.669 215.565C427.564 210.668 429.046 206.701 431.113 203.666C433.18 200.562 435.902 198.32 439.278 196.941C442.655 195.492 446.789 194.768 451.681 194.768C456.574 194.768 460.708 195.492 464.084 196.941C467.461 198.32 470.182 200.562 472.25 203.666C474.317 206.701 475.798 210.668 476.694 215.565C477.59 220.394 478.038 226.257 478.038 233.155C478.038 240.122 477.59 246.02 476.694 250.849C475.798 255.677 474.317 259.609 472.25 262.644C470.182 265.679 467.461 267.887 464.084 269.266C460.708 270.577 456.574 271.232 451.681 271.232ZM451.681 258.505C453.128 258.505 454.265 258.126 455.092 257.367C455.988 256.608 456.643 255.263 457.056 253.332C457.538 251.4 457.848 248.814 457.986 245.572C458.124 242.261 458.193 238.122 458.193 233.155C458.193 228.189 458.124 224.084 457.986 220.842C457.848 217.531 457.538 214.91 457.056 212.978C456.643 211.047 455.988 209.702 455.092 208.943C454.265 208.184 453.128 207.805 451.681 207.805C450.234 207.805 449.063 208.184 448.167 208.943C447.34 209.702 446.686 211.047 446.203 212.978C445.79 214.91 445.514 217.531 445.376 220.842C445.239 224.084 445.17 228.189 445.17 233.155C445.17 238.122 445.239 242.261 445.376 245.572C445.514 248.814 445.79 251.4 446.203 253.332C446.686 255.263 447.34 256.608 448.167 257.367C449.063 258.126 450.234 258.505 451.681 258.505Z" fill="white"/>
<path d="M477.304 254.367H482.265C483.712 251.469 484.918 248.538 485.882 245.572C486.847 242.537 487.605 239.398 488.156 236.156C488.776 232.914 489.19 229.499 489.397 225.912C489.603 222.325 489.707 218.428 489.707 214.22V196.216H536.631V254.367H543.143V284.27H525.572V270.094H494.875V284.27H477.304V254.367ZM517.51 254.367V211.53H507.794V218.359C507.794 222.015 507.622 225.636 507.278 229.223C507.002 232.741 506.588 236.087 506.037 239.26C505.486 242.433 504.866 245.33 504.177 247.951C503.488 250.504 502.799 252.642 502.11 254.367H517.51Z" fill="white"/>
<path d="M546.411 196.216H587.858V211.944H565.636V270.094H546.411V196.216Z" fill="white"/>
<path d="M614.345 271.232C609.453 271.232 605.319 270.577 601.942 269.266C598.566 267.887 595.844 265.679 593.777 262.644C591.71 259.609 590.228 255.677 589.333 250.849C588.437 246.02 587.989 240.122 587.989 233.155C587.989 226.257 588.437 220.394 589.333 215.565C590.228 210.668 591.71 206.701 593.777 203.666C595.844 200.562 598.566 198.32 601.942 196.941C605.319 195.492 609.453 194.768 614.345 194.768C619.237 194.768 623.372 195.492 626.748 196.941C630.125 198.32 632.846 200.562 634.913 203.666C636.981 206.701 638.462 210.668 639.358 215.565C640.254 220.394 640.701 226.257 640.701 233.155C640.701 240.122 640.254 246.02 639.358 250.849C638.462 255.677 636.981 259.609 634.913 262.644C632.846 265.679 630.125 267.887 626.748 269.266C623.372 270.577 619.237 271.232 614.345 271.232ZM614.345 258.505C615.792 258.505 616.929 258.126 617.756 257.367C618.652 256.608 619.306 255.263 619.72 253.332C620.202 251.4 620.512 248.814 620.65 245.572C620.788 242.261 620.857 238.122 620.857 233.155C620.857 228.189 620.788 224.084 620.65 220.842C620.512 217.531 620.202 214.91 619.72 212.978C619.306 211.047 618.652 209.702 617.756 208.943C616.929 208.184 615.792 207.805 614.345 207.805C612.898 207.805 611.727 208.184 610.831 208.943C610.004 209.702 609.35 211.047 608.867 212.978C608.454 214.91 608.178 217.531 608.04 220.842C607.903 224.084 607.834 228.189 607.834 233.155C607.834 238.122 607.903 242.261 608.04 245.572C608.178 248.814 608.454 251.4 608.867 253.332C609.35 255.263 610.004 256.608 610.831 257.367C611.727 258.126 612.898 258.505 614.345 258.505Z" fill="white"/>
<path d="M655.24 212.565H640.977V196.216H688.935V212.565H674.465V270.094H655.24V212.565Z" fill="white"/>
<path d="M715.386 271.232C710.494 271.232 706.359 270.577 702.983 269.266C699.606 267.887 696.885 265.679 694.818 262.644C692.75 259.609 691.269 255.677 690.373 250.849C689.477 246.02 689.029 240.122 689.029 233.155C689.029 226.257 689.477 220.394 690.373 215.565C691.269 210.668 692.75 206.701 694.818 203.666C696.885 200.562 699.606 198.32 702.983 196.941C706.359 195.492 710.494 194.768 715.386 194.768C720.278 194.768 724.412 195.492 727.789 196.941C731.165 198.32 733.887 200.562 735.954 203.666C738.021 206.701 739.503 210.668 740.398 215.565C741.294 220.394 741.742 226.257 741.742 233.155C741.742 240.122 741.294 246.02 740.398 250.849C739.503 255.677 738.021 259.609 735.954 262.644C733.887 265.679 731.165 267.887 727.789 269.266C724.412 270.577 720.278 271.232 715.386 271.232ZM715.386 258.505C716.833 258.505 717.97 258.126 718.797 257.367C719.692 256.608 720.347 255.263 720.76 253.332C721.243 251.4 721.553 248.814 721.691 245.572C721.828 242.261 721.897 238.122 721.897 233.155C721.897 228.189 721.828 224.084 721.691 220.842C721.553 217.531 721.243 214.91 720.76 212.978C720.347 211.047 719.692 209.702 718.797 208.943C717.97 208.184 716.833 207.805 715.386 207.805C713.939 207.805 712.767 208.184 711.872 208.943C711.045 209.702 710.39 211.047 709.908 212.978C709.494 214.91 709.219 217.531 709.081 220.842C708.943 224.084 708.874 228.189 708.874 233.155C708.874 238.122 708.943 242.261 709.081 245.572C709.219 248.814 709.494 251.4 709.908 253.332C710.39 255.263 711.045 256.608 711.872 257.367C712.767 258.126 713.939 258.505 715.386 258.505Z" fill="white"/>
<path d="M747.185 196.216H776.229C783.12 196.216 788.184 197.906 791.423 201.286C794.73 204.597 796.384 209.047 796.384 214.634C796.384 216.565 796.143 218.462 795.66 220.325C795.247 222.118 794.558 223.774 793.593 225.291C792.697 226.74 791.526 227.982 790.079 229.016C788.632 230.051 786.875 230.775 784.808 231.189V231.396C787.219 231.603 789.286 232.258 791.009 233.362C792.732 234.397 794.144 235.707 795.247 237.294C796.349 238.881 797.142 240.64 797.624 242.571C798.175 244.433 798.451 246.33 798.451 248.262C798.451 251.504 798.038 254.47 797.211 257.16C796.384 259.782 795.075 262.058 793.283 263.989C791.56 265.921 789.287 267.438 786.461 268.542C783.636 269.577 780.225 270.094 776.229 270.094H747.185V196.216ZM771.785 256.229C773.576 256.229 775.161 255.505 776.539 254.056C777.917 252.539 778.606 250.228 778.606 247.124C778.606 244.227 777.917 242.019 776.539 240.502C775.161 238.984 773.576 238.225 771.785 238.225H766.41V256.229H771.785ZM771.061 225.188C773.059 225.188 774.575 224.464 775.609 223.015C776.642 221.498 777.159 219.739 777.159 217.738C777.159 215.669 776.642 213.875 775.609 212.358C774.575 210.84 773.059 210.081 771.061 210.081H766.41V225.188H771.061Z" fill="white"/>
<path d="M803.848 196.216H822.349V237.708L834.752 196.216H856.251V270.094H837.75V226.016L825.14 270.094H803.848V196.216Z" fill="white"/>
<path d="M872.966 212.565H858.703V196.216H906.661V212.565H892.191V270.094H872.966V212.565Z" fill="white"/>
<path d="M908.926 196.216H928.151V222.705H935.696C944.102 222.705 950.201 224.774 953.99 228.913C957.849 232.983 959.778 238.674 959.778 245.986C959.778 250.676 959.055 254.574 957.608 257.678C956.161 260.782 954.266 263.265 951.923 265.128C949.649 266.921 947.065 268.197 944.171 268.956C941.277 269.715 938.349 270.094 935.386 270.094H908.926V196.216ZM930.735 256.229C934.18 256.229 936.592 255.436 937.97 253.849C939.348 252.194 940.037 249.641 940.037 246.192C940.037 242.33 939.176 239.743 937.453 238.432C935.799 237.053 933.525 236.363 930.631 236.363H928.151V256.229H930.735Z" fill="white"/>
<path d="M988.477 271.232C983.103 271.232 978.693 270.577 975.247 269.266C971.802 267.887 969.115 265.679 967.186 262.644C965.256 259.609 963.913 255.677 963.155 250.849C962.466 246.02 962.121 240.122 962.121 233.155C962.121 226.119 962.534 220.152 963.361 215.255C964.257 210.357 965.739 206.391 967.806 203.356C969.873 200.321 972.595 198.148 975.971 196.837C979.347 195.458 983.516 194.768 988.477 194.768C992.818 194.768 996.505 195.32 999.537 196.423C1002.57 197.527 1005.01 199.113 1006.88 201.183C1008.8 203.183 1010.18 205.632 1011.01 208.529C1011.91 211.357 1012.35 214.565 1012.35 218.152V222.808H993.749V218.669C993.749 214.462 993.335 211.599 992.508 210.081C991.681 208.564 990.338 207.805 988.477 207.805C987.03 207.805 985.859 208.184 984.963 208.943C984.136 209.702 983.482 211.047 982.999 212.978C982.586 214.91 982.31 217.531 982.172 220.842C982.035 224.084 981.966 228.189 981.966 233.155C981.966 238.122 982.035 242.261 982.172 245.572C982.31 248.814 982.586 251.4 982.999 253.332C983.482 255.263 984.136 256.608 984.963 257.367C985.859 258.126 987.03 258.505 988.477 258.505C989.649 258.505 990.613 258.23 991.371 257.678C992.129 257.057 992.715 256.057 993.128 254.677C993.542 253.297 993.817 251.469 993.955 249.193C994.162 246.848 994.265 243.916 994.265 240.398H1012.87V245.882C1012.87 251.125 1012.18 255.401 1010.8 258.712C1009.42 261.954 1007.6 264.507 1005.32 266.369C1003.05 268.232 1000.43 269.508 997.469 270.198C994.575 270.887 991.578 271.232 988.477 271.232Z" fill="white"/>
<path d="M1026.21 239.777C1022.84 237.984 1020.22 235.397 1018.36 232.017C1016.57 228.637 1015.67 224.464 1015.67 219.497C1015.67 214.737 1016.36 210.875 1017.74 207.908C1019.19 204.873 1021.05 202.493 1023.32 200.769C1025.66 199.044 1028.28 197.872 1031.18 197.251C1034.07 196.561 1037 196.216 1039.96 196.216H1066.52V270.094H1047.3V242.674H1044.3L1033.45 270.094H1012.57L1026.21 239.777ZM1047.92 228.913V210.185H1043.58C1040.34 210.185 1038.07 210.944 1036.76 212.461C1035.52 213.979 1034.9 216.393 1034.9 219.704C1034.9 223.36 1035.65 225.809 1037.17 227.05C1038.76 228.292 1040.93 228.913 1043.68 228.913H1047.92Z" fill="white"/>
<path d="M0 293.6H19.2246V321.951H19.4313L33.6947 293.6H54.1596L35.5552 325.883L56.4335 367.478H34.5216L23.2556 341.714L19.2246 347.922V367.478H0V293.6Z" fill="white"/>
<path d="M104.539 368.616C99.7161 368.616 95.6506 368.064 92.3432 366.961C89.0357 365.857 86.3484 364.236 84.2813 362.098C82.283 359.89 80.836 357.165 79.9402 353.923C79.0444 350.681 78.5966 346.922 78.5966 342.645V340.369H97.201C97.201 342.714 97.2355 344.852 97.3044 346.784C97.4422 348.646 97.7178 350.267 98.1312 351.647C98.6136 353.027 99.2682 354.096 100.095 354.855C100.922 355.613 102.059 355.993 103.506 355.993C104.677 355.993 105.642 355.751 106.4 355.268C107.158 354.786 107.744 353.854 108.157 352.475C108.639 351.095 108.984 349.164 109.191 346.68C109.397 344.197 109.535 340.955 109.604 336.954H97.4077V322.054H109.707C109.638 318.743 109.501 316.019 109.294 313.88C109.156 311.673 108.846 309.948 108.364 308.707C107.881 307.396 107.261 306.499 106.503 306.017C105.745 305.465 104.781 305.189 103.609 305.189C102.162 305.189 101.025 305.603 100.198 306.43C99.4404 307.258 98.8548 308.327 98.4413 309.638C98.0968 310.949 97.8901 312.432 97.8212 314.087C97.7523 315.743 97.7178 317.398 97.7178 319.054H79.2167V317.191C79.2167 313.122 79.5957 309.535 80.3537 306.43C81.1805 303.326 82.5242 300.705 84.3846 298.567C86.314 296.428 88.829 294.842 91.9298 293.807C95.0994 292.703 98.9926 292.152 103.609 292.152C109.604 292.152 114.29 293.117 117.666 295.049C121.111 296.911 123.695 299.532 125.418 302.912C127.209 306.293 128.312 310.328 128.725 315.018C129.208 319.64 129.449 324.71 129.449 330.229C129.449 335.333 129.276 340.196 128.932 344.818C128.587 349.44 127.588 353.509 125.935 357.027C124.35 360.545 121.869 363.374 118.493 365.512C115.185 367.581 110.534 368.616 104.539 368.616Z" fill="white"/>
<path d="M133.594 293.6H152.819V321.951H153.026L167.289 293.6H187.754L169.15 325.883L190.028 367.478H168.116L156.85 341.714L152.819 347.922V367.478H133.594V293.6Z" fill="white"/>
<path d="M210.975 368.616C206.909 368.616 203.326 368.237 200.226 367.478C197.194 366.65 194.644 365.374 192.577 363.65C190.51 361.856 188.96 359.511 187.926 356.614C186.892 353.716 186.376 350.198 186.376 346.06V345.232H204.877V345.956C204.877 349.75 205.325 352.371 206.22 353.82C207.185 355.199 208.735 355.889 210.872 355.889C211.974 355.889 212.904 355.751 213.662 355.475C214.489 355.199 215.144 354.682 215.626 353.923C216.177 353.096 216.556 351.992 216.763 350.612C217.039 349.164 217.176 347.301 217.176 345.025C217.176 343.369 217.107 341.99 216.97 340.886C216.832 339.713 216.487 338.817 215.936 338.196C215.385 337.506 214.558 337.023 213.455 336.747C212.353 336.471 210.837 336.333 208.908 336.333C208.219 336.333 207.564 336.333 206.944 336.333C206.324 336.333 205.531 336.368 204.567 336.437V322.986C205.118 323.055 205.807 323.089 206.634 323.089C207.461 323.089 208.046 323.089 208.391 323.089C210.182 323.089 211.595 322.951 212.629 322.675C213.731 322.399 214.558 321.882 215.109 321.123C215.66 320.295 216.005 319.192 216.143 317.812C216.281 316.364 216.349 314.536 216.349 312.328C216.349 309.569 215.867 307.707 214.902 306.741C213.938 305.706 212.629 305.189 210.975 305.189C209.803 305.189 208.839 305.465 208.081 306.017C207.392 306.568 206.841 307.293 206.427 308.189C206.014 309.086 205.738 310.121 205.6 311.294C205.462 312.397 205.394 313.535 205.394 314.708H187.203V314.191C187.203 306.741 189.166 301.222 193.094 297.635C197.022 293.98 203.154 292.152 211.492 292.152C219.691 292.152 225.686 293.807 229.476 297.118C233.335 300.36 235.264 305.43 235.264 312.328C235.264 314.122 235.057 315.881 234.644 317.605C234.23 319.261 233.541 320.813 232.577 322.261C231.681 323.71 230.51 324.986 229.063 326.09C227.616 327.125 225.858 327.883 223.791 328.366C228.477 329.194 231.853 331.022 233.92 333.85C235.988 336.678 237.021 340.679 237.021 345.853C237.021 349.991 236.401 353.509 235.161 356.407C233.989 359.304 232.267 361.684 229.993 363.546C227.719 365.34 224.963 366.65 221.724 367.478C218.554 368.237 214.971 368.616 210.975 368.616Z" fill="white"/>
<path d="M253.508 293.6H277.693L295.678 367.478H275.213L273.249 354.544H257.952L255.988 367.478H235.833L253.508 293.6ZM270.975 340.058L265.704 308.707H265.497L260.226 340.058H270.975Z" fill="white"/>
<path d="M296.056 293.6H323.55L331.301 337.368H331.508L339.26 293.6H366.753V367.478H348.769V312.432H348.562L338.33 367.478H324.48L314.247 312.432H314.041V367.478H296.056V293.6Z" fill="white"/>
<path d="M373.039 293.6H416.759V309.328H392.263V321.951H415.209V337.058H392.263V351.75H417.689V367.478H373.039V293.6Z" fill="white"/>
<path d="M422.651 293.6H441.875V320.709H453.658V293.6H472.883V367.478H453.658V337.058H441.875V367.478H422.651V293.6Z" fill="white"/>
<path d="M492.027 293.6H516.212L534.197 367.478H513.732L511.768 354.544H496.471L494.507 367.478H474.352L492.027 293.6ZM509.494 340.058L504.223 308.707H504.016L498.745 340.058H509.494Z" fill="white"/>
<path d="M534.575 293.6H562.069L569.82 337.368H570.027L577.779 293.6H605.272V367.478H587.288V312.432H587.081L576.849 367.478H562.999L552.766 312.432H552.56V367.478H534.575V293.6Z" fill="white"/>
<path d="M636.339 293.6H654.841V335.092L667.244 293.6H688.742V367.478H670.241V323.4L657.631 367.478H636.339V293.6Z" fill="white"/>
<path d="M744.71 368.616C739.335 368.616 734.925 367.961 731.48 366.65C728.034 365.271 725.347 363.063 723.418 360.028C721.488 356.993 720.145 353.061 719.387 348.232C718.698 343.404 718.353 337.506 718.353 330.539C718.353 323.503 718.767 317.536 719.594 312.639C720.489 307.741 721.971 303.775 724.038 300.74C726.105 297.704 728.827 295.532 732.203 294.221C735.58 292.841 739.748 292.152 744.71 292.152C749.051 292.152 752.737 292.703 755.769 293.807C758.801 294.911 761.247 296.497 763.107 298.567C765.037 300.567 766.415 303.016 767.242 305.913C768.137 308.741 768.585 311.949 768.585 315.536V320.192H749.981V316.053C749.981 311.845 749.567 308.983 748.741 307.465C747.914 305.948 746.57 305.189 744.71 305.189C743.263 305.189 742.091 305.568 741.195 306.327C740.369 307.086 739.714 308.431 739.232 310.362C738.818 312.294 738.543 314.915 738.405 318.226C738.267 321.468 738.198 325.572 738.198 330.539C738.198 335.506 738.267 339.644 738.405 342.955C738.543 346.198 738.818 348.784 739.232 350.716C739.714 352.647 740.369 353.992 741.195 354.751C742.091 355.51 743.263 355.889 744.71 355.889C745.881 355.889 746.846 355.613 747.604 355.062C748.362 354.441 748.947 353.44 749.361 352.061C749.774 350.681 750.05 348.853 750.188 346.577C750.394 344.232 750.498 341.3 750.498 337.782H769.102V343.266C769.102 348.508 768.413 352.785 767.035 356.096C765.657 359.338 763.831 361.891 761.557 363.753C759.283 365.615 756.665 366.892 753.702 367.581C750.808 368.271 747.81 368.616 744.71 368.616Z" fill="white"/>
<path d="M769.424 351.75H774.385C775.832 348.853 777.038 345.922 778.002 342.955C778.967 339.92 779.725 336.782 780.276 333.54C780.896 330.298 781.31 326.883 781.516 323.296C781.723 319.709 781.826 315.812 781.826 311.604V293.6H828.751V351.75H835.263V381.653H817.692V367.478H786.994V381.653H769.424V351.75ZM809.63 351.75V308.914H799.914V315.743C799.914 319.399 799.742 323.02 799.397 326.607C799.122 330.125 798.708 333.471 798.157 336.644C797.606 339.817 796.986 342.714 796.297 345.335C795.608 347.888 794.918 350.026 794.229 351.75H809.63Z" fill="white"/>
<path d="M851.22 293.6H875.406L893.39 367.478H872.925L870.961 354.544H855.665L853.701 367.478H833.546L851.22 293.6ZM868.688 340.058L863.416 308.707H863.21L857.938 340.058H868.688Z" fill="white"/>
<path d="M898.556 309.948H884.292V293.6H932.25V309.948H917.78V367.478H898.556V309.948Z" fill="white"/>
<path d="M934.515 293.6H953.74V320.089H961.285C969.692 320.089 975.79 322.158 979.58 326.297C983.438 330.367 985.368 336.057 985.368 343.369C985.368 348.06 984.644 351.957 983.197 355.062C981.75 358.166 979.855 360.649 977.512 362.511C975.239 364.305 972.655 365.581 969.761 366.34C966.867 367.099 963.938 367.478 960.975 367.478H934.515V293.6ZM956.324 353.613C959.769 353.613 962.181 352.82 963.559 351.233C964.937 349.578 965.626 347.025 965.626 343.576C965.626 339.713 964.765 337.127 963.042 335.816C961.389 334.436 959.115 333.747 956.221 333.747H953.74V353.613H956.324Z" fill="white"/>
<path d="M1014.66 293.6H1033.16V335.092L1045.57 293.6H1067.06V367.478H1048.56V323.4L1035.95 367.478H1014.66V293.6Z" fill="white"/>
<path d="M1085.74 330.022L1069.52 293.6H1091.02L1097.11 315.018H1097.32L1103.42 293.6H1124.92L1108.9 330.022L1126.16 367.478H1104.66L1097.32 345.232H1097.11L1089.78 367.478H1068.59L1085.74 330.022Z" fill="white"/>
<path d="M0.723507 390.984H19.9481V418.093H31.7309V390.984H50.9555V464.862H31.7309V434.442H19.9481V464.862H0.723507V390.984Z" fill="white"/>
<path d="M70.0994 390.984H94.2852L112.27 464.862H91.8046L89.8408 451.928H74.5438L72.58 464.862H52.4252L70.0994 390.984ZM87.5669 437.442L82.2957 406.091H82.0889L76.8177 437.442H87.5669Z" fill="white"/>
<path d="M137.43 390.984H164.923L172.675 434.752H172.882L180.634 390.984H208.127V464.862H190.143V409.816H189.936L179.703 464.862H165.853L155.621 409.816H155.414V464.862H137.43V390.984Z" fill="white"/>
<path d="M226.505 390.984H250.691L268.675 464.862H248.21L246.247 451.928H230.95L228.986 464.862H208.831L226.505 390.984ZM243.973 437.442L238.701 406.091H238.495L233.224 437.442H243.973Z" fill="white"/>
<path d="M269.054 390.984H288.279V419.335H288.485L302.749 390.984H323.214L304.609 423.267L325.488 464.862H303.576L292.31 439.098L288.279 445.306V464.862H269.054V390.984Z" fill="white"/>
<path d="M347.31 466C341.935 466 337.525 465.345 334.08 464.034C330.635 462.654 327.947 460.447 326.018 457.412C324.089 454.377 322.745 450.445 321.987 445.616C321.298 440.788 320.954 434.89 320.954 427.923C320.954 420.887 321.367 414.92 322.194 410.023C323.09 405.125 324.571 401.159 326.638 398.123C328.705 395.088 331.427 392.915 334.804 391.605C338.18 390.225 342.349 389.535 347.31 389.535C351.651 389.535 355.337 390.087 358.369 391.191C361.401 392.295 363.847 393.881 365.708 395.951C367.637 397.951 369.015 400.4 369.842 403.297C370.738 406.125 371.186 409.333 371.186 412.92V417.576H352.581V413.437C352.581 409.229 352.168 406.367 351.341 404.849C350.514 403.331 349.17 402.573 347.31 402.573C345.863 402.573 344.691 402.952 343.796 403.711C342.969 404.47 342.314 405.815 341.832 407.746C341.418 409.678 341.143 412.299 341.005 415.61C340.867 418.852 340.798 422.956 340.798 427.923C340.798 432.889 340.867 437.028 341.005 440.339C341.143 443.581 341.418 446.168 341.832 448.1C342.314 450.031 342.969 451.376 343.796 452.135C344.691 452.894 345.863 453.273 347.31 453.273C348.481 453.273 349.446 452.997 350.204 452.445C350.962 451.825 351.548 450.824 351.961 449.445C352.374 448.065 352.65 446.237 352.788 443.961C352.995 441.615 353.098 438.684 353.098 435.166H371.702V440.65C371.702 445.892 371.013 450.169 369.635 453.48C368.257 456.722 366.431 459.274 364.157 461.137C361.883 462.999 359.265 464.275 356.302 464.965C353.408 465.655 350.411 466 347.31 466Z" fill="white"/>
<path d="M376.571 390.984H395.073V432.476L407.476 390.984H428.974V464.862H410.473V420.783L397.863 464.862H376.571V390.984Z" fill="white"/>
<path d="M435.251 390.984H462.744L470.496 434.752H470.702L478.454 390.984H505.948V464.862H487.963V409.816H487.757L477.524 464.862H463.674L453.442 409.816H453.235V464.862H435.251V390.984Z" fill="white"/>
<path d="M524.326 390.984H548.512L566.496 464.862H546.031L544.067 451.928H528.77L526.807 464.862H506.652L524.326 390.984ZM541.793 437.442L536.522 406.091H536.315L531.044 437.442H541.793Z" fill="white"/>
<path d="M572.432 465.483C571.881 465.483 571.226 465.448 570.468 465.379C569.779 465.379 569.021 465.345 568.194 465.276C567.436 465.207 566.678 465.138 565.92 465.069C565.162 465 564.542 464.896 564.06 464.758V449.548C564.404 449.617 564.818 449.686 565.3 449.755C565.782 449.755 566.196 449.755 566.54 449.755C567.781 449.755 568.849 449.652 569.745 449.445C570.709 449.169 571.536 448.445 572.225 447.272C572.914 446.099 573.465 444.306 573.879 441.891C574.292 439.408 574.637 435.994 574.912 431.648C575.188 427.302 575.36 421.818 575.429 415.196C575.567 408.574 575.636 400.503 575.636 390.984H621.837V464.862H602.612V406.298H593.724C593.724 418.231 593.482 428.026 593 435.683C592.587 443.271 591.622 449.307 590.106 453.79C588.659 458.205 586.523 461.275 583.698 462.999C580.873 464.655 577.117 465.483 572.432 465.483Z" fill="white"/>
<path d="M628.818 390.984H648.042V417.472H655.588C663.994 417.472 670.092 419.542 673.882 423.681C677.741 427.75 679.67 433.441 679.67 440.753C679.67 445.444 678.946 449.341 677.499 452.445C676.052 455.549 674.157 458.033 671.815 459.895C669.541 461.689 666.957 462.965 664.063 463.724C661.169 464.482 658.24 464.862 655.277 464.862H628.818V390.984ZM650.626 450.997C654.072 450.997 656.483 450.204 657.861 448.617C659.239 446.961 659.929 444.409 659.929 440.96C659.929 437.097 659.067 434.511 657.345 433.2C655.691 431.82 653.417 431.13 650.523 431.13H648.042V450.997H650.626Z" fill="white"/>
<path d="M684.183 390.984H703.408V418.093H715.19V390.984H734.415V464.862H715.19V434.442H703.408V464.862H684.183V390.984Z" fill="white"/>
<path d="M741.466 390.984H760.691V417.472H768.236C776.642 417.472 782.74 419.542 786.53 423.681C790.389 427.75 792.318 433.441 792.318 440.753C792.318 445.444 791.595 449.341 790.148 452.445C788.701 455.549 786.806 458.033 784.463 459.895C782.189 461.689 779.605 462.965 776.711 463.724C773.817 464.482 770.889 464.862 767.926 464.862H741.466V390.984ZM763.275 450.997C766.72 450.997 769.131 450.204 770.51 448.617C771.888 446.961 772.577 444.409 772.577 440.96C772.577 437.097 771.715 434.511 769.993 433.2C768.339 431.82 766.065 431.13 763.171 431.13H760.691V450.997H763.275ZM796.246 390.984H815.47V464.862H796.246V390.984Z" fill="white"/>
<path d="M822.469 390.984H866.189V406.711H841.693V419.335H864.639V434.442H841.693V449.134H867.12V464.862H822.469V390.984Z" fill="white"/>
<path d="M896.862 390.984H942.96V406.298H916.087V419.438H924.769C932.418 419.438 938.171 421.266 942.03 424.922C945.889 428.578 947.818 434.2 947.818 441.788C947.818 446.341 947.129 450.1 945.751 453.066C944.442 456.032 942.684 458.412 940.48 460.206C938.275 461.93 935.759 463.137 932.934 463.827C930.178 464.517 927.353 464.862 924.459 464.862H896.862V390.984ZM919.808 450.893C922.909 450.893 925.045 450.203 926.216 448.824C927.456 447.444 928.077 445.168 928.077 441.995C928.077 438.477 927.319 436.166 925.803 435.062C924.356 433.959 922.323 433.407 919.705 433.407H916.087V450.893H919.808Z" fill="white"/>
<path d="M964.724 390.984H988.91L1006.89 464.862H986.429L984.466 451.928H969.169L967.205 464.862H947.05L964.724 390.984ZM982.192 437.442L976.921 406.091H976.714L971.443 437.442H982.192Z" fill="white"/>
<path d="M1012.83 465.483C1012.28 465.483 1011.62 465.448 1010.87 465.379C1010.18 465.379 1009.42 465.345 1008.59 465.276C1007.83 465.207 1007.08 465.138 1006.32 465.069C1005.56 465 1004.94 464.896 1004.46 464.758V449.548C1004.8 449.617 1005.22 449.686 1005.7 449.755C1006.18 449.755 1006.59 449.755 1006.94 449.755C1008.18 449.755 1009.25 449.652 1010.14 449.445C1011.11 449.169 1011.93 448.445 1012.62 447.272C1013.31 446.099 1013.86 444.306 1014.28 441.891C1014.69 439.408 1015.04 435.994 1015.31 431.648C1015.59 427.302 1015.76 421.818 1015.83 415.196C1015.97 408.574 1016.03 400.503 1016.03 390.984H1062.24V464.862H1043.01V406.298H1034.12C1034.12 418.231 1033.88 428.026 1033.4 435.683C1032.99 443.271 1032.02 449.307 1030.5 453.79C1029.06 458.205 1026.92 461.275 1024.1 462.999C1021.27 464.655 1017.52 465.483 1012.83 465.483Z" fill="white"/>
<path d="M1073.04 465.483C1072.49 465.483 1071.83 465.448 1071.08 465.379C1070.39 465.379 1069.63 465.345 1068.8 465.276C1068.04 465.207 1067.29 465.138 1066.53 465.069C1065.77 465 1065.15 464.896 1064.67 464.758V449.548C1065.01 449.617 1065.43 449.686 1065.91 449.755C1066.39 449.755 1066.8 449.755 1067.15 449.755C1068.39 449.755 1069.46 449.652 1070.35 449.445C1071.32 449.169 1072.14 448.445 1072.83 447.272C1073.52 446.099 1074.07 444.306 1074.49 441.891C1074.9 439.408 1075.25 435.994 1075.52 431.648C1075.8 427.302 1075.97 421.818 1076.04 415.196C1076.18 408.574 1076.24 400.503 1076.24 390.984H1122.45V464.862H1103.22V406.298H1094.33C1094.33 418.231 1094.09 428.026 1093.61 435.683C1093.2 443.271 1092.23 449.307 1090.71 453.79C1089.27 458.205 1087.13 461.275 1084.31 462.999C1081.48 464.655 1077.73 465.483 1073.04 465.483Z" fill="white"/>
<path d="M1129.43 390.984H1148.65V417.472H1156.2C1164.6 417.472 1170.7 419.542 1174.49 423.681C1178.35 427.75 1180.28 433.441 1180.28 440.753C1180.28 445.444 1179.55 449.341 1178.11 452.445C1176.66 455.549 1174.77 458.033 1172.42 459.895C1170.15 461.689 1167.57 462.965 1164.67 463.724C1161.78 464.482 1158.85 464.862 1155.89 464.862H1129.43V390.984ZM1151.23 450.997C1154.68 450.997 1157.09 450.204 1158.47 448.617C1159.85 446.961 1160.54 444.409 1160.54 440.96C1160.54 437.097 1159.68 434.511 1157.95 433.2C1156.3 431.82 1154.03 431.13 1151.13 431.13H1148.65V450.997H1151.23ZM1184.21 390.984H1203.43V464.862H1184.21V390.984Z" fill="white"/>
<path d="M1210.64 444.375H1228V464.862H1210.64V444.375Z" fill="white"/>
</svg>
